<svg width="93" height="93" viewBox="0 0 93 93" fill="none" xmlns="http://www.w3.org/2000/svg">
<circle cx="46.0559" cy="46" r="46" fill="#044D42"/>
<path d="M36.821 46.6968H53.8968M53.8968 46.6968L45.3589 38.1589M53.8968 46.6968L45.3589 55.2347" stroke="white" stroke-width="1.6" stroke-linecap="round" stroke-linejoin="round"/>
<path d="M77.5917 41.6561C77.704 42.2237 77.9357 42.6251 78.2866 42.8601C78.6357 43.086 79.1755 43.1933 79.9059 43.182C79.9242 43.1784 79.9388 43.204 79.9496 43.259C79.9587 43.3047 79.954 43.3294 79.9357 43.3331C79.5989 43.3616 79.1604 43.4056 78.6203 43.4648C78.0802 43.5241 77.6774 43.58 77.4119 43.6325C77.3661 43.6416 77.3387 43.6232 77.3296 43.5774C77.3188 43.5225 77.3362 43.4905 77.382 43.4815C77.5834 43.4416 77.6352 43.1745 77.5374 42.6801C77.4091 41.8872 77.2408 40.9643 77.0326 39.9114C76.9257 39.3712 76.8033 38.8008 76.6655 38.2001L76.467 37.2689C76.4018 36.9393 76.3309 36.7012 76.2544 36.5546C76.176 36.3989 76.0636 36.3117 75.9172 36.2931C75.8788 36.2911 75.855 36.2673 75.846 36.2215C75.8369 36.1757 75.8507 36.1492 75.8873 36.142C76.1583 36.1169 76.5666 36.0647 77.1122 35.9853C77.6578 35.9059 78.1 35.8327 78.4388 35.7657C78.4571 35.7621 78.4717 35.7877 78.4826 35.8427C78.4934 35.8976 78.4897 35.9269 78.4714 35.9305C77.7627 36.0993 77.2927 36.3445 77.0613 36.6661C76.8209 36.9896 76.7613 37.4581 76.8827 38.0715C76.9642 38.4835 77.0404 38.7729 77.1115 38.9396C77.1825 39.1063 77.2839 39.21 77.4156 39.2505C77.5473 39.2911 77.7551 39.2833 78.0389 39.2271L84.3702 37.9747C84.654 37.9185 84.8537 37.8457 84.9692 37.7563C85.0847 37.6668 85.1473 37.526 85.1568 37.3339C85.1664 37.1417 85.1322 36.8487 85.0543 36.455C85.0489 36.4276 85.0736 36.4084 85.1286 36.3975C85.1835 36.3867 85.2137 36.395 85.2191 36.4224C85.2789 36.7246 85.3223 36.9681 85.3494 37.153L85.5476 38.227L85.765 39.2543C85.8104 39.4356 85.8648 39.6865 85.9282 40.007C85.9318 40.0253 85.9062 40.0399 85.8512 40.0507C85.7963 40.0616 85.767 40.0579 85.7634 40.0396C85.6855 39.6459 85.6056 39.362 85.5236 39.1879C85.4416 39.0139 85.3301 38.9075 85.1893 38.8687C85.0374 38.8227 84.8242 38.8268 84.5495 38.8811L78.1907 40.139C77.9069 40.1951 77.7164 40.2661 77.6192 40.3519C77.5128 40.4396 77.4631 40.5731 77.4701 40.7525C77.4679 40.9337 77.5084 41.2349 77.5917 41.6561ZM78.7275 32.9292L77.4943 30.3221L77.7182 30.1078L79.0831 32.9933L78.7275 32.9292ZM80.2107 24.933C80.1948 24.8993 80.2121 24.8704 80.2627 24.8465C80.3133 24.8225 80.3466 24.8274 80.3626 24.8612C80.4384 25.0215 80.5477 25.2744 80.6905 25.6198C80.8333 25.9653 80.9406 26.214 81.0124 26.3658C81.1002 26.5514 81.2204 26.7837 81.373 27.0626C81.5175 27.3246 81.6238 27.5273 81.6916 27.6707C81.7076 27.7044 81.6902 27.7333 81.6396 27.7572C81.589 27.7812 81.5557 27.7763 81.5397 27.7425C81.3881 27.4219 81.2508 27.2081 81.1279 27.101C81.001 26.9856 80.8616 26.9637 80.7097 27.0356C80.5832 27.0954 80.4299 27.2299 80.25 27.4389L75.6436 33.0561L75.1016 32.9253L82.0719 32.6326C82.4146 32.615 82.6788 32.5623 82.8644 32.4745C83.3622 32.2391 83.4155 31.7079 83.0244 30.8811C83.0045 30.8389 83.0198 30.8059 83.0704 30.7819C83.121 30.758 83.1563 30.7671 83.1763 30.8093C83.2481 30.9611 83.3434 31.1845 83.4623 31.4793C83.597 31.8079 83.7203 32.0903 83.8321 32.3266C83.9358 32.5459 84.064 32.795 84.2166 33.0739C84.3532 33.319 84.4614 33.526 84.5412 33.6947C84.5612 33.7369 84.5458 33.77 84.4952 33.7939C84.4446 33.8179 84.4093 33.8087 84.3893 33.7666C84.2776 33.5303 84.1416 33.352 83.9814 33.2316C83.8088 33.1068 83.5789 33.0245 83.2917 32.9849C82.992 32.9408 82.5894 32.9299 82.0837 32.9523L74.5181 33.2632C74.4848 33.2583 74.4582 33.2348 74.4382 33.1926C74.4183 33.1504 74.419 33.1191 74.4403 33.0987L79.3173 27.1367C79.8059 26.5545 80.112 26.1103 80.2356 25.804C80.3507 25.5018 80.3424 25.2114 80.2107 24.933ZM77.1302 22.5012C77.3625 22.3135 77.5096 22.1466 77.5716 22.0006C77.6204 21.8531 77.5962 21.6746 77.499 21.4652C77.3959 21.2485 77.1889 20.9478 76.8779 20.5631C76.8603 20.5413 76.8733 20.5128 76.9169 20.4776C76.9604 20.4424 76.991 20.4357 77.0086 20.4575C77.2491 20.7551 77.4332 20.9904 77.5609 21.1632L78.3155 22.1193L78.916 22.8401C79.0347 22.9722 79.1879 23.1543 79.3756 23.3866C79.3874 23.4012 79.3715 23.426 79.3279 23.4612C79.2844 23.4964 79.2567 23.5068 79.245 23.4922C79.0221 23.2164 78.8426 23.0314 78.7066 22.9373C78.5647 22.836 78.4253 22.8046 78.2885 22.8432C78.1444 22.8876 77.9635 22.9978 77.7457 23.1738L72.7041 27.2479C72.4863 27.4239 72.3442 27.5748 72.2777 27.7004C72.2113 27.8261 72.2127 27.969 72.282 28.129C72.3382 28.2876 72.4777 28.5048 72.7007 28.7807C72.7124 28.7952 72.6965 28.82 72.6529 28.8552C72.6094 28.8904 72.5817 28.9008 72.57 28.8862L72.1409 28.333C71.9091 28.0164 71.7198 27.7673 71.5731 27.5858C71.4265 27.4043 71.2513 27.2099 71.0477 27.0024C70.9773 26.9153 70.8622 26.7803 70.7024 26.5975C70.5354 26.4204 70.3961 26.263 70.2847 26.1251C69.745 25.4572 69.4626 24.8034 69.4376 24.1636C69.4068 23.5165 69.6962 22.9466 70.306 22.4539C70.7851 22.0667 71.2848 21.8609 71.8051 21.8365C72.3195 21.8048 72.8061 21.9096 73.265 22.1507C73.7239 22.3919 74.1117 22.7085 74.4285 23.1005C74.5986 23.311 74.7212 23.4999 74.7964 23.6672C74.814 23.6889 74.8046 23.7145 74.7683 23.7438C74.7466 23.7614 74.7219 23.7754 74.6942 23.7857C74.6607 23.7888 74.6417 23.7802 74.6372 23.7598C74.5724 23.6202 74.4813 23.4778 74.364 23.3326C73.9768 22.8535 73.4952 22.5767 72.9191 22.5023C72.3371 22.4206 71.7521 22.6173 71.164 23.0925C70.5906 23.5559 70.2666 24.0757 70.1922 24.6518C70.1105 25.2338 70.2662 25.768 70.6592 26.2544C70.8704 26.5157 71.0374 26.6927 71.1603 26.7854C71.2832 26.8781 71.4197 26.9059 71.5696 26.8687C71.7123 26.8374 71.9071 26.722 72.1539 26.5225L77.1302 22.5012ZM64.508 20.313C64.9939 20.6273 65.4434 20.7401 65.8563 20.6515C66.2615 20.5579 66.7141 20.2448 67.2141 19.7123C67.2242 19.6967 67.2528 19.704 67.2998 19.7344C67.339 19.7598 67.3535 19.7803 67.3434 19.796C67.1296 20.0578 66.8561 20.4034 66.5229 20.8326C66.1897 21.2618 65.9496 21.59 65.8026 21.8173C65.7773 21.8565 65.745 21.8634 65.7058 21.838C65.6588 21.8076 65.648 21.7728 65.6733 21.7336C65.7848 21.5612 65.629 21.3382 65.2058 21.0644C64.547 20.605 63.767 20.0838 62.8658 19.5009C62.4034 19.2019 61.9085 18.8929 61.3811 18.574L60.5741 18.0688C60.292 17.8863 60.0717 17.7716 59.9131 17.7246C59.7467 17.6725 59.6059 17.6926 59.4906 17.7848C59.4625 17.8111 59.4289 17.8116 59.3897 17.7862C59.3505 17.7609 59.3411 17.7325 59.3613 17.7012C59.5318 17.4891 59.7784 17.1595 60.1009 16.7123C60.4235 16.2652 60.6786 15.8966 60.8661 15.6066C60.8763 15.5909 60.9048 15.5983 60.9519 15.6287C60.9989 15.6591 61.0173 15.6822 61.0072 15.6978C60.6353 16.3243 60.4845 16.8326 60.5546 17.2225C60.6197 17.6203 60.9148 17.989 61.4398 18.3286C61.7925 18.5567 62.0534 18.7032 62.2226 18.7682C62.3918 18.8331 62.5367 18.8324 62.6575 18.766C62.7783 18.6996 62.9172 18.5449 63.0743 18.302L66.5794 12.8827C66.7365 12.6398 66.8231 12.4457 66.8393 12.3005C66.8554 12.1553 66.7977 12.0124 66.6663 11.8718C66.5349 11.7313 66.3007 11.552 65.9637 11.3341C65.9402 11.3189 65.9437 11.2877 65.9741 11.2407C66.0045 11.1937 66.0315 11.1778 66.055 11.193C66.3136 11.3603 66.5187 11.4985 66.6704 11.6077L67.5797 12.2125L68.469 12.771C68.6308 12.8646 68.8489 13 69.1232 13.1774C69.1388 13.1876 69.1315 13.2161 69.101 13.2632C69.0706 13.3102 69.0476 13.3286 69.0319 13.3185C68.6949 13.1005 68.4354 12.9605 68.2533 12.8983C68.0712 12.8361 67.9173 12.8421 67.7914 12.9163C67.6527 12.9933 67.5073 13.1494 67.3553 13.3845L63.835 18.8273C63.6778 19.0703 63.5963 19.2565 63.5903 19.386C63.5793 19.5234 63.6406 19.652 63.7743 19.7718C63.903 19.8994 64.1475 20.0798 64.508 20.313ZM58.0416 7.61615C58.8692 7.87806 59.5472 8.30312 60.0757 8.89133C60.5924 9.48562 60.9246 10.1683 61.0721 10.9395C61.2079 11.7167 61.1519 12.4968 60.9041 13.2798C60.614 14.1964 60.1348 14.9062 59.4666 15.4093C58.7954 15.9214 58.0474 16.2279 57.2224 16.3291C56.3886 16.4274 55.5935 16.3568 54.8371 16.1175C53.9918 15.8499 53.3121 15.4146 52.7982 14.8114C52.2814 14.2171 51.9567 13.5416 51.8242 12.785C51.6827 12.0256 51.7275 11.2811 51.9584 10.5514C52.2147 9.74167 52.6634 9.06625 53.3046 8.52516C53.9457 7.98407 54.6886 7.63181 55.5333 7.4684C56.3691 7.30217 57.2052 7.35142 58.0416 7.61615ZM57.4858 7.74859C56.8807 7.55709 56.2914 7.53212 55.718 7.67369C55.1356 7.81244 54.6178 8.11846 54.1645 8.59176C53.6996 9.07113 53.3418 9.70679 53.0911 10.4987C52.8264 11.3352 52.7469 12.1275 52.8528 12.8756C52.9587 13.6238 53.2386 14.2704 53.6926 14.8154C54.1378 15.3577 54.7385 15.7485 55.4949 15.9879C56.4737 16.2977 57.3389 16.224 58.0906 15.7668C58.8422 15.3096 59.3926 14.5293 59.7418 13.426C60.0066 12.5895 60.093 11.775 60.0013 10.9823C59.9067 10.1986 59.6424 9.51781 59.2086 8.93996C58.7719 8.37101 58.1976 7.97389 57.4858 7.74859ZM45.1426 6.75793C45.1331 6.48743 45.0982 6.29254 45.038 6.17325C44.9778 6.05396 44.8722 5.97362 44.7213 5.93223C44.5708 5.90016 44.3276 5.89004 43.9918 5.90184L42.4667 5.95546C41.9351 5.97415 41.5164 6.15231 41.2107 6.48992C40.9051 6.82754 40.7111 7.28731 40.6289 7.86922C40.6298 7.8972 40.6068 7.90735 40.5599 7.89966C40.5039 7.90163 40.4754 7.88862 40.4745 7.86064C40.5312 7.0835 40.5507 6.44309 40.533 5.9394C40.5304 5.86478 40.5424 5.80832 40.5691 5.77003C40.5961 5.74106 40.6515 5.7251 40.7355 5.72215L47.1995 5.49488C47.2181 5.49422 47.2285 5.52188 47.2304 5.57784C47.2324 5.63381 47.224 5.66212 47.2054 5.66278C46.8509 5.67524 46.5953 5.70758 46.4383 5.75979C46.2721 5.81233 46.1633 5.90488 46.1119 6.03743C46.0608 6.17931 46.0402 6.39017 46.0501 6.66999L46.2778 13.148C46.2877 13.4278 46.3229 13.632 46.3834 13.7607C46.444 13.8893 46.559 13.974 46.7286 14.0147C46.8891 14.0651 47.1466 14.084 47.501 14.0716C47.5197 14.0709 47.53 14.0986 47.532 14.1545C47.5339 14.2105 47.5256 14.2388 47.5069 14.2395L46.8209 14.2496C46.4285 14.2447 46.111 14.2465 45.8685 14.2551C45.6073 14.2642 45.2812 14.285 44.8901 14.3175L44.219 14.3551C44.191 14.3561 44.176 14.3286 44.174 14.2726C44.1721 14.2166 44.1851 14.1882 44.2131 14.1872C44.5582 14.175 44.8137 14.138 44.9796 14.0762C45.1459 14.0236 45.2545 13.9264 45.3056 13.7845C45.357 13.652 45.3777 13.4458 45.3679 13.166L45.1426 6.75793ZM34.062 7.19851C34.895 6.95434 35.6948 6.92899 36.4615 7.12246C37.2219 7.32751 37.8784 7.70891 38.4309 8.26667C38.9771 8.83601 39.3657 9.51476 39.5968 10.3029C39.8672 11.2254 39.8654 12.0819 39.5913 12.8722C39.3198 13.6715 38.87 14.3432 38.2416 14.8873C37.6043 15.4339 36.9051 15.8189 36.1438 16.042C35.2929 16.2914 34.486 16.3091 33.7229 16.0951C32.9626 15.8901 32.3164 15.5105 31.7844 14.9565C31.2434 14.4051 30.8653 13.7621 30.65 13.0277C30.4111 12.2127 30.4068 11.4018 30.6372 10.5951C30.8675 9.78836 31.2877 9.08163 31.8977 8.47489C32.4986 7.87076 33.2201 7.4453 34.062 7.19851ZM33.6745 7.61848C33.0655 7.79701 32.5624 8.10494 32.1654 8.54228C31.7595 8.98225 31.5004 9.52505 31.3881 10.1707C31.2695 10.8279 31.3271 11.5551 31.5607 12.3522C31.8075 13.1941 32.1835 13.896 32.6886 14.458C33.1938 15.0199 33.7868 15.4005 34.4676 15.5996C35.1395 15.8015 35.8561 15.7908 36.6174 15.5676C37.6026 15.2788 38.2797 14.7351 38.6486 13.9364C39.0175 13.1377 39.0391 12.183 38.7136 11.0724C38.4668 10.2305 38.0843 9.50623 37.566 8.89952C37.0504 8.30177 36.4513 7.88407 35.7689 7.64644C35.0892 7.41776 34.391 7.40844 33.6745 7.61848ZM27.3666 20.0856C26.9873 20.3239 26.5817 20.5292 26.1498 20.7014C25.7178 20.8736 25.3451 20.9645 25.0315 20.9742C24.9405 20.9873 24.8747 20.979 24.834 20.9494C24.7905 20.9327 24.7374 20.8834 24.6749 20.8014L23.7103 19.5557C23.6954 19.532 23.7052 19.5038 23.7397 19.471C23.7793 19.4462 23.8104 19.4432 23.8332 19.4619C24.3894 19.9612 24.994 20.2041 25.6469 20.1906C26.2969 20.1901 26.9696 19.9713 27.6651 19.5343C28.2657 19.1569 28.7068 18.6923 28.9884 18.1406C29.275 17.5968 29.3893 17.0068 29.3314 16.3708C29.2735 15.7348 29.0459 15.1007 28.6486 14.4685C28.1868 13.7336 27.6096 13.1483 26.917 12.7127C26.2165 12.282 25.4952 12.0463 24.7531 12.0056C24.0031 11.9698 23.3278 12.1406 22.7272 12.518C22.1582 12.8755 21.7611 13.34 21.5359 13.9114C21.3157 14.4907 21.2986 15.1738 21.4845 15.9609C21.4994 15.9846 21.491 16.0064 21.4594 16.0262C21.4357 16.0411 21.4135 16.0496 21.3927 16.0516C21.364 16.0586 21.3447 16.0542 21.3348 16.0384L20.6591 14.5946C20.6153 14.4899 20.5953 14.4142 20.5992 14.3677C20.6001 14.3341 20.6261 14.2791 20.6774 14.2028C21.1999 13.4556 21.8564 12.8337 22.6466 12.3371C23.5949 11.7412 24.5083 11.4318 25.3868 11.4089C26.2624 11.3989 27.0365 11.5959 27.7092 11.9999C28.382 12.4039 28.9244 12.9339 29.3366 13.5898C29.7934 14.3169 30.0016 15.0955 29.961 15.9256C29.9205 16.7558 29.6676 17.5374 29.2024 18.2707C28.7372 19.0039 28.1253 19.6089 27.3666 20.0856ZM20.0546 20.8988L18.0695 22.9908L17.7887 22.8595L19.9859 20.5441L20.0546 20.8988ZM12.0629 22.4054C12.0372 22.4325 12.004 22.4268 11.9634 22.3882C11.9228 22.3497 11.9153 22.3169 11.941 22.2898C12.0631 22.1612 12.2594 21.9679 12.5299 21.7099C12.8004 21.4519 12.9935 21.262 13.1091 21.1402C13.2505 20.9912 13.4236 20.7952 13.6285 20.5522C13.8205 20.3227 13.9712 20.1504 14.0804 20.0353C14.1061 20.0082 14.1392 20.014 14.1799 20.0525C14.2205 20.0911 14.2279 20.1239 14.2022 20.1509C13.9581 20.4082 13.8084 20.6135 13.7529 20.7668C13.6911 20.9269 13.7211 21.0647 13.843 21.1804C13.9446 21.2767 14.1253 21.371 14.3852 21.4632L21.2874 23.7284L21.3613 24.281L18.5695 17.8876C18.4293 17.5744 18.2847 17.3471 18.1357 17.2058C17.7363 16.8267 17.2218 16.9689 16.5922 17.6324C16.5601 17.6663 16.5237 17.6639 16.4831 17.6254C16.4424 17.5868 16.4382 17.5506 16.4703 17.5168C16.586 17.3949 16.7598 17.2253 16.9917 17.008C17.2494 16.7635 17.4682 16.5465 17.6481 16.357C17.8151 16.181 18.0011 15.9714 18.206 15.7284C18.3852 15.5124 18.539 15.3367 18.6675 15.2013C18.6996 15.1675 18.736 15.1698 18.7766 15.2084C18.8172 15.2469 18.8215 15.2831 18.7894 15.317C18.6095 15.5065 18.4924 15.6978 18.438 15.8906C18.384 16.0967 18.3904 16.3408 18.4572 16.623C18.5243 16.9183 18.6597 17.2977 18.8633 17.7611L21.8873 24.703C21.8948 24.7358 21.8825 24.7691 21.8503 24.803C21.8182 24.8368 21.7888 24.8475 21.7621 24.835L14.4405 22.4422C13.7211 22.1969 13.1963 22.0721 12.8661 22.0675C12.5426 22.0694 12.2749 22.182 12.0629 22.4054ZM17.9663 29.0296C18.252 28.5264 18.3387 28.0711 18.2264 27.664C18.1096 27.2649 17.7709 26.8312 17.2104 26.3627C17.1942 26.3535 17.1999 26.3245 17.2275 26.2758C17.2506 26.2353 17.2702 26.2196 17.2864 26.2288C17.5602 26.4271 17.921 26.6802 18.3687 26.9881C18.8164 27.2959 19.158 27.5166 19.3933 27.6503C19.4339 27.6733 19.4427 27.7051 19.4196 27.7457C19.392 27.7944 19.3579 27.8072 19.3173 27.7842C19.1387 27.6828 18.925 27.8513 18.6762 28.2896C18.2556 28.9738 17.7803 29.7826 17.2504 30.716C16.9786 31.1949 16.6987 31.7068 16.4108 32.2517L15.953 33.0865C15.7871 33.3787 15.6853 33.6053 15.6476 33.7663C15.6052 33.9355 15.6334 34.0749 15.7321 34.1846C15.7599 34.2111 15.7623 34.2447 15.7393 34.2853C15.7163 34.3258 15.6885 34.3369 15.6561 34.3185C15.4345 34.1605 15.0912 33.9334 14.6261 33.6372C14.1611 33.341 13.7784 33.1077 13.4781 32.9372C13.4618 32.9279 13.4676 32.899 13.4952 32.8503C13.5228 32.8016 13.5448 32.7818 13.561 32.7911C14.2079 33.1261 14.724 33.2474 15.1093 33.1548C15.5026 33.0669 15.8537 32.751 16.1624 32.2072C16.3697 31.842 16.5009 31.573 16.556 31.4004C16.6111 31.2277 16.602 31.0831 16.5288 30.9663C16.4555 30.8496 16.2931 30.7198 16.0414 30.577L10.4288 27.3907C10.1772 27.2479 9.97846 27.1726 9.83257 27.1649C9.68669 27.1572 9.54737 27.223 9.41463 27.3623C9.28189 27.5016 9.11646 27.7457 8.91832 28.0947C8.9045 28.1191 8.87323 28.1175 8.82453 28.0898C8.77583 28.0622 8.7584 28.0362 8.77222 28.0118C8.92428 27.744 9.05044 27.5312 9.15072 27.3735L9.70201 26.4307L10.2082 25.5107C10.2923 25.3438 10.4149 25.1182 10.5762 24.8342C10.5854 24.8179 10.6144 24.8236 10.6631 24.8513C10.7118 24.8789 10.7315 24.9009 10.7223 24.9171C10.5241 25.2661 10.3993 25.5333 10.3477 25.7187C10.2961 25.9041 10.311 26.0574 10.3924 26.1787C10.4773 26.3128 10.6415 26.4489 10.885 26.5872L16.522 29.7873C16.7736 29.9301 16.9642 30.0008 17.0939 29.9993C17.2316 30.0023 17.3565 29.9337 17.4684 29.7933C17.5884 29.6575 17.7544 29.4029 17.9663 29.0296ZM6.87648 31.854C6.8818 31.8362 6.9113 31.8352 6.96498 31.8511C7.01866 31.8671 7.04284 31.884 7.03752 31.9019C6.93645 32.2419 6.88568 32.4946 6.88519 32.6599C6.88205 32.8343 6.93513 32.9669 7.04442 33.0578C7.16 33.1603 7.35198 33.2515 7.62037 33.3313L13.8336 35.1784C14.102 35.2582 14.3081 35.2854 14.452 35.26C14.5932 35.2436 14.7101 35.1615 14.8027 35.0137C14.9016 34.8776 15.0016 34.6396 15.1027 34.2996C15.108 34.2817 15.1375 34.2807 15.1912 34.2967C15.2448 34.3127 15.269 34.3296 15.2637 34.3475L13.6599 39.7421C13.636 39.8226 13.5838 39.8509 13.5032 39.827L11.8447 39.3631C11.8178 39.3552 11.8079 39.323 11.8149 39.2667C11.8282 39.2219 11.8483 39.2035 11.8751 39.2115C12.3573 39.3256 12.7666 39.2916 13.1032 39.1092C13.4487 38.9296 13.6853 38.625 13.813 38.1956L14.0563 37.377C14.1494 37.0639 14.1917 36.8233 14.1833 36.6553C14.1837 36.4899 14.1351 36.3586 14.0375 36.2614C13.9371 36.1731 13.7617 36.0918 13.5112 36.0173L7.41872 34.2061C7.17717 34.1343 6.98579 34.1066 6.84459 34.123C6.70966 34.1511 6.59856 34.23 6.51128 34.3599C6.42399 34.4897 6.33513 34.7067 6.2447 35.0109L5.92555 36.0845C5.79788 36.5139 5.84359 36.917 6.06265 37.2937C6.28172 37.6704 6.64502 37.9877 7.15254 38.2457C7.17044 38.251 7.17406 38.2716 7.16342 38.3074C7.15545 38.3342 7.13985 38.3539 7.11664 38.3665C7.09971 38.3907 7.08678 38.4014 7.07783 38.3988C6.53815 38.1507 5.95965 37.9349 5.34236 37.7514C5.27078 37.7301 5.22243 37.6963 5.19728 37.6498C5.17842 37.615 5.18096 37.5574 5.20489 37.4768L6.87648 31.854ZM8.55506 37.6549C8.9487 37.7719 9.25976 37.7573 9.48826 37.611C9.71409 37.4737 9.8935 37.1813 10.0265 36.734L10.6249 34.7211L10.9067 34.8049L10.2963 36.858C10.1687 37.2875 10.1498 37.6129 10.2398 37.8344C10.327 38.0648 10.5407 38.2306 10.8806 38.3316C10.8985 38.337 10.8995 38.3665 10.8835 38.4201C10.8676 38.4738 10.8506 38.498 10.8328 38.4927L9.74976 38.1561C9.49032 38.079 9.29217 38.0249 9.15531 37.994L8.50718 37.8159C8.48929 37.8106 8.48832 37.7811 8.50428 37.7274C8.52024 37.6737 8.53717 37.6496 8.55506 37.6549ZM7.03806 43.6301C7.02941 43.6111 7.06273 43.5936 7.13802 43.5777C7.21297 43.571 7.29242 43.5692 7.37637 43.5723C7.55359 43.5787 7.64635 43.596 7.65467 43.6244L8.03615 46.6361C8.0448 46.6551 8.01631 46.6681 7.95069 46.675C7.88472 46.6913 7.81443 46.6981 7.73981 46.6954C7.66519 46.6927 7.59558 46.6809 7.53096 46.6599C7.46601 46.6482 7.4292 46.6328 7.42055 46.6139L7.03806 43.6301ZM13.2345 52.4128C13.109 51.8479 12.8681 51.4521 12.5117 51.2253C12.1574 51.0076 11.6153 50.9129 10.8854 50.9413C10.8672 50.9453 10.852 50.92 10.8399 50.8653C10.8298 50.8198 10.8338 50.795 10.852 50.7909C11.1881 50.7545 11.6255 50.7004 12.164 50.6285C12.7026 50.5567 13.104 50.4914 13.3682 50.4327C13.4138 50.4226 13.4416 50.4403 13.4517 50.4858C13.4639 50.5405 13.4472 50.5729 13.4016 50.583C13.2012 50.6276 13.1556 50.8958 13.2649 51.3878C13.4117 52.1775 13.6014 53.0962 13.8342 54.144C13.9536 54.6815 14.0893 55.2489 14.2411 55.8462L14.4612 56.7725C14.5341 57.1005 14.6105 57.3369 14.6905 57.4817C14.7724 57.6356 14.8868 57.7201 15.0336 57.7353C15.0721 57.7363 15.0964 57.7596 15.1065 57.8052C15.1166 57.8507 15.1035 57.8776 15.067 57.8856C14.7967 57.917 14.3898 57.9787 13.8461 58.0708C13.3025 58.1629 12.8621 58.2464 12.525 58.3213C12.5068 58.3254 12.4916 58.3001 12.4795 58.2454C12.4673 58.1907 12.4704 58.1614 12.4886 58.1573C13.1932 57.9721 13.6573 57.716 13.8811 57.389C14.114 57.06 14.1626 56.5903 14.027 55.9799C13.9359 55.5699 13.8529 55.2823 13.778 55.1173C13.7031 54.9523 13.5993 54.8511 13.4667 54.8136C13.3341 54.7761 13.1265 54.7888 12.8441 54.8515L6.5437 56.2513C6.26126 56.314 6.06334 56.3914 5.94995 56.4835C5.83656 56.5757 5.77733 56.7179 5.77226 56.9102C5.76719 57.1026 5.80817 57.3946 5.89521 57.7864C5.90128 57.8138 5.87699 57.8335 5.82232 57.8456C5.76765 57.8578 5.73728 57.8502 5.73121 57.8229C5.66441 57.5222 5.61533 57.2797 5.58396 57.0955L5.36079 56.0264L5.11941 55.0045C5.06981 54.8243 5.00959 54.5747 4.93875 54.2558C4.9347 54.2376 4.96001 54.2224 5.01468 54.2103C5.06934 54.1981 5.0987 54.2012 5.10275 54.2194C5.18979 54.6112 5.27633 54.8931 5.36237 55.0652C5.44841 55.2373 5.56229 55.3411 5.70401 55.3765C5.85688 55.4191 6.06997 55.41 6.34331 55.3492L12.671 53.9435C12.9535 53.8807 13.1423 53.8053 13.2375 53.7172C13.3417 53.6271 13.3883 53.4925 13.3772 53.3133C13.3752 53.1321 13.3276 52.8319 13.2345 52.4128ZM12.2951 61.1695L13.5814 63.7508L13.3619 63.9696L11.9383 61.1127L12.2951 61.1695ZM10.9757 69.1943C10.9923 69.2278 10.9756 69.2569 10.9255 69.2819C10.8754 69.3069 10.842 69.3027 10.8253 69.2693C10.7462 69.1105 10.6318 68.86 10.482 68.5175C10.3322 68.175 10.2198 67.9286 10.1449 67.7782C10.0533 67.5945 9.9284 67.3647 9.77016 67.089C9.62024 66.83 9.5099 66.6295 9.43914 66.4875C9.42249 66.4541 9.43922 66.4249 9.48934 66.3999C9.53947 66.375 9.57285 66.3792 9.5895 66.4126C9.74769 66.73 9.88932 66.941 10.0144 67.0455C10.1436 67.1584 10.2834 67.1774 10.4338 67.1024C10.5591 67.04 10.7096 66.9025 10.8852 66.6898L15.3757 60.9796L15.9203 61.0993L8.95747 61.5344C8.61517 61.559 8.35213 61.6171 8.16835 61.7087C7.67548 61.9543 7.63303 62.4864 8.04097 63.305C8.06179 63.3468 8.04713 63.3802 7.99701 63.4052C7.94689 63.4301 7.91142 63.4217 7.89061 63.38C7.81568 63.2296 7.7158 63.0082 7.59098 62.7159C7.4495 62.3901 7.32048 62.1103 7.20393 61.8764C7.0957 61.6592 6.96246 61.4128 6.80422 61.1371C6.66263 60.8948 6.55021 60.6901 6.46696 60.523C6.44614 60.4813 6.4608 60.4479 6.51092 60.4229C6.56104 60.3979 6.59651 60.4063 6.61732 60.4481C6.73388 60.682 6.87347 60.8575 7.0361 60.9746C7.21124 61.0959 7.44279 61.1734 7.73075 61.2072C8.03123 61.2452 8.43402 61.2478 8.93912 61.2151L16.4968 60.7494C16.5302 60.7537 16.5573 60.7767 16.5781 60.8184C16.5989 60.8602 16.5988 60.8915 16.5779 60.9123L11.8239 66.9728C11.3473 67.5649 11.0503 68.0153 10.933 68.324C10.8241 68.6286 10.8383 68.9187 10.9757 69.1943ZM14.1113 71.5629C13.8832 71.7557 13.7398 71.9258 13.6811 72.0732C13.6355 72.2217 13.6636 72.3995 13.7654 72.6068C13.8733 72.8211 14.0869 73.1172 14.4062 73.495C14.4242 73.5164 14.4119 73.5452 14.3691 73.5813C14.3264 73.6175 14.2959 73.6248 14.2779 73.6034C14.0309 73.3112 13.8416 73.0801 13.7102 72.9101L12.9347 71.9708L12.3185 71.2634C12.1969 71.134 12.0397 70.9552 11.8469 70.7271C11.8349 70.7129 11.8502 70.6877 11.893 70.6515C11.9358 70.6154 11.9632 70.6044 11.9752 70.6187C12.2042 70.8896 12.3877 71.0705 12.5257 71.1616C12.6698 71.2598 12.8098 71.2881 12.9458 71.2465C13.0889 71.1989 13.2673 71.0847 13.4812 70.904L18.4319 66.7199C18.6458 66.5392 18.7845 66.3852 18.8482 66.2581C18.9118 66.131 18.9072 65.9882 18.8344 65.8298C18.7748 65.6725 18.6305 65.4584 18.4016 65.1875C18.3895 65.1732 18.4049 65.148 18.4476 65.1119C18.4904 65.0757 18.5178 65.0648 18.5299 65.079L18.971 65.6227C19.2098 65.9341 19.4045 66.179 19.5551 66.3572C19.7057 66.5354 19.8851 66.726 20.0933 66.9289C20.1656 67.0144 20.2836 67.1468 20.4474 67.3262C20.6182 67.4994 20.7609 67.6538 20.8754 67.7893C21.4297 68.4451 21.7263 69.0925 21.7654 69.7316C21.8105 70.3778 21.5337 70.9539 20.9349 71.46C20.4644 71.8576 19.9694 72.0744 19.4498 72.1102C18.9362 72.1532 18.4474 72.0592 17.9833 71.8282C17.5192 71.5972 17.1245 71.2892 16.7992 70.9043C16.6245 70.6976 16.4977 70.5114 16.4189 70.3459C16.4008 70.3245 16.4096 70.2987 16.4452 70.2686C16.4666 70.2505 16.491 70.236 16.5184 70.2251C16.5519 70.2213 16.5711 70.2295 16.576 70.2498C16.6439 70.3879 16.738 70.5283 16.8585 70.6709C17.2562 71.1413 17.7438 71.4074 18.3214 71.4692C18.9051 71.538 19.4856 71.3284 20.063 70.8404C20.6262 70.3645 20.9386 69.8377 21.0003 69.2601C21.0692 68.6764 20.9018 68.1458 20.4981 67.6682C20.2812 67.4116 20.1103 67.2383 19.9854 67.1483C19.8605 67.0584 19.7235 67.0336 19.5744 67.0741C19.4324 67.1085 19.2403 67.2282 18.9979 67.433L14.1113 71.5629ZM26.7774 73.4832C26.2852 73.179 25.8335 73.0754 25.4224 73.1725C25.0193 73.2744 24.5732 73.5967 24.0842 74.1393C24.0744 74.1552 24.0457 74.1484 23.9981 74.119C23.9584 74.0944 23.9434 74.0742 23.9532 74.0584C24.1616 73.7922 24.428 73.4411 24.7523 73.0052C25.0766 72.5692 25.3099 72.2361 25.4522 72.0059C25.4767 71.9662 25.5088 71.9586 25.5485 71.9831C25.5962 72.0126 25.6077 72.0471 25.5832 72.0868C25.4752 72.2615 25.6356 72.4813 26.0644 72.7463C26.7324 73.1921 27.523 73.6972 28.436 74.2615C28.9044 74.551 29.4055 74.8497 29.9393 75.1577L30.7565 75.6463C31.0423 75.8229 31.265 75.9331 31.4245 75.9768C31.5919 76.0255 31.7323 76.0025 31.8456 75.908C31.8732 75.8811 31.9068 75.8799 31.9465 75.9045C31.9862 75.929 31.9962 75.9572 31.9766 75.9889C31.8105 76.2044 31.5708 76.5391 31.2574 76.9928C30.9441 77.4465 30.6967 77.8202 30.5151 78.1139C30.5053 78.1298 30.4766 78.123 30.4289 78.0936C30.3813 78.0642 30.3624 78.0415 30.3722 78.0256C30.7311 77.3916 30.8715 76.8804 30.7934 76.492C30.7202 76.0956 30.4176 75.7331 29.8857 75.4043C29.5284 75.1835 29.2645 75.0424 29.094 74.9809C28.9236 74.9194 28.7786 74.9231 28.6593 74.992C28.5399 75.0608 28.4042 75.2183 28.2521 75.4644L24.8589 80.9545C24.7068 81.2006 24.6242 81.3964 24.6111 81.5419C24.5979 81.6874 24.6585 81.8291 24.7928 81.9669C24.927 82.1048 25.1648 82.2792 25.5062 82.4902C25.53 82.5049 25.5272 82.5361 25.4978 82.5837C25.4683 82.6313 25.4417 82.6478 25.4179 82.6331C25.1559 82.4712 24.948 82.3371 24.7941 82.2311L23.8725 81.6451L22.972 81.1049C22.8083 81.0147 22.5875 80.8838 22.3096 80.712C22.2938 80.7022 22.3005 80.6735 22.33 80.6258C22.3594 80.5782 22.3821 80.5593 22.398 80.5691C22.7394 80.7801 23.0017 80.9148 23.185 80.9733C23.3684 81.0317 23.5222 81.0225 23.6464 80.9457C23.7835 80.8659 23.9257 80.7069 24.0729 80.4687L27.4808 74.9548C27.6329 74.7087 27.7106 74.5208 27.7139 74.3912C27.7221 74.2537 27.6582 74.1264 27.522 74.0093C27.3908 73.8843 27.1426 73.709 26.7774 73.4832ZM33.5103 86.0402C32.6773 85.7964 31.9902 85.3862 31.449 84.8096C30.9194 84.2267 30.5725 83.5514 30.4082 82.7837C30.2555 82.0096 30.2945 81.2285 30.5252 80.4402C30.7952 79.5176 31.2588 78.7975 31.916 78.2799C32.5758 77.7534 33.317 77.4306 34.1395 77.3115C34.9711 77.195 35.7675 77.2482 36.5289 77.4711C37.3799 77.7202 38.0688 78.1406 38.5958 78.7325C39.1254 79.3154 39.4647 79.9836 39.6137 80.7371C39.7717 81.4932 39.7431 82.2386 39.5282 82.9731C39.2896 83.7882 38.8557 84.4733 38.2265 85.0282C37.5973 85.5831 36.8622 85.9515 36.0213 86.1333C35.1893 86.3177 34.3523 86.2866 33.5103 86.0402ZM34.0632 85.8957C34.6723 86.0739 35.262 86.0861 35.8322 85.932C36.4114 85.7806 36.9224 85.4634 37.3652 84.9804C37.8197 84.491 38.1636 83.8477 38.3969 83.0504C38.6433 82.2084 38.7055 81.4146 38.5834 80.6689C38.4612 79.9233 38.1673 79.2829 37.7015 78.7479C37.2446 78.2154 36.6355 77.8378 35.8741 77.615C34.8888 77.3266 34.0254 77.4191 33.2839 77.8925C32.5424 78.366 32.0091 79.1581 31.684 80.2688C31.4375 81.1108 31.3688 81.927 31.4778 82.7175C31.5895 83.499 31.8685 84.1739 32.3148 84.7421C32.7638 85.3014 33.3466 85.6859 34.0632 85.8957ZM46.4236 86.6284C46.4389 86.8986 46.478 87.0927 46.5408 87.2107C46.6035 87.3287 46.7108 87.4067 46.8625 87.4449C47.0137 87.4737 47.2571 87.4786 47.5925 87.4596L49.1161 87.3733C49.6472 87.3432 50.062 87.1561 50.3603 86.812C50.6587 86.468 50.8427 86.0041 50.9125 85.4206C50.9109 85.3926 50.9337 85.382 50.9808 85.3887C51.0367 85.3855 51.0655 85.3979 51.0671 85.4259C51.027 86.204 51.0212 86.8447 51.0497 87.3479C51.054 87.4225 51.0431 87.4792 51.0173 87.518C50.9909 87.5476 50.9358 87.5647 50.8519 87.5695L44.3943 87.9352C44.3757 87.9363 44.3648 87.9089 44.3616 87.8529C44.3584 87.797 44.3662 87.7686 44.3848 87.7675C44.7389 87.7474 44.9938 87.7096 45.1496 87.6541C45.3147 87.598 45.4215 87.5031 45.47 87.3695C45.518 87.2265 45.5341 87.0153 45.5183 86.7357L45.1517 80.2641C45.1359 79.9846 45.0963 79.7811 45.033 79.6539C44.9697 79.5266 44.8529 79.4444 44.6825 79.4073C44.5209 79.3603 44.2631 79.3469 43.909 79.367C43.8903 79.368 43.8794 79.3406 43.8763 79.2847C43.8731 79.2288 43.8808 79.2003 43.8995 79.1992L44.5852 79.1744C44.9776 79.1709 45.295 79.1623 45.5372 79.1485C45.7982 79.1338 46.1238 79.106 46.5141 79.0652L47.1842 79.0132C47.2122 79.0116 47.2277 79.0388 47.2309 79.0947C47.2341 79.1506 47.2217 79.1793 47.1937 79.1809C46.8489 79.2004 46.5943 79.2429 46.4297 79.3083C46.2646 79.3644 46.1581 79.4639 46.1101 79.6069C46.0616 79.7405 46.0452 79.9471 46.061 80.2266L46.4236 86.6284ZM57.4927 85.9515C56.6652 86.2134 55.8661 86.2557 55.0954 86.0786C54.3308 85.8897 53.6664 85.5223 53.1021 84.9764C52.544 84.4188 52.141 83.7485 51.8933 82.9654C51.6033 82.0488 51.5869 81.1926 51.8442 80.3966C52.0986 79.5917 52.5341 78.9106 53.1507 78.3533C53.7763 77.7932 54.4672 77.3935 55.2236 77.1543C56.069 76.8868 56.8754 76.852 57.6427 77.0497C58.4073 77.2386 59.0614 77.6043 59.6051 78.1469C60.1576 78.6868 60.5493 79.3215 60.7802 80.0512C61.0363 80.861 61.0578 81.6716 60.8447 82.483C60.6315 83.2944 60.2264 84.0099 59.6295 84.6295C59.0415 85.2462 58.3292 85.6869 57.4927 85.9515ZM57.8712 85.5234C58.4764 85.332 58.9727 85.0135 59.3603 84.5678C59.7569 84.1193 60.0044 83.5711 60.1029 82.9232C60.2075 82.2636 60.1345 81.5378 59.884 80.7459C59.6193 79.9094 59.2285 79.2156 58.7116 78.6645C58.1946 78.1135 57.5937 77.7456 56.9087 77.5609C56.2327 77.3734 55.5165 77.3993 54.7601 77.6386C53.7813 77.9483 53.1159 78.5063 52.7641 79.3126C52.4122 80.119 52.4108 81.0739 52.7599 82.1773C53.0245 83.0138 53.4224 83.7298 53.9534 84.3254C54.4816 84.912 55.0894 85.3169 55.7767 85.54C56.4612 85.7542 57.1594 85.7487 57.8712 85.5234ZM63.9031 72.921C64.2769 72.6741 64.6778 72.4596 65.1056 72.2776C65.5335 72.0956 65.9041 71.9961 66.2174 71.9793C66.3081 71.9642 66.3741 71.9709 66.4153 71.9996C66.4593 72.0153 66.5135 72.0634 66.5778 72.1439L67.5707 73.3673C67.5861 73.3906 67.5769 73.4191 67.5431 73.4526C67.5042 73.4783 67.4731 73.4821 67.4499 73.4639C66.8824 72.9774 66.2724 72.7484 65.62 72.7767C64.9702 72.7921 64.3026 73.0262 63.6174 73.479C63.0255 73.87 62.5951 74.3445 62.3262 74.9025C62.0521 75.4527 61.9512 76.0451 62.0237 76.6796C62.0961 77.3141 62.3381 77.9429 62.7497 78.5659C63.2282 79.2901 63.8186 79.862 64.5209 80.2817C65.2311 80.6963 65.9576 80.9155 66.7004 80.9393C67.451 80.9579 68.1223 80.7718 68.7141 80.3807C69.2748 80.0103 69.6612 79.5369 69.8732 78.9605C70.0802 78.3764 70.0817 77.693 69.8779 76.9104C69.8625 76.887 69.8703 76.865 69.9015 76.8445C69.9248 76.829 69.9469 76.8201 69.9676 76.8175C69.9961 76.8099 70.0155 76.8139 70.0258 76.8294L70.7343 78.2574C70.7805 78.3612 70.8021 78.4363 70.7994 78.4829C70.7992 78.5166 70.7744 78.5721 70.7249 78.6496C70.2195 79.4085 69.5775 80.0452 68.7988 80.5597C67.8643 81.1771 66.9582 81.5073 66.0805 81.5502C65.2054 81.5802 64.427 81.4009 63.7452 81.0124C63.0634 80.6238 62.509 80.1064 62.082 79.46C61.6087 78.7436 61.3828 77.97 61.4044 77.1391C61.426 76.3083 61.6609 75.521 62.1093 74.7773C62.5576 74.0337 63.1556 73.4149 63.9031 72.921ZM71.1996 71.9449L73.1408 69.8119L73.4242 69.9374L71.2757 72.2981L71.1996 71.9449ZM79.1583 70.272C79.1834 70.2443 79.2167 70.2494 79.2581 70.2871C79.2995 70.3248 79.3076 70.3574 79.2825 70.385C79.1632 70.5162 78.9709 70.7135 78.7059 70.9771C78.4408 71.2406 78.2517 71.4345 78.1386 71.5588C78.0004 71.7106 77.8314 71.9102 77.6316 72.1574C77.4444 72.3909 77.2974 72.5663 77.1906 72.6836C77.1655 72.7112 77.1322 72.7062 77.0908 72.6685C77.0494 72.6308 77.0412 72.5982 77.0664 72.5706C77.3051 72.3083 77.4505 72.0999 77.5027 71.9455C77.5612 71.7842 77.5283 71.647 77.4041 71.5339C77.3005 71.4396 77.1179 71.3491 76.8561 71.2624L69.9082 69.1416L69.8228 68.5906L72.7472 74.9244C72.8939 75.2347 73.0432 75.4589 73.1951 75.5971C73.6024 75.9677 74.1138 75.8148 74.7294 75.1384C74.7609 75.1038 74.7973 75.1054 74.8387 75.1431C74.8801 75.1808 74.8851 75.2169 74.8537 75.2514C74.7406 75.3757 74.5704 75.5489 74.343 75.771C74.0905 76.0207 73.8763 76.2422 73.7004 76.4355C73.537 76.615 73.3555 76.8284 73.1557 77.0756C72.981 77.2953 72.8309 77.4741 72.7052 77.6122C72.6738 77.6467 72.6374 77.6451 72.596 77.6074C72.5546 77.5697 72.5496 77.5336 72.581 77.4991C72.7569 77.3058 72.87 77.1122 72.9203 76.9182C72.97 76.7111 72.9586 76.4671 72.8859 76.1865C72.8126 75.8926 72.6693 75.5161 72.4561 75.0571L69.2881 68.1797C69.2799 68.147 69.2916 68.1135 69.323 68.079C69.3544 68.0444 69.3836 68.0332 69.4106 68.0451L76.7804 70.2848C77.5048 70.515 78.0321 70.6289 78.3623 70.6266C78.6856 70.6179 78.951 70.4997 79.1583 70.272ZM73.1155 63.7744C72.8405 64.2836 72.7634 64.7405 72.8843 65.1452C73.0096 65.5418 73.3573 65.9683 73.9276 66.4248C73.944 66.4336 73.9389 66.4627 73.9123 66.512C73.8901 66.553 73.8708 66.5691 73.8544 66.5603C73.5765 66.3677 73.2105 66.1223 72.7564 65.824C72.3022 65.5257 71.9561 65.3122 71.718 65.1836C71.6769 65.1614 71.6675 65.1298 71.6896 65.0887C71.7162 65.0394 71.7501 65.0259 71.7911 65.0481C71.9718 65.1457 72.1819 64.9727 72.4214 64.5293C72.8275 63.8363 73.2856 63.0177 73.7957 62.0733C74.0574 61.5888 74.3264 61.0711 74.6027 60.5202L75.0428 59.676C75.2025 59.3803 75.2995 59.1516 75.3338 58.9898C75.3726 58.8198 75.3415 58.681 75.2405 58.5735C75.2121 58.5475 75.2089 58.514 75.2311 58.4729C75.2533 58.4319 75.2808 58.4202 75.3137 58.438C75.5385 58.5912 75.8865 58.811 76.3577 59.0973C76.8289 59.3837 77.2165 59.6089 77.5203 59.773C77.5367 59.7819 77.5316 59.811 77.505 59.8602C77.4784 59.9095 77.4569 59.9297 77.4405 59.9208C76.7866 59.5995 76.2681 59.4892 75.8849 59.5898C75.4935 59.686 75.1492 60.0092 74.852 60.5594C74.6524 60.929 74.5269 61.2006 74.4755 61.3744C74.424 61.5482 74.4362 61.6926 74.5119 61.8078C74.5876 61.9229 74.7527 62.0492 75.0073 62.1867L80.6859 65.2539C80.9405 65.3914 81.1408 65.4624 81.2868 65.467C81.4328 65.4717 81.5707 65.4029 81.7005 65.2609C81.8303 65.1188 81.9905 64.8712 82.1813 64.5181C82.1946 64.4935 82.2259 64.4945 82.2751 64.5211C82.3244 64.5477 82.3424 64.5733 82.3291 64.5979C82.1827 64.8689 82.0611 65.0843 81.9641 65.2441L81.4329 66.1983L80.9462 67.1288C80.8657 67.2975 80.7478 67.5255 80.5926 67.813C80.5837 67.8294 80.5546 67.8243 80.5054 67.7977C80.4561 67.7711 80.4359 67.7495 80.4448 67.7331C80.6355 67.38 80.7547 67.1102 80.8023 66.9238C80.85 66.7374 80.8318 66.5844 80.7479 66.4648C80.6602 66.3326 80.4932 66.1999 80.2468 66.0669L74.5436 62.9864C74.289 62.8489 74.0969 62.7823 73.9673 62.7866C73.8295 62.7864 73.7062 62.8577 73.5972 63.0004C73.4801 63.1387 73.3195 63.3967 73.1155 63.7744ZM84.142 60.7213C84.1371 60.7393 84.1076 60.7409 84.0536 60.726C83.9996 60.7112 83.9751 60.6947 83.9801 60.6767C84.0742 60.3348 84.1198 60.0811 84.1169 59.9158C84.1165 59.7414 84.0607 59.6099 83.9496 59.5212C83.832 59.4211 83.6382 59.3339 83.3682 59.2596L77.1186 57.5393C76.8487 57.465 76.642 57.442 76.4987 57.4703C76.3579 57.4897 76.2427 57.5741 76.1531 57.7237C76.057 57.8618 75.9619 58.1019 75.8678 58.4438C75.8628 58.4618 75.8333 58.4634 75.7793 58.4485C75.7253 58.4336 75.7008 58.4172 75.7058 58.3992L77.1994 52.973C77.2217 52.892 77.2733 52.8627 77.3543 52.885L79.022 53.315C79.049 53.3224 79.0595 53.3544 79.0537 53.4108C79.0413 53.4558 79.0216 53.4746 78.9946 53.4672C78.5102 53.3629 78.1017 53.4053 77.7689 53.5944C77.4271 53.7811 77.1967 54.0904 77.0778 54.5223L76.8512 55.3457C76.7645 55.6607 76.7271 55.9021 76.739 56.0699C76.7419 56.2353 76.7931 56.3655 76.8928 56.4607C76.9949 56.5469 77.172 56.6247 77.4239 56.694L83.552 58.3808C83.795 58.4477 83.9869 58.4715 84.1277 58.4522C84.262 58.4214 84.3715 58.3402 84.4561 58.2086C84.5408 58.077 84.6252 57.8582 84.7094 57.5523L85.0066 56.4724C85.1255 56.0405 85.0716 55.6384 84.8449 55.2663C84.6182 54.8941 84.2485 54.5842 83.7359 54.3366C83.7179 54.3316 83.7138 54.3112 83.7237 54.2752C83.7312 54.2482 83.7464 54.2282 83.7693 54.2151C83.7857 54.1906 83.7984 54.1796 83.8074 54.1821C84.3521 54.4191 84.9348 54.6231 85.5557 54.794C85.6277 54.8138 85.6768 54.8466 85.7029 54.8925C85.7224 54.927 85.7211 54.9847 85.6988 55.0657L84.142 60.7213ZM82.3457 54.9559C81.9497 54.8469 81.639 54.8678 81.4136 55.0188C81.1906 55.1607 81.0172 55.4566 80.8933 55.9065L80.336 57.9312L80.0525 57.8532L80.621 55.788C80.7399 55.3561 80.7521 55.0303 80.6577 54.8107C80.5657 54.5821 80.3488 54.4207 80.0068 54.3266C79.9888 54.3217 79.9872 54.2922 80.0021 54.2382C80.017 54.1842 80.0334 54.1597 80.0514 54.1646L81.141 54.4791C81.402 54.5509 81.6012 54.6009 81.7386 54.6291L82.3903 54.7939C82.4083 54.7988 82.4098 54.8283 82.395 54.8823C82.3801 54.9363 82.3637 54.9608 82.3457 54.9559ZM83.7326 48.9554C83.7416 48.9743 83.7086 48.9923 83.6335 49.0096C83.5587 49.0175 83.4793 49.0206 83.3953 49.0191C83.218 49.0157 83.125 48.9999 83.1162 48.9717L82.6831 45.967C82.6742 45.9481 82.7024 45.9347 82.7679 45.9266C82.8336 45.9092 82.9038 45.9012 82.9784 45.9026C83.0531 45.904 83.1229 45.9147 83.1879 45.9346C83.253 45.9451 83.2901 45.9598 83.299 45.9787L83.7326 48.9554Z" fill="white"/>
</svg>
