<svg width="109" height="109" viewBox="0 0 109 109" fill="none" xmlns="http://www.w3.org/2000/svg">
<circle cx="54.5" cy="54.5" r="54.5" fill="white"/>
<path d="M100.814 51.0392C100.817 51.0604 100.787 51.0754 100.723 51.0843C100.66 51.0932 100.627 51.087 100.624 51.0659C100.566 50.6539 100.498 50.3566 100.418 50.1739C100.337 49.9806 100.218 49.8626 100.061 49.82C99.8926 49.7682 99.6498 49.7646 99.3329 49.8091L91.9967 50.838C91.6798 50.8825 91.4526 50.952 91.315 51.0467C91.176 51.1308 91.0942 51.2769 91.0695 51.485C91.0328 51.6841 91.0434 51.9896 91.1012 52.4015C91.1041 52.4227 91.0739 52.4377 91.0105 52.4466C90.9471 52.4555 90.914 52.4493 90.911 52.4282L90.031 46.1536C90.0176 46.0586 90.0585 46.0044 90.1536 45.991L92.0664 45.6904C92.098 45.686 92.1183 45.7154 92.1272 45.7788C92.1346 45.8316 92.1225 45.8603 92.0908 45.8647C91.5521 45.9403 91.1443 46.1429 90.8674 46.4725C90.5905 46.8022 90.4846 47.1994 90.5498 47.6642L90.7031 48.7575C90.7594 49.1589 90.8273 49.451 90.9068 49.6337C90.9863 49.8164 91.1052 49.9344 91.2634 49.9876C91.4202 50.0302 91.657 50.0293 91.9739 49.9849L99.1517 48.9782C99.458 48.9352 99.6807 48.8717 99.8197 48.7875C99.9466 48.6943 100.024 48.5542 100.052 48.3673C100.078 48.1697 100.062 47.865 100.004 47.453L99.7997 45.9953C99.7404 45.5727 99.5052 45.2395 99.094 44.9956C98.6813 44.7411 98.168 44.6138 97.554 44.6138C97.5223 44.6182 97.5073 44.588 97.509 44.5231C97.5001 44.4598 97.5115 44.4259 97.5432 44.4214C98.222 44.4231 98.9153 44.3744 99.623 44.2751C99.7075 44.2633 99.7739 44.2755 99.822 44.3118C99.8582 44.3391 99.8829 44.4002 99.8963 44.4953L100.814 51.0392ZM96.2971 45.9049C95.8218 45.9715 95.5031 46.1186 95.3411 46.3459C95.1792 46.5733 95.1337 46.9405 95.2048 47.4475L95.5471 49.8877L95.246 49.9299L94.8971 47.4422C94.829 46.9563 94.7023 46.6294 94.5172 46.4615C94.3215 46.2951 94.023 46.24 93.6216 46.2963C93.6005 46.2992 93.5854 46.269 93.5766 46.2057C93.5677 46.1423 93.5738 46.1091 93.5949 46.1061L94.8489 45.9464C95.1552 45.9035 95.3816 45.8663 95.528 45.835L96.2705 45.7147C96.2916 45.7118 96.3066 45.742 96.3155 45.8053C96.3244 45.8687 96.3183 45.9019 96.2971 45.9049ZM97.0147 35.8411C97.0224 35.861 96.9964 35.8825 96.9368 35.9057C96.8771 35.9288 96.8434 35.9304 96.8357 35.9106C96.7199 35.6122 96.6171 35.4061 96.5271 35.2923C96.4372 35.1785 96.3425 35.1408 96.2431 35.1794C96.1635 35.2103 96.0765 35.2956 95.9819 35.4352L90.5391 43.125C90.2516 43.5341 90.0785 43.8987 90.0197 44.219C89.961 44.5393 90.001 44.8785 90.1399 45.2365C90.1477 45.2563 90.1217 45.2779 90.062 45.301C90.0024 45.3242 89.9687 45.3258 89.9609 45.3059C89.9146 45.1866 89.8513 44.9938 89.7708 44.7275L89.5774 44.1847C89.4539 43.8665 89.2896 43.4726 89.0845 43.003L88.7686 42.2332C88.757 42.2033 88.781 42.1768 88.8407 42.1537C88.9004 42.1305 88.936 42.1339 88.9476 42.1637C89.0633 42.462 89.1712 42.6662 89.271 42.7762C89.361 42.89 89.4557 42.9276 89.5551 42.889C89.6247 42.862 89.7118 42.7768 89.8163 42.6332L95.2383 34.9343C95.5358 34.5214 95.7119 34.1498 95.7669 33.8196C95.808 33.4833 95.7437 33.0963 95.5739 32.6588C95.5661 32.6389 95.5921 32.6174 95.6518 32.5942C95.7115 32.5711 95.7451 32.5695 95.7529 32.5893C95.8532 32.8479 95.9273 33.0537 95.9753 33.2067L96.2671 34.0031L96.7161 35.116C96.7955 35.2911 96.8951 35.5328 97.0147 35.8411ZM99.301 41.7331C99.3126 41.7629 99.2885 41.7894 99.2289 41.8125C99.1692 41.8357 99.1336 41.8323 99.122 41.8025C98.9908 41.4644 98.764 41.1748 98.4417 40.9338C98.1094 40.6966 97.6933 40.5091 97.1936 40.3712L93.0422 39.2704L93.1277 39.0485L97.0721 40.0579C97.4376 40.1449 97.7099 40.1537 97.8889 40.0842C98.2171 39.9569 98.2634 39.5899 98.0281 38.9833C98.0165 38.9535 98.0405 38.927 98.1002 38.9038C98.1599 38.8807 98.1955 38.884 98.207 38.9139C98.3228 39.2122 98.4047 39.4379 98.4526 39.5909L98.8255 40.5961L99.0777 41.2019C99.1301 41.3074 99.2045 41.4844 99.301 41.7331ZM92.7168 39.1393L88.9323 38.188C88.4916 38.0844 88.1718 38.0711 87.973 38.1483C87.6349 38.2795 87.5777 38.6335 87.8015 39.2103C87.8131 39.2401 87.789 39.2666 87.7294 39.2897C87.6697 39.3129 87.6341 39.3095 87.6225 39.2797L87.377 38.6027C87.2502 38.2171 87.1309 37.8801 87.019 37.5917C86.9534 37.4227 86.8643 37.2227 86.7518 36.9917L86.5286 36.4605C86.517 36.4307 86.541 36.4042 86.6007 36.3811C86.6604 36.3579 86.696 36.3612 86.7075 36.3911C86.9699 37.0673 87.676 37.5599 88.8256 37.8689L92.7873 38.9231L92.7168 39.1393ZM92.2332 29.456C92.5141 29.2622 92.6932 29.0804 92.7704 28.9106C92.8389 28.7467 92.8237 28.5369 92.725 28.281C92.6202 28.0164 92.3983 27.6382 92.0591 27.1465C92.041 27.1202 92.0582 27.0888 92.1109 27.0525C92.1636 27.0162 92.199 27.0112 92.2172 27.0375C92.4655 27.3975 92.6549 27.6815 92.7854 27.8895L93.5625 29.0445L94.1753 29.9047C94.2931 30.0567 94.4488 30.2732 94.6426 30.5542C94.6548 30.5718 94.6345 30.5987 94.5818 30.6351C94.5291 30.6714 94.4967 30.6808 94.4846 30.6632C94.2484 30.3208 94.0539 30.0857 93.9009 29.9579C93.742 29.8213 93.5829 29.7691 93.4236 29.8012C93.2495 29.8306 93.0307 29.9361 92.7673 30.1178L86.669 34.3237C86.4056 34.5054 86.2336 34.6693 86.1531 34.8156C86.0665 34.953 86.0588 35.1203 86.1299 35.3175C86.1863 35.5118 86.3325 35.7803 86.5687 36.1227C86.5808 36.1403 86.5605 36.1672 86.5078 36.2036C86.4551 36.2399 86.4228 36.2493 86.4106 36.2317L85.9787 35.5773C85.7419 35.1963 85.5508 34.9005 85.4055 34.6898C85.2601 34.479 85.0804 34.2467 84.8664 33.9926C84.3676 33.3259 84.0971 32.9618 84.0547 32.9003C83.5218 32.1276 83.2688 31.3756 83.2957 30.6444C83.3139 29.9192 83.6873 29.3053 84.4161 28.8026C85.0045 28.3969 85.6005 28.1996 86.2043 28.2108C86.7992 28.228 87.3478 28.394 87.8498 28.7085C88.3458 29.0144 88.7573 29.4043 89.0843 29.8785C89.266 30.1419 89.3924 30.3722 89.4636 30.5693C89.4817 30.5957 89.4689 30.624 89.4249 30.6542C89.3986 30.6724 89.3692 30.6862 89.3368 30.6956C89.2984 30.6962 89.2775 30.6847 89.2742 30.6611C89.2124 30.4963 89.1209 30.3262 88.9998 30.1506C88.5698 29.5271 88.0177 29.1305 87.3434 28.9606C86.663 28.782 85.9628 28.941 85.2428 29.4376C84.7774 29.7585 84.4415 30.1263 84.235 30.5408C84.0197 30.9614 83.9363 31.3947 83.9847 31.8407C84.0183 32.284 84.1684 32.6988 84.4349 33.0852C84.6832 33.4452 84.8763 33.6877 85.0144 33.8128C85.1525 33.9378 85.3116 33.99 85.4918 33.9694C85.6571 33.9461 85.8978 33.8255 86.2139 33.6074L92.2332 29.456ZM86.3894 22.1415C86.6028 21.9177 86.7379 21.7296 86.7946 21.5773C86.8363 21.4255 86.8099 21.2676 86.7154 21.1039C86.6133 20.9328 86.4155 20.7074 86.1221 20.4278L84.6398 19.0146C83.8754 18.2859 82.9564 18.3456 81.8827 19.1936C81.8606 19.2168 81.834 19.2061 81.8027 19.1616C81.7564 19.1174 81.7443 19.0838 81.7664 19.0606C82.4173 18.5169 82.9305 18.0482 83.3058 17.6545C83.3647 17.5927 83.4205 17.5574 83.4731 17.5486C83.5183 17.5476 83.5757 17.5801 83.6451 17.6464L88.9723 22.7249C88.9877 22.7396 88.9733 22.7702 88.9292 22.8165C88.885 22.8628 88.8552 22.8786 88.8398 22.8639C88.5387 22.5768 88.3002 22.3864 88.1245 22.2925C87.941 22.1912 87.7746 22.1726 87.6252 22.2365C87.4608 22.3008 87.2681 22.4487 87.0473 22.6804L81.9357 28.0422C81.7149 28.2738 81.58 28.4694 81.531 28.6291C81.4742 28.7813 81.5008 28.9466 81.6107 29.1251C81.7055 29.3039 81.9035 29.5368 82.2046 29.8239C82.22 29.8386 82.2057 29.8691 82.1615 29.9154C82.1173 29.9618 82.0875 29.9776 82.0721 29.9628L81.5157 29.4103C81.2061 29.0857 80.9587 28.8351 80.7734 28.6585C80.565 28.4597 80.2913 28.2135 79.9523 27.9198L79.397 27.4125C79.3815 27.3978 79.3959 27.3673 79.44 27.321C79.4842 27.2746 79.514 27.2588 79.5294 27.2736C79.8305 27.5606 80.0765 27.7509 80.2674 27.8444C80.4431 27.9383 80.6132 27.9531 80.7777 27.8888C80.927 27.8249 81.1121 27.6771 81.3329 27.4455L86.3894 22.1415ZM77.13 13.3937C77.995 13.8793 78.6547 14.5128 79.1091 15.2939C79.5489 16.0792 79.7617 16.9204 79.7473 17.8175C79.7183 18.7187 79.4741 19.5786 79.0145 20.3971C78.4766 21.3551 77.7753 22.0378 76.9104 22.4452C76.0403 22.8619 75.132 23.0308 74.1854 22.9519C73.2295 22.8678 72.3562 22.6038 71.5657 22.1599C70.6821 21.6638 70.023 21.0185 69.5883 20.224C69.1484 19.4387 68.9424 18.6074 68.9702 17.73C68.9887 16.8474 69.212 16.0247 69.6402 15.262C70.1155 14.4157 70.7747 13.7644 71.6181 13.3082C72.4614 12.852 73.3746 12.6308 74.3578 12.6445C75.3316 12.6531 76.2557 12.9028 77.13 13.3937ZM76.4711 13.3907C75.8107 13.0199 75.1293 12.8392 74.4268 12.8484C73.7243 12.8577 73.0525 13.0738 72.4113 13.4967C71.7702 13.9196 71.2172 14.545 70.7525 15.3727C70.2616 16.247 69.9976 17.1203 69.9605 17.9924C69.9089 18.8687 70.0876 19.6724 70.4966 20.4037C70.8964 21.1297 71.5055 21.7225 72.324 22.182C73.4029 22.7878 74.4326 22.9256 75.4131 22.5954C76.3937 22.2651 77.2078 21.5234 77.8553 20.3701C78.341 19.5051 78.6201 18.6159 78.6926 17.7024C78.7506 16.793 78.5901 15.9567 78.2113 15.1935C77.8324 14.4303 77.2523 13.8294 76.4711 13.3907ZM61.3574 7.79423C61.6272 7.85852 62.032 8.43747 62.5719 9.53108C63.0989 10.6326 63.6987 12.1188 64.3713 13.9897L63.5649 14.0607C62.9708 12.5045 62.4566 11.28 62.0225 10.387C61.5883 9.49406 61.1774 8.82592 60.7896 8.38261C60.3914 7.93683 59.964 7.65954 59.5075 7.55074C59.4764 7.54332 59.4682 7.50848 59.4831 7.44622C59.4979 7.38397 59.5209 7.35655 59.552 7.36397L61.3574 7.79423ZM63.4327 18.6182C62.613 18.4228 62.0261 18.102 61.6719 17.6558C61.3177 17.2095 61.2135 16.6803 61.3594 16.0681C61.4806 15.5597 61.7448 15.1182 62.152 14.7437C62.5464 14.3772 63.03 14.1196 63.6027 13.971C64.1626 13.8303 64.733 13.8292 65.3141 13.9676C65.4905 14.0097 65.7111 14.0732 65.9759 14.1583L66.8624 10.4384C66.9391 10.1168 66.9636 9.8759 66.9359 9.71579C66.8979 9.55322 66.7917 9.42374 66.6173 9.32735C66.4429 9.23096 66.1482 9.13331 65.7331 9.03439C65.702 9.02698 65.6939 8.99214 65.7087 8.92988C65.7235 8.86763 65.7465 8.84021 65.7777 8.84763C66.0889 8.92181 66.3367 8.98634 66.521 9.04123L67.5757 9.30901L68.6066 9.53825C68.7959 9.57239 69.0565 9.62902 69.3885 9.70815C69.4093 9.71309 69.4122 9.74669 69.3974 9.80895C69.3826 9.87121 69.3648 9.89986 69.344 9.89492C68.929 9.79601 68.6219 9.75024 68.4228 9.75761C68.2132 9.76251 68.0549 9.82893 67.9476 9.95689C67.8379 10.0952 67.7459 10.32 67.6718 10.6313L65.9544 17.8375C65.8802 18.1488 65.8622 18.3857 65.9002 18.5483C65.9278 18.7084 66.034 18.8379 66.2188 18.9367C66.3907 19.0435 66.679 19.1451 67.0837 19.2415C67.1148 19.249 67.123 19.2838 67.1081 19.3461C67.0933 19.4083 67.0703 19.4357 67.0392 19.4283L66.2958 19.2347C65.8857 19.115 65.5458 19.0231 65.276 18.9588C65.0892 18.9143 64.9116 18.8774 64.7431 18.8482C64.5746 18.819 64.4269 18.7948 64.2999 18.7755C63.9604 18.7275 63.6714 18.6751 63.4327 18.6182ZM62.3571 15.7466C62.1692 16.5352 62.2187 17.1556 62.5057 17.6078C62.7823 18.0575 63.2267 18.3553 63.8389 18.5012C64.1295 18.5704 64.3471 18.6003 64.4919 18.591C64.6367 18.5816 64.7639 18.5078 64.8737 18.3695C64.973 18.2286 65.066 17.9767 65.1525 17.6135L65.8869 14.5318C65.5025 14.3963 65.1962 14.3014 64.9679 14.247C64.2104 14.0665 63.6286 14.0923 63.2224 14.3245C62.8137 14.567 62.5253 15.041 62.3571 15.7466ZM57.7128 7.22991C57.7342 7.22995 57.7448 7.26197 57.7447 7.32597C57.7445 7.38997 57.7338 7.42195 57.7125 7.42191C57.2965 7.42113 56.9924 7.44723 56.8003 7.5002C56.5976 7.55315 56.464 7.65424 56.3998 7.80345C56.3248 7.96331 56.287 8.20324 56.2864 8.52324L56.2725 15.9312C56.2719 16.2512 56.3088 16.486 56.3832 16.6354C56.4469 16.7849 56.58 16.8865 56.7826 16.9402C56.9745 17.0045 57.2784 17.0371 57.6944 17.0379C57.7158 17.0379 57.7264 17.07 57.7263 17.134C57.7261 17.198 57.7154 17.2299 57.6941 17.2299L51.3581 17.218C51.2621 17.2178 51.2142 17.1697 51.2144 17.0737L51.186 15.1377C51.186 15.1057 51.2181 15.0897 51.2821 15.0899C51.3354 15.09 51.362 15.106 51.362 15.138C51.361 15.682 51.5042 16.1143 51.7916 16.4348C52.079 16.7554 52.4573 16.9161 52.9267 16.9169L54.0307 16.919C54.436 16.9198 54.7347 16.8937 54.9268 16.8407C55.1189 16.7877 55.2524 16.6866 55.3274 16.5375C55.3916 16.3882 55.4241 16.1536 55.4247 15.8336L55.4383 8.58565C55.4389 8.27631 55.4073 8.04692 55.3436 7.89747C55.2692 7.75866 55.1414 7.66242 54.9601 7.60875C54.7682 7.55505 54.4643 7.52782 54.0483 7.52704L52.5763 7.52427C52.1496 7.52347 51.7866 7.70946 51.4872 8.08223C51.1772 8.45498 50.9789 8.94528 50.8925 9.55312C50.8924 9.58512 50.8604 9.59572 50.7964 9.58494C50.7324 9.58482 50.7004 9.56876 50.7005 9.53676C50.7978 8.86494 50.8471 8.1717 50.8484 7.45703C50.8486 7.3717 50.87 7.30774 50.9128 7.26515C50.9448 7.23321 51.0089 7.21733 51.1049 7.21751L57.7128 7.22991ZM51.9938 10.9792C51.9929 11.4592 52.0936 11.7954 52.2959 11.9878C52.4982 12.1801 52.8554 12.2768 53.3674 12.2778L55.8314 12.2824L55.8308 12.5864L53.3188 12.5817C52.8281 12.5808 52.4866 12.6601 52.2943 12.8198C52.102 12.9901 52.0055 13.2779 52.0047 13.6832C52.0047 13.7045 51.9727 13.7152 51.9087 13.715C51.8447 13.7149 51.8127 13.7042 51.8127 13.6829L51.8311 12.4189C51.8317 12.1096 51.8268 11.8802 51.8164 11.7309L51.8018 10.9788C51.8018 10.9575 51.8339 10.9469 51.8979 10.947C51.9619 10.9471 51.9938 10.9579 51.9938 10.9792ZM45.5263 17.8607L45.1852 17.9531L42.5597 10.4626C42.3767 9.9389 42.1581 9.61042 41.9039 9.47719C41.6497 9.34397 41.2776 9.36826 40.7876 9.55007C40.7676 9.5575 40.7464 9.5312 40.7242 9.4712C40.7019 9.4112 40.7008 9.37749 40.7208 9.37006C41.0008 9.26617 41.2176 9.1914 41.3714 9.14574L42.187 8.8602L42.9164 8.57249C43.0427 8.51425 43.2359 8.4369 43.4959 8.34043C43.5159 8.333 43.537 8.3593 43.5593 8.4193C43.5816 8.4793 43.5827 8.51301 43.5627 8.52043C43.1427 8.67627 42.8848 8.88573 42.789 9.14882C42.6869 9.42562 42.7254 9.82089 42.9047 10.3346L45.5263 17.8607ZM32.0871 12.7781C32.0571 12.7893 32.031 12.7648 32.0087 12.7048C31.9864 12.6448 31.9903 12.6093 32.0203 12.5981C32.3303 12.4831 32.5772 12.3972 32.7609 12.3404L33.7715 11.9825L34.696 11.6224C34.8423 11.5568 35.0505 11.4739 35.3205 11.3737C35.3405 11.3663 35.3616 11.3926 35.3839 11.4526C35.4061 11.5126 35.4073 11.5463 35.3873 11.5537C35.0372 11.6836 34.7915 11.8032 34.6501 11.9125C34.5023 12.0356 34.4294 12.1764 34.4313 12.335C34.4233 12.4973 34.4849 12.7247 34.6162 13.0173L37.6301 20.3125L37.401 21.0289L37.9696 10.5103C37.9747 10.4629 38.0073 10.428 38.0673 10.4057C38.1173 10.3872 38.1697 10.3905 38.2246 10.4157L44.8624 17.0831C45.1597 17.3937 45.4699 17.5858 45.793 17.6594C46.1061 17.7366 46.4426 17.7084 46.8026 17.5749C46.8226 17.5675 46.8438 17.5937 46.866 17.6537C46.8883 17.7137 46.8894 17.7475 46.8694 17.7549L46.3538 17.9291C46.2501 17.9562 46.1182 17.9995 45.9582 18.0588C45.7982 18.1182 45.6651 18.1733 45.5588 18.2241C45.4525 18.2749 45.3693 18.3114 45.3093 18.3337C45.1693 18.3857 45.0408 18.3765 44.9237 18.3061C44.8103 18.2458 44.6123 18.0803 44.3299 17.8097L38.1397 11.6588L38.296 10.8841L37.7448 20.7137C37.7356 20.8422 37.704 20.9563 37.65 21.056C37.5859 21.1594 37.5139 21.226 37.4339 21.2557C37.3939 21.2705 37.3271 21.2896 37.2333 21.313C37.1396 21.3364 37.0128 21.3778 36.8528 21.4371L36.1833 21.7026C36.087 21.7497 35.9338 21.8122 35.7238 21.8901C35.7038 21.8976 35.6827 21.8713 35.6604 21.8113C35.6382 21.7513 35.637 21.7175 35.657 21.7101C36.1771 21.5172 36.5211 21.3099 36.6892 21.0883C36.851 20.8803 36.8526 20.5782 36.6942 20.1819L33.8212 13.3123C33.6962 13.006 33.5777 12.794 33.4657 12.6762C33.3438 12.5622 33.1835 12.5135 32.985 12.5303C32.7764 12.5508 32.4771 12.6334 32.0871 12.7781ZM25.5083 16.9634C26.29 16.3526 27.1288 15.9883 28.0248 15.8703C28.9189 15.7672 29.7771 15.8954 30.5993 16.2547C31.4196 16.6289 32.1188 17.1859 32.6967 17.9256C33.3731 18.7913 33.7325 19.7017 33.7749 20.6568C33.8238 21.6203 33.6293 22.5235 33.1915 23.3665C32.7453 24.216 32.1649 24.9198 31.4505 25.4781C30.652 26.102 29.8024 26.4612 28.9017 26.5558C28.0075 26.6588 27.1611 26.5283 26.3622 26.1643C25.555 25.8069 24.8821 25.2835 24.3436 24.5943C23.746 23.8294 23.3994 22.97 23.3037 22.0159C23.208 21.0619 23.3561 20.134 23.748 19.2322C24.1314 18.337 24.7182 17.5807 25.5083 16.9634ZM25.2514 17.5702C24.6547 18.0365 24.2251 18.5955 23.9627 19.2472C23.7003 19.8989 23.6406 20.6021 23.7836 21.3567C23.9265 22.1114 24.2902 22.8627 24.8747 23.6108C25.492 24.4009 26.1959 24.9812 26.9863 25.3518C27.7749 25.7374 28.5854 25.8825 29.4178 25.7871C30.2418 25.6983 31.0236 25.3649 31.7633 24.7869C32.7383 24.0251 33.2625 23.1282 33.336 22.0962C33.4095 21.0641 33.0391 20.0269 32.2247 18.9847C31.614 18.203 30.9012 17.6026 30.0863 17.1834C29.2697 16.7792 28.4362 16.6047 27.5859 16.6599C26.7356 16.7151 25.9575 17.0185 25.2514 17.5702ZM14.2466 29.3291C14.4106 29.1054 15.1013 28.9572 16.3188 28.8845C17.5385 28.8266 19.141 28.8511 21.1262 28.9578L20.8785 29.7285C19.2138 29.6717 17.8857 29.6699 16.8942 29.7232C15.9027 29.7764 15.1274 29.8957 14.5683 30.0809C14.0029 30.2747 13.5814 30.5608 13.3038 30.9393C13.2849 30.9651 13.2496 30.959 13.198 30.9212C13.1464 30.8833 13.13 30.8515 13.149 30.8257L14.2466 29.3291ZM25.027 31.6202C24.5286 32.2997 24.005 32.716 23.4562 32.8691C22.9074 33.0222 22.3793 32.9126 21.8718 32.5404C21.4504 32.2313 21.1462 31.8164 20.9593 31.2957C20.7746 30.7899 20.725 30.2443 20.8105 29.6588C20.8983 29.0883 21.1188 28.5621 21.4721 28.0805C21.5793 27.9342 21.7235 27.7556 21.9048 27.5446L18.8212 25.2831C18.5545 25.0875 18.3421 24.9714 18.1838 24.9347C18.0192 24.9066 17.8587 24.9542 17.7021 25.0774C17.5455 25.2007 17.3411 25.4344 17.0888 25.7784C17.0698 25.8043 17.0346 25.7982 16.983 25.7604C16.9314 25.7225 16.915 25.6907 16.9339 25.6649C17.1232 25.4069 17.2789 25.2036 17.401 25.0551L18.0574 24.1872L18.669 23.3262C18.774 23.1651 18.9274 22.9469 19.1292 22.6716C19.1418 22.6544 19.174 22.6648 19.2256 22.7026C19.2772 22.7404 19.2967 22.768 19.2841 22.7852C19.0317 23.1292 18.8703 23.3944 18.7997 23.5808C18.7229 23.7758 18.7226 23.9475 18.7989 24.096C18.8837 24.2509 19.0552 24.4229 19.3132 24.6122L25.2869 28.9933C25.5449 29.1825 25.7562 29.2912 25.9208 29.3193C26.079 29.356 26.2396 29.3084 26.4025 29.1765C26.5676 29.0596 26.7732 28.8334 27.0192 28.4979C27.0382 28.4721 27.0734 28.4781 27.125 28.516C27.1767 28.5538 27.193 28.5856 27.1741 28.6115L26.707 29.2213C26.4374 29.5527 26.2207 29.8303 26.0566 30.0539C25.9431 30.2087 25.8402 30.3581 25.7478 30.502C25.6555 30.646 25.5758 30.7727 25.5087 30.8822C25.3326 31.1764 25.172 31.4224 25.027 31.6202ZM21.9631 31.4962C22.6168 31.9756 23.2077 32.1709 23.7358 32.0821C24.2577 32.0018 24.7047 31.7079 25.0769 31.2005C25.2535 30.9596 25.3656 30.7707 25.4132 30.6336C25.4608 30.4966 25.4422 30.3506 25.3573 30.1958C25.2662 30.0496 25.07 29.866 24.769 29.6453L22.2144 27.7717C21.9403 28.0733 21.7338 28.3187 21.595 28.508C21.1345 29.1359 20.9324 29.6821 20.9886 30.1466C21.0533 30.6174 21.3782 31.0672 21.9631 31.4962ZM12.3095 32.475C12.3178 32.4553 12.3514 32.4579 12.4104 32.4828C12.4693 32.5077 12.4947 32.53 12.4864 32.5496C12.3246 32.9329 12.231 33.2234 12.2055 33.421C12.1758 33.6284 12.2173 33.7907 12.33 33.9077C12.4484 34.0387 12.655 34.1664 12.9498 34.2909L19.7748 37.1714C20.0696 37.2958 20.3004 37.3527 20.467 37.3419C20.6294 37.341 20.7746 37.2576 20.9026 37.0916C21.0362 36.9396 21.1839 36.672 21.3457 36.2887C21.3539 36.2691 21.3876 36.2717 21.4465 36.2966C21.5055 36.3215 21.5308 36.3437 21.5225 36.3634L19.0589 42.2008C19.0215 42.2892 18.9586 42.3148 18.8702 42.2775L17.0741 41.5541C17.0446 41.5417 17.0423 41.506 17.0672 41.447C17.0879 41.3979 17.1131 41.3795 17.1425 41.392C17.6437 41.6035 18.0977 41.6388 18.5045 41.4979C18.9113 41.357 19.206 41.0704 19.3885 40.638L19.8178 39.6208C19.9754 39.2474 20.0669 38.9619 20.0925 38.7642C20.118 38.5666 20.0765 38.4044 19.9679 38.2775C19.8552 38.1605 19.6515 38.0398 19.3566 37.9153L12.679 35.097C12.394 34.9767 12.1703 34.917 12.0078 34.9179C11.851 34.9328 11.7128 35.0134 11.5932 35.1597C11.4694 35.3159 11.3266 35.5856 11.1649 35.9689L10.5925 37.325C10.4266 37.7181 10.4575 38.1248 10.6854 38.5452C10.909 38.9753 11.2844 39.3479 11.8113 39.6629C11.8408 39.6754 11.8382 39.709 11.8035 39.7638C11.7786 39.8228 11.7514 39.846 11.7219 39.8336C11.1401 39.4839 10.52 39.17 9.86161 38.8922C9.78299 38.859 9.73232 38.8144 9.7096 38.7585C9.69256 38.7166 9.70271 38.6514 9.74004 38.563L12.3095 32.475ZM13.5525 39.1995C13.9948 39.3862 14.3437 39.4235 14.5994 39.3114C14.8551 39.1993 15.0825 38.9075 15.2816 38.4357L16.2397 36.1656L16.5198 36.2839L15.543 38.5982C15.3522 39.0502 15.2932 39.3958 15.366 39.6349C15.4485 39.8782 15.6765 40.0786 16.05 40.2362C16.0696 40.2445 16.067 40.2781 16.0421 40.3371C16.0172 40.3961 15.995 40.4214 15.9753 40.4131L14.817 39.9069C14.532 39.7866 14.3187 39.7023 14.1769 39.6541L13.4779 39.3764C13.4582 39.3681 13.4608 39.3345 13.4857 39.2755C13.5106 39.2166 13.5329 39.1912 13.5525 39.1995ZM11.0592 45.8086C11.0517 45.786 11.0864 45.7694 11.1633 45.759C11.2493 45.7607 11.3398 45.7684 11.4348 45.7822C11.6248 45.8097 11.7228 45.84 11.7288 45.8732L11.7925 49.3421C11.8 49.3648 11.766 49.376 11.6906 49.3759C11.6242 49.3878 11.5488 49.3877 11.4643 49.3755C11.2532 49.3449 11.1409 49.3017 11.1274 49.2459L11.0592 45.8086ZM7.1031 55.3031C7.10086 55.2819 7.13157 55.268 7.19522 55.2613C7.25887 55.2546 7.29181 55.2618 7.29404 55.283C7.33756 55.6968 7.39588 55.9963 7.469 56.1817C7.54324 56.3776 7.65797 56.4996 7.81318 56.5477C7.98011 56.6052 8.2227 56.6172 8.54094 56.5837L15.9083 55.8088C16.2265 55.7754 16.456 55.7137 16.5967 55.6238C16.7385 55.5445 16.8254 55.4013 16.8572 55.1942C16.9008 54.9966 16.9008 54.6909 16.8573 54.2772C16.8551 54.2559 16.8858 54.242 16.9494 54.2353C17.0131 54.2286 17.046 54.2359 17.0482 54.2571L17.711 60.5583C17.7211 60.6538 17.6783 60.7065 17.5829 60.7166L15.6608 60.9509C15.629 60.9543 15.6098 60.9241 15.6031 60.8605C15.5975 60.8074 15.6106 60.7792 15.6424 60.7759C16.1834 60.719 16.598 60.5306 16.8861 60.2107C17.1742 59.8908 17.2938 59.4975 17.2447 59.0307L17.1292 57.9328C17.0868 57.5297 17.029 57.2354 16.9559 57.0501C16.8828 56.8647 16.768 56.7427 16.6117 56.684C16.4565 56.636 16.2198 56.6287 15.9015 56.6622L8.6933 57.4204C8.38566 57.4528 8.16093 57.5086 8.01912 57.5878C7.88902 57.6766 7.80694 57.8139 7.77286 57.9999C7.73991 58.1964 7.74519 58.5015 7.7887 58.9152L7.94268 60.3791C7.98732 60.8035 8.2109 61.1446 8.61342 61.4026C9.01707 61.6712 9.52568 61.8161 10.1393 61.8374C10.1711 61.834 10.1851 61.8647 10.1811 61.9295C10.1878 61.9931 10.1753 62.0266 10.1434 62.03C9.46509 62.0048 8.77054 62.0296 8.05979 62.1044C7.97493 62.1133 7.90905 62.0988 7.86215 62.0608C7.82698 62.0323 7.80437 61.9703 7.79433 61.8749L7.1031 55.3031ZM11.44 60.5905C11.9173 60.5403 12.2409 60.4043 12.4106 60.1827C12.5804 59.9611 12.6385 59.5956 12.5849 59.0865L12.3272 56.636L12.6295 56.6042L12.8923 59.1024C12.9436 59.5904 13.0589 59.9215 13.2381 60.0957C13.4279 60.2688 13.7244 60.3341 14.1275 60.2917C14.1487 60.2895 14.1626 60.3202 14.1693 60.3838C14.176 60.4475 14.1688 60.4804 14.1476 60.4827L12.8888 60.599C12.5812 60.6313 12.3537 60.6606 12.2063 60.6868L11.4601 60.7814C11.4388 60.7837 11.4249 60.7529 11.4182 60.6893C11.4115 60.6256 11.4188 60.5927 11.44 60.5905ZM10.3746 70.6244C10.3676 70.6042 10.3943 70.5836 10.4547 70.5626C10.5151 70.5415 10.5488 70.541 10.5559 70.5612C10.6612 70.8633 10.7569 71.0728 10.8428 71.1897C10.9288 71.3066 11.0221 71.3475 11.1228 71.3124C11.2034 71.2843 11.2933 71.2021 11.3927 71.0658L17.0986 63.5691C17.4 63.1703 17.5857 62.8119 17.6556 62.4938C17.7254 62.1757 17.6971 61.8354 17.5707 61.4728C17.5636 61.4527 17.5903 61.4321 17.6508 61.411C17.7112 61.3899 17.7449 61.3895 17.752 61.4096C17.7941 61.5305 17.8508 61.7253 17.9219 61.9942L18.0965 62.5434C18.2089 62.8657 18.3594 63.2651 18.5481 63.7415L18.8372 64.5218C18.8477 64.552 18.8228 64.5777 18.7623 64.5988C18.7019 64.6198 18.6664 64.6153 18.6559 64.585C18.5505 64.2829 18.4498 64.0751 18.3538 63.9617C18.2679 63.8449 18.1745 63.804 18.0738 63.8391C18.0033 63.8637 17.9134 63.9459 17.804 64.0857L12.1185 71.5922C11.8069 71.9945 11.6179 72.3598 11.5516 72.6879C11.4989 73.0226 11.5498 73.4115 11.7043 73.8547C11.7113 73.8748 11.6846 73.8954 11.6242 73.9165C11.5637 73.9376 11.53 73.938 11.523 73.9179C11.4317 73.656 11.3647 73.4478 11.3221 73.2932L11.058 72.4872L10.6478 71.3594C10.5745 71.1816 10.4834 70.9366 10.3746 70.6244ZM8.29372 64.6568C8.28319 64.6265 8.30814 64.6009 8.36857 64.5798C8.429 64.5588 8.46448 64.5633 8.47502 64.5935C8.59443 64.936 8.81104 65.2332 9.12486 65.4853C9.44876 65.7339 9.85803 65.9357 10.3527 66.0908L14.4634 67.3347L14.3703 67.5536L10.4633 66.4081C10.101 66.3085 9.82917 66.2903 9.64788 66.3535C9.31551 66.4694 9.25644 66.8345 9.47067 67.4489C9.4812 67.4791 9.45625 67.5048 9.39582 67.5259C9.33539 67.5469 9.29991 67.5424 9.28937 67.5121C9.18401 67.21 9.11003 66.9816 9.06742 66.827L8.72957 65.8095L8.49848 65.1954C8.44978 65.0881 8.38152 64.9086 8.29372 64.6568ZM14.7842 67.477L18.5334 68.5589C18.9702 68.6777 19.2894 68.702 19.4908 68.6318C19.8332 68.5124 19.9026 68.1606 19.6989 67.5764C19.6884 67.5462 19.7133 67.5205 19.7738 67.4995C19.8342 67.4784 19.8697 67.483 19.8802 67.5132L20.1022 68.1983C20.2155 68.5881 20.3231 68.929 20.4249 69.2211C20.4846 69.3923 20.5667 69.5953 20.6711 69.83L20.8759 70.3686C20.8864 70.3988 20.8615 70.4244 20.801 70.4455C20.7406 70.4666 20.7051 70.462 20.6946 70.4318C20.4558 69.7469 19.7672 69.2301 18.629 68.8815L14.7062 67.6906L14.7842 67.477ZM14.9236 77.1677C14.6358 77.3511 14.4501 77.5263 14.3668 77.6932C14.2924 77.8544 14.2999 78.0647 14.3893 78.324C14.4843 78.5922 14.6923 78.9783 15.0133 79.482C15.0305 79.509 15.0121 79.5397 14.9581 79.5741C14.9042 79.6085 14.8686 79.6122 14.8514 79.5852C14.6164 79.2164 14.4375 78.9256 14.3146 78.713L13.5801 77.5305L12.9992 76.6485C12.887 76.4923 12.7392 76.2703 12.5558 75.9824C12.5443 75.9644 12.5656 75.9382 12.6195 75.9038C12.6735 75.8694 12.7062 75.8612 12.7177 75.8792C12.9412 76.2301 13.1271 76.4721 13.2752 76.6054C13.4291 76.7476 13.5862 76.8056 13.7466 76.7794C13.9216 76.7563 14.1441 76.6589 14.414 76.4869L20.6615 72.5061C20.9314 72.3342 21.1092 72.1766 21.195 72.0334C21.2866 71.8991 21.3004 71.7322 21.2365 71.5327C21.1873 71.3364 21.0509 71.0628 20.8274 70.7119C20.8159 70.694 20.8371 70.6678 20.8911 70.6334C20.9451 70.599 20.9778 70.5908 20.9893 70.6088L21.3971 71.2786C21.6198 71.6678 21.8 71.9704 21.9375 72.1863C22.0751 72.4022 22.2462 72.641 22.4509 72.9027C22.925 73.5872 23.1821 73.9609 23.2222 74.0238C23.7266 74.8155 23.952 75.5762 23.8985 76.3059C23.8539 77.03 23.4583 77.6299 22.7116 78.1056C22.1089 78.4897 21.5061 78.6651 20.9031 78.6319C20.3092 78.593 19.7671 78.4072 19.2768 78.0745C18.7923 77.7508 18.3953 77.3461 18.0858 76.8603C17.9138 76.5904 17.7959 76.3557 17.732 76.1561C17.7148 76.1291 17.7287 76.1013 17.7736 76.0726C17.8006 76.0555 17.8305 76.0428 17.8632 76.0346C17.9017 76.0354 17.9221 76.0476 17.9246 76.0713C17.9803 76.2382 18.0655 76.4116 18.1801 76.5915C18.5871 77.2302 19.1244 77.6467 19.7921 77.841C20.4655 78.0443 21.171 77.911 21.9087 77.441C22.3855 77.1372 22.7346 76.7819 22.956 76.3752C23.1865 75.9628 23.2857 75.5328 23.2535 75.0853C23.2361 74.6411 23.1012 74.2211 22.849 73.8253C22.614 73.4564 22.4298 73.207 22.2964 73.077C22.163 72.947 22.0059 72.889 21.8251 72.903C21.659 72.9203 21.414 73.0321 21.0902 73.2385L14.9236 77.1677ZM20.498 84.6898C20.2766 84.9058 20.1348 85.0889 20.0726 85.239C20.0255 85.3893 20.0462 85.5479 20.1347 85.715C20.2306 85.8896 20.4201 86.122 20.7032 86.4121L22.1336 87.8779C22.8711 88.6336 23.7917 88.6072 24.8953 87.7985C24.9182 87.7761 24.9445 87.7878 24.9741 87.8334C25.0188 87.8792 25.0297 87.9133 25.0068 87.9356C24.3366 88.4554 23.8069 88.9053 23.4175 89.2852C23.3565 89.3448 23.2995 89.3781 23.2466 89.385C23.2014 89.3844 23.1452 89.3498 23.0782 89.2811L17.9378 84.0136C17.9229 83.9983 17.9384 83.9683 17.9842 83.9236C18.03 83.8789 18.0604 83.8642 18.0753 83.8795C18.3658 84.1772 18.5972 84.3761 18.7695 84.4763C18.9492 84.5841 19.1148 84.6088 19.2664 84.5503C19.4331 84.492 19.6309 84.3511 19.8599 84.1276L25.1618 78.9537C25.3908 78.7303 25.5327 78.5396 25.5874 78.3819C25.6496 78.2318 25.629 78.0656 25.5256 77.8833C25.4374 77.7012 25.2479 77.4613 24.9574 77.1635C24.9425 77.1483 24.9579 77.1183 25.0038 77.0736C25.0496 77.0289 25.0799 77.0142 25.0948 77.0295L25.6309 77.6017C25.9285 77.9373 26.1667 78.1966 26.3455 78.3799C26.5467 78.586 26.8113 78.8419 27.1395 79.1476L27.6761 79.6747C27.691 79.6899 27.6756 79.7199 27.6298 79.7646C27.584 79.8093 27.5536 79.824 27.5387 79.8088C27.2482 79.511 27.0092 79.312 26.8219 79.2116C26.6496 79.1115 26.4802 79.0905 26.3135 79.1489C26.1619 79.2073 25.9716 79.3483 25.7426 79.5718L20.498 84.6898ZM29.4398 93.7655C28.5926 93.2493 27.9559 92.5928 27.5296 91.796C27.1179 90.9956 26.9353 90.1474 26.9816 89.2513C27.0426 88.3517 27.3173 87.5011 27.8057 86.6995C28.3773 85.7612 29.1026 85.1039 29.9814 84.7276C30.8658 84.3421 31.7795 84.2056 32.7227 84.3181C33.675 84.4362 34.5383 84.7311 35.3126 85.2028C36.1779 85.7301 36.8137 86.3985 37.2198 87.208C37.6314 88.0084 37.8078 88.8465 37.7488 89.7224C37.6989 90.6038 37.4464 91.4179 36.9913 92.1649C36.4862 92.9938 35.8042 93.6212 34.9452 94.0471C34.0861 94.473 33.1656 94.6616 32.1835 94.6128C31.2106 94.5696 30.296 94.2872 29.4398 93.7655ZM30.0982 93.7919C30.7449 94.186 31.4195 94.3909 32.1218 94.4066C32.8242 94.4224 33.5033 94.2303 34.1591 93.8305C34.8149 93.4307 35.3898 92.8254 35.8837 92.0147C36.4054 91.1584 36.7003 90.2951 36.7684 89.4248C36.8512 88.551 36.7012 87.7414 36.3184 86.996C35.9448 86.2563 35.3572 85.6422 34.5556 85.1538C33.4989 84.51 32.4747 84.3356 31.483 84.6307C30.4914 84.9258 29.6514 85.6382 28.9632 86.7677C28.4471 87.6148 28.1365 88.4936 28.0315 89.4039C27.9412 90.3106 28.0718 91.1521 28.4232 91.9283C28.7747 92.7045 29.333 93.3257 30.0982 93.7919ZM45.0145 99.9143C44.747 99.8408 44.3623 99.2483 43.8603 98.1368C43.3713 97.0179 42.8228 95.512 42.2147 93.6192L43.0231 93.5759C43.5635 95.1514 44.0354 96.3929 44.4387 97.3002C44.842 98.2075 45.2298 98.8894 45.6022 99.3457C45.9848 99.8049 46.4024 100.097 46.855 100.221C46.8858 100.23 46.8928 100.265 46.8758 100.326C46.8589 100.388 46.8349 100.415 46.8041 100.406L45.0145 99.9143ZM43.3113 89.0256C44.1239 89.2489 44.6995 89.5896 45.0382 90.0478C45.3769 90.5059 45.4628 91.0384 45.296 91.6452C45.1575 92.1492 44.8783 92.5813 44.4585 92.9416C44.0518 93.2944 43.5597 93.5353 42.9822 93.6642C42.4178 93.7856 41.8477 93.7672 41.2717 93.6089C41.0969 93.5608 40.8785 93.4898 40.6168 93.3957L39.6033 97.083C39.5157 97.4018 39.4829 97.6417 39.5051 97.8027C39.5375 97.9664 39.6392 98.0995 39.8102 98.2018C39.9812 98.3041 40.2724 98.4118 40.6838 98.5249C40.7147 98.5334 40.7216 98.5685 40.7047 98.6302C40.6877 98.6919 40.6638 98.7185 40.6329 98.71C40.3244 98.6252 40.079 98.5522 39.8966 98.491L38.8518 98.1873L37.8293 97.9228C37.6414 97.8822 37.3828 97.8167 37.0537 97.7262C37.0331 97.7206 37.0313 97.6869 37.0483 97.6252C37.0652 97.5635 37.084 97.5355 37.1046 97.5411C37.516 97.6542 37.8213 97.7105 38.0206 97.7099C38.2301 97.7122 38.3907 97.6512 38.5023 97.527C38.6167 97.3925 38.7163 97.171 38.8011 96.8625L40.7644 89.7194C40.8492 89.4108 40.8754 89.1746 40.843 89.0109C40.8208 88.8499 40.7191 88.7168 40.5378 88.6117C40.3697 88.4991 40.085 88.3877 39.6839 88.2774C39.653 88.269 39.6461 88.2339 39.663 88.1722C39.68 88.1104 39.7039 88.0838 39.7348 88.0923L40.4711 88.3113C40.8768 88.4449 41.2134 88.5485 41.4808 88.622C41.666 88.6729 41.8422 88.7158 42.0096 88.7507C42.177 88.7857 42.3238 88.815 42.4501 88.8386C42.7877 88.8982 43.0748 88.9605 43.3113 89.0256ZM44.2879 91.9323C44.5027 91.1506 44.4745 90.5289 44.2032 90.0672C43.9421 89.6082 43.5082 89.2954 42.9014 89.1286C42.6134 89.0494 42.3969 89.0121 42.2519 89.0164C42.1068 89.0208 41.9771 89.0903 41.8627 89.2248C41.7586 89.3621 41.6571 89.6107 41.5581 89.9707L40.7186 93.0254C41.0981 93.174 41.401 93.2794 41.6273 93.3416C42.3781 93.5479 42.9605 93.5421 43.3744 93.324C43.7912 93.0956 44.0957 92.6317 44.2879 91.9323ZM48.6356 100.603C48.6143 100.603 48.6048 100.57 48.6072 100.506C48.6095 100.442 48.6213 100.411 48.6426 100.412C49.0584 100.427 49.3631 100.411 49.557 100.365C49.7614 100.319 49.8984 100.223 49.9678 100.076C50.0483 99.9185 50.0943 99.6801 50.106 99.3603L50.3767 91.9572C50.3884 91.6374 50.3597 91.4016 50.2905 91.2496C50.232 91.098 50.1025 90.9919 49.9019 90.9312C49.7124 90.8602 49.4098 90.8171 48.994 90.8019C48.9727 90.8011 48.9632 90.7688 48.9656 90.7048C48.9679 90.6409 48.9797 90.6093 49.0011 90.6101L55.3328 90.8416C55.4288 90.8451 55.475 90.8948 55.4715 90.9908L55.4327 92.9266C55.4315 92.9586 55.399 92.9734 55.335 92.9711C55.2817 92.9691 55.2556 92.9522 55.2568 92.9202C55.2767 92.3766 55.1486 91.9396 54.8725 91.6093C54.5963 91.279 54.2238 91.1052 53.7548 91.0881L52.6515 91.0477C52.2464 91.0329 51.947 91.0487 51.7532 91.095C51.5594 91.1412 51.4224 91.2376 51.3423 91.3841C51.2729 91.531 51.2324 91.7644 51.2207 92.0842L50.9558 99.3273C50.9445 99.6364 50.9681 99.8668 51.0266 100.018C51.0961 100.16 51.2206 100.26 51.3998 100.32C51.5897 100.381 51.8926 100.418 52.3083 100.433L53.7793 100.487C54.2057 100.503 54.5749 100.33 54.887 99.9674C55.2098 99.6056 55.4249 99.1225 55.5324 98.518C55.5336 98.486 55.566 98.4765 55.6295 98.4895C55.6935 98.4919 55.7249 98.509 55.7237 98.541C55.6032 99.2091 55.5299 99.9002 55.5038 100.614C55.5007 100.7 55.477 100.763 55.4328 100.804C55.3997 100.835 55.3351 100.848 55.2392 100.845L48.6356 100.603ZM54.4812 97.0546C54.4988 96.5749 54.4098 96.2355 54.2142 96.0362C54.0187 95.8369 53.6651 95.7279 53.1535 95.7092L50.6911 95.6192L50.7022 95.3154L53.2126 95.4072C53.7029 95.4251 54.0469 95.3576 54.2447 95.2047C54.4428 95.0412 54.5492 94.7569 54.564 94.3518C54.5648 94.3305 54.5972 94.321 54.6611 94.3234C54.7251 94.3257 54.7567 94.3375 54.7559 94.3589L54.6937 95.6214C54.6824 95.9306 54.6794 96.1599 54.6846 96.3096L54.6731 97.0616C54.6723 97.083 54.6399 97.0924 54.576 97.0901C54.512 97.0878 54.4804 97.0759 54.4812 97.0546ZM64.5386 89.6003L64.8737 89.4881L67.9328 96.8122C68.146 97.3244 68.3834 97.6395 68.645 97.7576C68.9066 97.8757 69.2767 97.8297 69.7552 97.6196C69.7747 97.611 69.7974 97.636 69.8231 97.6946C69.8488 97.7532 69.8519 97.7868 69.8324 97.7954C69.5589 97.9155 69.3468 98.0028 69.196 98.0574L68.3985 98.3901L67.6871 98.72C67.5644 98.7855 67.3761 98.874 67.1222 98.9855C67.1027 98.9941 67.0801 98.9691 67.0543 98.9105C67.0286 98.8519 67.0255 98.8183 67.045 98.8097C67.4552 98.6296 67.7004 98.4054 67.7807 98.1372C67.8664 97.8549 67.8048 97.4626 67.5958 96.9602L64.5386 89.6003ZM78.252 93.8883C78.2813 93.8754 78.3088 93.8983 78.3346 93.9569C78.3603 94.0155 78.3585 94.0512 78.3292 94.0641C78.0265 94.1971 77.785 94.2972 77.605 94.3647L76.617 94.7811L75.7152 95.1946C75.5729 95.2687 75.37 95.3636 75.1063 95.4794C75.0868 95.488 75.0641 95.463 75.0384 95.4044C75.0127 95.3458 75.0096 95.3122 75.0291 95.3036C75.3709 95.1535 75.6092 95.0197 75.7441 94.9023C75.8844 94.7708 75.9489 94.6259 75.9377 94.4677C75.9362 94.3053 75.8614 94.0818 75.7132 93.7974L72.2779 86.6909L72.4648 85.9623L72.5122 96.4962C72.5098 96.5439 72.4794 96.5806 72.4208 96.6063C72.3719 96.6278 72.3194 96.6275 72.2632 96.6056L65.2469 90.3377C64.9319 90.045 64.611 89.8714 64.2842 89.8169C63.9671 89.758 63.6328 89.8058 63.2812 89.9602C63.2617 89.9688 63.239 89.9438 63.2133 89.8852C63.1876 89.8266 63.1845 89.793 63.204 89.7844L63.7085 89.5804C63.8105 89.5472 63.9396 89.4964 64.0958 89.4278C64.2521 89.3591 64.3818 89.2963 64.4849 89.2394C64.5881 89.1825 64.669 89.1411 64.7276 89.1154C64.8643 89.0553 64.9932 89.057 65.1142 89.1204C65.2309 89.1739 65.4382 89.3276 65.736 89.5812L72.2752 95.3596L72.1645 96.1422L72.14 86.2972C72.1416 86.1683 72.1665 86.0525 72.2146 85.9498C72.2725 85.8429 72.3405 85.7722 72.4186 85.7379C72.4577 85.7208 72.5233 85.6978 72.6155 85.6689C72.7077 85.6401 72.8319 85.5914 72.9882 85.5228L73.641 85.2186C73.7344 85.166 73.8836 85.0946 74.0887 85.0045C74.1082 84.996 74.1309 85.021 74.1566 85.0796C74.1823 85.1382 74.1854 85.1718 74.1659 85.1803C73.658 85.4034 73.3267 85.6304 73.1719 85.8615C73.0225 86.0785 73.0385 86.3802 73.2199 86.7666L76.4897 93.4565C76.6324 93.7549 76.7631 93.9597 76.8817 94.0707C77.0101 94.1774 77.1729 94.2165 77.3702 94.1882C77.5772 94.1555 77.8711 94.0556 78.252 93.8883ZM84.576 89.3355C83.8305 89.9899 83.0139 90.4016 82.1261 90.5706C81.2393 90.7245 80.3752 90.6456 79.5338 90.3339C78.6934 90.0071 77.9636 89.491 77.3444 88.7856C76.6196 87.9599 76.2088 87.0715 76.1119 86.1204C76.0081 85.1613 76.1506 84.2484 76.5396 83.3818C76.9365 82.5082 77.4757 81.7723 78.1571 81.1742C78.9186 80.5057 79.7463 80.0985 80.6402 79.9526C81.527 79.7987 82.3795 79.8806 83.1978 80.1984C84.0241 80.5091 84.7258 80.9932 85.3028 81.6505C85.9432 82.38 86.3384 83.2182 86.4884 84.1652C86.6384 85.1122 86.5436 86.0471 86.2039 86.9698C85.8722 87.8855 85.3296 88.674 84.576 89.3355ZM84.7978 88.715C85.367 88.2154 85.7639 87.6328 85.9886 86.9671C86.2133 86.3015 86.2328 85.596 86.047 84.8508C85.8611 84.1055 85.4551 83.3762 84.8288 82.6627C84.1673 81.9092 83.4315 81.37 82.6212 81.0452C81.8119 80.7053 80.9944 80.6068 80.1688 80.7496C79.3512 80.8853 78.5897 81.2628 77.8843 81.8821C76.9544 82.6983 76.4822 83.6238 76.4678 84.6583C76.4534 85.6929 76.8825 86.7072 77.7551 87.7012C78.4095 88.4467 79.1554 89.0055 79.9929 89.3774C80.8313 89.7343 81.6734 89.8609 82.5192 89.7572C83.3649 89.6535 84.1244 89.3061 84.7978 88.715ZM95.1112 76.3428C94.9603 76.5755 94.2793 76.7632 93.0681 76.9058C91.8537 77.0338 90.2525 77.1016 88.2643 77.1092L88.4674 76.3255C90.1326 76.2865 91.4586 76.2119 92.4454 76.1016C93.4321 75.9914 94.1993 75.8278 94.7468 75.6107C95.3002 75.3847 95.7045 75.0748 95.9598 74.681C95.9772 74.6542 96.0128 74.6581 96.0665 74.693C96.1202 74.7278 96.1383 74.7586 96.1209 74.7855L95.1112 76.3428ZM84.2169 74.6756C84.6754 73.9685 85.1741 73.5228 85.7132 73.3384C86.2523 73.154 86.7858 73.233 87.3139 73.5754C87.7524 73.8597 88.08 74.2564 88.2966 74.7655C88.51 75.2599 88.5909 75.8017 88.5392 76.3912C88.4844 76.9658 88.2945 77.5038 87.9696 78.005C87.8709 78.1571 87.7372 78.3437 87.5684 78.5648L90.777 80.6452C91.0544 80.8251 91.2732 80.9288 91.4333 80.9564C91.5993 80.975 91.7568 80.9182 91.906 80.7861C92.0552 80.6541 92.2459 80.409 92.478 80.051C92.4954 80.0242 92.531 80.0281 92.5847 80.063C92.6384 80.0978 92.6565 80.1286 92.6391 80.1555C92.465 80.424 92.3213 80.6359 92.2079 80.7912L91.6025 81.6954L91.0415 82.5901C90.946 82.757 90.8054 82.9837 90.6197 83.2701C90.6081 83.288 90.5754 83.2795 90.5217 83.2447C90.468 83.2099 90.447 83.1835 90.4586 83.1656C90.6907 82.8076 90.8366 82.5336 90.8963 82.3434C90.9618 82.1444 90.9522 81.9729 90.8675 81.829C90.7739 81.6793 90.5929 81.5174 90.3244 81.3433L84.1086 77.3131C83.8401 77.139 83.6229 77.0427 83.4569 77.0241C83.2968 76.9966 83.1393 77.0533 82.9843 77.1943C82.8261 77.3206 82.6339 77.5583 82.4075 77.9073C82.3901 77.9342 82.3546 77.9302 82.3009 77.8954C82.2472 77.8606 82.229 77.8297 82.2464 77.8029L82.6777 77.1672C82.9277 76.8208 83.1282 76.5312 83.279 76.2985C83.3835 76.1374 83.4777 75.9824 83.5616 75.8334C83.6455 75.6844 83.7178 75.5533 83.7784 75.4401C83.9373 75.1363 84.0834 74.8814 84.2169 74.6756ZM87.2829 74.6231C86.6027 74.1821 86.0015 74.0211 85.4793 74.1402C84.963 74.2504 84.5336 74.5695 84.1912 75.0975C84.0288 75.3481 83.9277 75.5432 83.8881 75.6828C83.8484 75.8223 83.8754 75.967 83.969 76.1167C84.0685 76.2574 84.2748 76.4293 84.5881 76.6324L87.2462 78.3559C87.5025 78.039 87.6945 77.7821 87.8222 77.5852C88.2458 76.9319 88.4162 76.375 88.3334 75.9145C88.2417 75.4482 87.8915 75.0177 87.2829 74.6231ZM96.8656 73.0842C96.8584 73.1043 96.8247 73.1037 96.7644 73.0823C96.7041 73.0609 96.6775 73.0402 96.6846 73.0201C96.8235 72.628 96.9 72.3325 96.9138 72.1338C96.9312 71.9249 96.8803 71.7654 96.7609 71.6552C96.635 71.5314 96.4213 71.416 96.1196 71.3091L89.1371 68.8347C88.8355 68.7278 88.6018 68.6846 88.4361 68.7051C88.274 68.7156 88.1339 68.8074 88.016 68.9806C87.8915 69.1402 87.7598 69.4161 87.6209 69.8082C87.6137 69.8283 87.58 69.8277 87.5197 69.8063C87.4594 69.7849 87.4328 69.7642 87.4399 69.7441L89.5562 63.7719C89.5883 63.6815 89.6496 63.6523 89.7401 63.6843L91.5756 64.3008C91.6057 64.3115 91.6101 64.347 91.5887 64.4073C91.5709 64.4576 91.5469 64.4774 91.5168 64.4667C91.004 64.285 90.5487 64.2764 90.1509 64.441C89.7531 64.6056 89.4758 64.9091 89.319 65.3514L88.9503 66.392C88.8149 66.7741 88.7403 67.0645 88.7264 67.2633C88.7125 67.4621 88.7635 67.6216 88.8793 67.7419C88.9987 67.8521 89.2092 67.9606 89.5108 68.0675L96.3426 70.4885C96.6341 70.5918 96.861 70.6382 97.0231 70.6278C97.1788 70.6037 97.312 70.5151 97.4228 70.362C97.5372 70.1989 97.6639 69.9212 97.8029 69.5291L98.2945 68.1417C98.4371 67.7395 98.3822 67.3353 98.1301 66.9291C97.8815 66.5128 97.485 66.1629 96.9404 65.8794C96.9102 65.8687 96.9109 65.835 96.9423 65.7783C96.9637 65.7179 96.9894 65.6931 97.0196 65.7038C97.6209 66.0187 98.2584 66.2956 98.932 66.5343C99.0125 66.5628 99.0657 66.6043 99.0916 66.6587C99.1111 66.6996 99.1048 66.7653 99.0728 66.8557L96.8656 73.0842ZM95.2294 66.4444C94.777 66.2841 94.4264 66.2673 94.1778 66.3942C93.9291 66.5211 93.7193 66.8259 93.5482 67.3085L92.7252 69.6309L92.4387 69.5294L93.2777 67.1617C93.4416 66.6992 93.4802 66.3507 93.3936 66.1163C93.2968 65.8783 93.0574 65.6917 92.6754 65.5563C92.6553 65.5492 92.6559 65.5154 92.6773 65.4551C92.6987 65.3948 92.7194 65.3682 92.7395 65.3753L93.9256 65.8126C94.2171 65.9159 94.4351 65.9875 94.5794 66.0273L95.2936 66.2634C95.3137 66.2705 95.313 66.3043 95.2917 66.3646C95.2703 66.4249 95.2495 66.4515 95.2294 66.4444ZM97.333 59.7089C97.3417 59.7311 97.3079 59.7495 97.2316 59.7641C97.1457 59.7671 97.0549 59.7644 96.9593 59.7558C96.7681 59.7387 96.6686 59.7137 96.6608 59.6809L96.4081 56.2206C96.3993 56.1984 96.4326 56.1853 96.508 56.1814C96.5736 56.1658 96.6489 56.1619 96.7339 56.1695C96.9464 56.1885 97.0609 56.2255 97.0774 56.2805L97.333 59.7089Z" fill="black"/>
<path d="M47.5 61.5L62.5 46.5M62.5 46.5H47.5M62.5 46.5V61.5" stroke="black" stroke-width="2.5" stroke-linecap="round" stroke-linejoin="round"/>
</svg>
