<svg width="71" height="71" viewBox="0 0 71 71" fill="none" xmlns="http://www.w3.org/2000/svg">
<circle cx="35.5" cy="35.5" r="35.5" fill="white"/>
<path d="M64.8869 32.3619C64.8906 32.3816 64.8727 32.395 64.8334 32.4024C64.7941 32.4097 64.7726 32.4035 64.7689 32.3838C64.7275 32.161 64.6813 32.0034 64.6303 31.9112C64.578 31.8124 64.503 31.7552 64.4051 31.7394C64.2995 31.7184 64.1483 31.7261 63.9517 31.7627L59.3996 32.6084C59.203 32.645 59.0624 32.6914 58.978 32.7478C58.8923 32.7976 58.8428 32.878 58.8295 32.989C58.8097 33.1011 58.8199 33.2654 58.8601 33.4817C58.8637 33.5013 58.8459 33.5148 58.8065 33.5221C58.7672 33.5294 58.7457 33.5233 58.7421 33.5036L57.9822 29.4136C57.97 29.3481 57.9934 29.3098 58.0524 29.2988L59.3268 29.0417C59.34 29.0393 59.3534 29.0571 59.3673 29.0952C59.3734 29.128 59.3672 29.1495 59.3488 29.1597C58.6373 29.4546 58.351 29.9757 58.4899 30.7229L58.5648 31.126C58.6098 31.3685 58.6841 31.531 58.7876 31.6135C58.8898 31.6894 59.0426 31.7085 59.2457 31.6708L63.7388 30.8359C63.9551 30.7958 64.0986 30.7284 64.1692 30.6339C64.2386 30.5329 64.2538 30.3775 64.2148 30.1678L64.1253 29.686C63.9621 28.8077 63.4358 28.3291 62.5464 28.2503C62.5333 28.2527 62.5237 28.2375 62.5176 28.2048C62.5091 28.1589 62.5147 28.1341 62.5344 28.1304C63.0447 28.1034 63.5063 28.0516 63.9192 27.9749C63.9717 27.9651 64.0128 27.9676 64.0427 27.9824C64.066 27.9984 64.0832 28.0359 64.0941 28.0949L64.8869 32.3619ZM61.9744 29.0583C61.4107 29.1631 61.1971 29.5825 61.3335 30.3166L61.5892 31.693L61.3336 31.7405L61.076 30.3543C60.9421 29.6333 60.6326 29.3178 60.1476 29.4079C60.1279 29.4116 60.115 29.397 60.1089 29.3643C60.1016 29.3249 60.1078 29.3035 60.1275 29.2998L60.9847 29.1507L61.4449 29.055C61.6522 29.0029 61.8214 28.9647 61.9525 28.9404C61.9656 28.9379 61.9758 28.9564 61.9831 28.9957C61.9904 29.035 61.9875 29.0559 61.9744 29.0583ZM62.0734 22.8925C62.0815 22.9108 62.0673 22.928 62.0308 22.9443C61.9943 22.9606 61.9719 22.9596 61.9638 22.9413C61.8579 22.7039 61.7532 22.6082 61.6497 22.6543C61.5949 22.6788 61.5402 22.736 61.4854 22.8261L58.3431 27.6646C58.1606 27.943 58.0499 28.1858 58.0108 28.393C57.9691 28.594 57.9889 28.7859 58.0703 28.9686C58.0785 28.9869 58.0643 29.0041 58.0278 29.0204C57.9912 29.0367 57.9689 29.0357 57.9607 29.0174L57.803 28.6389C57.7391 28.463 57.6896 28.3354 57.6543 28.2563C57.562 28.0492 57.4392 27.7901 57.2859 27.4789L57.0529 26.9806C57.0474 26.9685 57.063 26.9542 57.0995 26.9379C57.136 26.9216 57.157 26.9196 57.1625 26.9318C57.2167 27.0536 57.2696 27.1395 57.3211 27.1895C57.3665 27.2422 57.4197 27.2551 57.4806 27.2279C57.5415 27.2008 57.5993 27.1422 57.654 27.0521L60.8308 22.1435C60.9916 21.882 61.0885 21.6491 61.1215 21.4446C61.1483 21.2429 61.1115 21.0294 61.0111 20.8041C61.003 20.7858 61.0172 20.7685 61.0537 20.7522C61.0902 20.7359 61.1126 20.7369 61.1207 20.7552C61.1967 20.9257 61.252 21.058 61.2866 21.152L61.5177 21.695L61.8566 22.4307C61.9116 22.5376 61.9838 22.6916 62.0734 22.8925ZM63.6937 26.5277C63.7019 26.546 63.6877 26.5633 63.6512 26.5795C63.6146 26.5958 63.5923 26.5948 63.5841 26.5766C63.4973 26.3817 63.3099 26.1988 63.0221 26.0279C62.7281 25.8596 62.3387 25.723 61.854 25.6179L59.6684 25.136L59.722 24.9369L61.7765 25.3459C62.1672 25.4199 62.4477 25.4189 62.6182 25.343C62.7278 25.2941 62.7941 25.2135 62.817 25.1011C62.8399 24.9887 62.8147 24.8503 62.7414 24.6859C62.736 24.6737 62.7515 24.6595 62.7881 24.6432C62.8246 24.6269 62.8456 24.6249 62.851 24.637C62.9379 24.8319 63.0013 24.9824 63.0414 25.0887L63.3254 25.7504L63.5218 26.1664C63.5604 26.2368 63.6178 26.3572 63.6937 26.5277ZM59.4581 25.0326L57.4301 24.6338C57.0306 24.5563 56.7395 24.5583 56.5569 24.6398C56.3255 24.7429 56.2831 24.9589 56.4296 25.2877C56.4351 25.2999 56.4195 25.3141 56.383 25.3304C56.3464 25.3467 56.3255 25.3487 56.32 25.3366L56.1297 24.8849C56.0333 24.6359 55.9417 24.414 55.8548 24.2192C55.8005 24.0974 55.732 23.96 55.6493 23.8072L55.4773 23.4459C55.4691 23.4276 55.4833 23.4103 55.5199 23.3941C55.5564 23.3778 55.5787 23.3788 55.5869 23.397C55.6764 23.598 55.8726 23.7842 56.1754 23.9558C56.472 24.1302 56.8689 24.2671 57.3658 24.3668L59.5117 24.8336L59.4581 25.0326ZM58.7636 18.8473C58.934 18.7188 59.045 18.6059 59.0967 18.5084C59.1391 18.4096 59.1342 18.2923 59.0818 18.1564C59.0254 18.0153 58.9049 17.8222 58.7203 17.5774C58.7082 17.5614 58.7182 17.5414 58.7501 17.5173C58.782 17.4932 58.804 17.4892 58.8161 17.5051C58.9807 17.7234 59.1064 17.8957 59.1934 18.0221L59.7093 18.7228L60.1508 19.2916C60.2324 19.3887 60.3395 19.5251 60.4719 19.7007C60.484 19.7167 60.474 19.7367 60.4421 19.7608C60.4101 19.7849 60.3882 19.789 60.3761 19.773C60.2396 19.592 60.128 19.4717 60.0412 19.4119C59.9503 19.3468 59.8576 19.329 59.763 19.3586C59.6591 19.3869 59.5273 19.4613 59.3676 19.5817L55.671 22.3695C55.5113 22.49 55.4063 22.5942 55.3558 22.6824C55.3014 22.7652 55.293 22.8592 55.3306 22.9644C55.3629 23.0737 55.4453 23.2161 55.5777 23.3918C55.5898 23.4078 55.5798 23.4278 55.5479 23.4519C55.516 23.476 55.494 23.48 55.4819 23.464L55.1768 23.0429C55.0108 22.8006 54.8736 22.6077 54.7653 22.4639C54.6729 22.3415 54.5526 22.1985 54.4041 22.0349C54.3506 21.975 54.2811 21.8939 54.1955 21.7915C54.1058 21.6837 54.0048 21.5553 53.8924 21.4063C53.499 20.8846 53.2977 20.3852 53.2884 19.9079C53.2792 19.4306 53.5061 19.0173 53.9691 18.6681C54.3045 18.4152 54.6555 18.2882 55.0221 18.2872C55.3848 18.2809 55.727 18.3694 56.0488 18.5525C56.3667 18.7303 56.6319 18.9603 56.8447 19.2424C56.9571 19.3914 57.0401 19.5292 57.0938 19.6557C57.1018 19.6664 57.0925 19.6817 57.0659 19.7018C57.0499 19.7139 57.032 19.7232 57.012 19.73C56.988 19.7314 56.9746 19.7247 56.9719 19.7101C56.933 19.6142 56.8734 19.513 56.7931 19.4065C56.5844 19.1298 56.2933 18.9819 55.9199 18.9629C55.5466 18.9439 55.147 19.0949 54.7211 19.4161C54.3007 19.7332 54.0502 20.0765 53.9699 20.4461C53.8802 20.8143 53.9678 21.1741 54.2328 21.5254C54.3291 21.6531 54.4167 21.7415 54.4955 21.7907C54.5702 21.8345 54.6549 21.8416 54.7495 21.812C54.8388 21.7864 54.9606 21.7154 55.115 21.599L58.7636 18.8473ZM54.8091 14.3784C54.9231 14.2478 54.996 14.1389 55.0278 14.0516C55.0553 13.9694 55.0452 13.8898 54.9974 13.8127C54.9496 13.7357 54.8529 13.6336 54.7072 13.5065L54.2551 13.1121C53.8984 12.8009 53.5115 12.6359 53.0944 12.617C52.673 12.6032 52.2752 12.7296 51.9012 12.996C51.8925 13.0061 51.878 13.0023 51.8579 12.9848C51.8479 12.976 51.8422 12.9622 51.8409 12.9434C51.8303 12.9253 51.8271 12.9137 51.8315 12.9086C52.2799 12.4859 52.6422 12.1163 52.9183 11.7998C52.9533 11.7596 52.9872 11.7361 53.0198 11.7291C53.048 11.7272 53.0847 11.746 53.1299 11.7854L56.6565 14.862C56.6665 14.8708 56.6584 14.8903 56.6321 14.9204C56.6058 14.9505 56.5876 14.9612 56.5776 14.9525C56.4068 14.8035 56.2728 14.7086 56.1755 14.668C56.0732 14.623 55.9788 14.6247 55.8923 14.6731C55.7965 14.7222 55.6828 14.8221 55.5513 14.9728L52.5075 18.4617C52.376 18.6124 52.2947 18.736 52.2635 18.8327C52.2272 18.9249 52.2383 19.0187 52.2968 19.1139C52.3509 19.2142 52.4608 19.3366 52.6266 19.4812C52.6366 19.49 52.6285 19.5095 52.6022 19.5396C52.5759 19.5697 52.5578 19.5804 52.5477 19.5717L52.17 19.2288C51.9577 19.026 51.7812 18.8632 51.6406 18.7404C51.4899 18.609 51.2996 18.4518 51.0698 18.269L50.6865 17.9479C50.6714 17.9347 50.677 17.9131 50.7033 17.8829C50.7296 17.8528 50.7503 17.8443 50.7654 17.8574C50.9311 18.0021 51.0674 18.0944 51.174 18.1344C51.2763 18.1794 51.3754 18.1773 51.4713 18.1283C51.5578 18.0799 51.6667 17.9803 51.7982 17.8296L54.8091 14.3784ZM48.8872 9.27011C49.4412 9.54849 49.8712 9.92502 50.1774 10.3997C50.4745 10.8773 50.6315 11.3964 50.6483 11.9569C50.6561 12.5204 50.5283 13.0643 50.2649 13.5885C49.9566 14.202 49.5383 14.6484 49.01 14.9276C48.4787 15.2128 47.9165 15.3443 47.3232 15.3223C46.724 15.2972 46.1712 15.1575 45.6649 14.903C45.099 14.6186 44.6689 14.2347 44.3747 13.7511C44.0776 13.2735 43.925 12.7603 43.9172 12.2117C43.9034 11.6602 44.0192 11.1401 44.2647 10.6517C44.5371 10.1096 44.93 9.68404 45.4434 9.375C45.9568 9.06596 46.5207 8.90162 47.1349 8.88199C47.7431 8.85936 48.3272 8.98873 48.8872 9.27011ZM48.4756 9.33189C48.1182 9.15229 47.7516 9.08745 47.3759 9.13738C46.9912 9.19028 46.6241 9.36395 46.2747 9.65841C45.9193 9.94988 45.6114 10.3547 45.351 10.873C45.0726 11.427 44.918 11.9648 44.8871 12.4865C44.8473 13.0111 44.9358 13.4809 45.1526 13.8958C45.3635 14.3076 45.6952 14.6273 46.148 14.8548C46.7317 15.1481 47.2862 15.1657 47.8115 14.9073C48.3338 14.655 48.779 14.1624 49.1472 13.4297C49.4345 12.8579 49.6011 12.2962 49.6469 11.7447C49.6898 11.1992 49.6103 10.7116 49.4084 10.2819C49.2035 9.85809 48.8926 9.54143 48.4756 9.33189ZM39.0771 6.29022C39.2344 6.31939 39.4732 6.65863 39.7935 7.30793C40.1073 7.95601 40.4714 8.84397 40.886 9.97183L40.0539 10.0717C39.6613 9.11749 39.3259 8.36707 39.0475 7.82049C38.7627 7.27268 38.4961 6.86388 38.2478 6.59408C37.9995 6.32427 37.7409 6.16445 37.4722 6.11461C37.4591 6.11217 37.4562 6.09129 37.4635 6.05196C37.4708 6.01263 37.481 5.99419 37.4941 5.99662L39.0771 6.29022ZM40.3211 12.908C39.7377 12.7998 39.3088 12.6084 39.0343 12.3337C38.7598 12.0591 38.659 11.7251 38.7319 11.3318C38.7915 11.0106 38.9496 10.7247 39.2063 10.4739C39.4552 10.2285 39.7594 10.051 40.1187 9.94139C40.4715 9.83053 40.8249 9.80793 41.1789 9.87358C41.4148 9.91735 41.5814 9.95162 41.6785 9.97642L42.1052 7.67565C42.1429 7.47245 42.1539 7.32193 42.1381 7.22408C42.1224 7.12623 42.0684 7.0518 41.9761 7.00079C41.8773 6.94857 41.7132 6.90118 41.4838 6.85863C41.4707 6.8562 41.4678 6.83532 41.4751 6.79599C41.4824 6.75666 41.4926 6.73821 41.5057 6.74064C41.722 6.78076 41.8918 6.81565 42.0151 6.8453L42.7311 6.98825L43.4408 7.10972C43.5666 7.12626 43.7376 7.1546 43.9539 7.19472C43.9736 7.19836 43.9798 7.21985 43.9725 7.25918C43.9652 7.29851 43.9517 7.31635 43.932 7.3127C43.7092 7.27137 43.5455 7.25797 43.4411 7.27251C43.3302 7.28583 43.2465 7.33473 43.1902 7.4192C43.1326 7.51023 43.0856 7.65407 43.0491 7.85072L42.2048 12.4031C42.1683 12.5997 42.1612 12.7476 42.1836 12.8466C42.1993 12.9445 42.2566 13.0195 42.3554 13.0718C42.453 13.1305 42.6099 13.18 42.8262 13.2201C42.8393 13.2225 42.8422 13.2434 42.8349 13.2827C42.8277 13.3221 42.8175 13.3405 42.8043 13.3381L42.2949 13.2334C42.0089 13.1668 41.7774 13.1171 41.6004 13.0843C41.4038 13.0478 41.1955 13.0194 40.9755 12.9989C40.8957 12.9909 40.7994 12.9798 40.6867 12.9657C40.5741 12.9516 40.4522 12.9324 40.3211 12.908ZM39.7728 11.1485C39.6755 11.6729 39.6959 12.0564 39.834 12.299C39.9721 12.5416 40.2017 12.6927 40.5229 12.7522C40.7589 12.796 40.9313 12.7805 41.0401 12.7058C41.1423 12.6298 41.2171 12.464 41.2645 12.2084L41.6274 10.2517C41.475 10.1963 41.2873 10.148 41.0645 10.1066C40.6777 10.0349 40.3893 10.0729 40.1991 10.2207C40.0012 10.3739 39.8591 10.6832 39.7728 11.1485ZM36.3691 5.97272C36.3891 5.97172 36.4001 5.9912 36.4021 6.03115C36.404 6.0711 36.3951 6.09157 36.3751 6.09257C36.1487 6.10386 35.9864 6.12864 35.8882 6.16691C35.7833 6.20551 35.7165 6.27225 35.6879 6.36713C35.6529 6.469 35.6404 6.61981 35.6504 6.81956L35.8809 11.4438C35.8909 11.6436 35.9182 11.7891 35.9628 11.8803C36.0007 11.9718 36.0738 12.0316 36.182 12.0596C36.2905 12.0942 36.4546 12.1061 36.6744 12.0951C36.6943 12.0941 36.7053 12.1136 36.7073 12.1535C36.7093 12.1935 36.7003 12.214 36.6803 12.215L32.5255 12.4221C32.4589 12.4254 32.4241 12.3971 32.4211 12.3372L32.3364 11.0398C32.3358 11.0265 32.3552 11.0155 32.3949 11.0069C32.4282 11.0052 32.4486 11.0142 32.4563 11.0338C32.6536 11.7783 33.1318 12.1316 33.8908 12.0937L34.3003 12.0733C34.5467 12.061 34.7177 12.0091 34.8132 11.9176C34.9021 11.8264 34.9414 11.6776 34.9311 11.4711L34.7036 6.90682C34.6926 6.68709 34.645 6.53594 34.5608 6.45336C34.4699 6.37112 34.3179 6.33531 34.1049 6.34593L33.6155 6.37033C32.7233 6.41482 32.1787 6.87251 31.9818 7.74339C31.9825 7.75671 31.9662 7.7642 31.9329 7.76586C31.8863 7.76818 31.8625 7.75935 31.8615 7.73938C31.9028 7.23002 31.9131 6.7656 31.8921 6.34612C31.8895 6.29286 31.8975 6.25241 31.9161 6.22478C31.9351 6.20381 31.9746 6.19183 32.0345 6.18884L36.3691 5.97272ZM32.7063 8.41815C32.7349 8.99077 33.122 9.25849 33.8678 9.22131L35.266 9.15159L35.279 9.41127L33.8707 9.48148C33.1383 9.518 32.7844 9.78262 32.8089 10.2753C32.8099 10.2953 32.7938 10.3061 32.7605 10.3078C32.7206 10.3098 32.7001 10.3008 32.6991 10.2808L32.6657 9.4114L32.6324 8.94248C32.6084 8.73008 32.5931 8.55729 32.5865 8.42413C32.5858 8.41081 32.6055 8.40315 32.6454 8.40116C32.6854 8.39917 32.7057 8.40483 32.7063 8.41815ZM28.9823 13.0005L28.7266 13.0895L26.922 8.65109C26.7876 8.32427 26.619 8.10308 26.4163 7.98751C26.2075 7.87459 25.9716 7.87516 25.7086 7.9892C25.6902 7.99715 25.6731 7.98278 25.6572 7.94608C25.6413 7.90938 25.6425 7.88706 25.6608 7.8791C25.826 7.80749 25.9557 7.75486 26.0501 7.72119L26.5587 7.51157L27.0961 7.26769C27.1852 7.22179 27.3123 7.16304 27.4774 7.09143C27.4958 7.08348 27.5129 7.09785 27.5288 7.13455C27.5447 7.17124 27.5435 7.19357 27.5252 7.20153C27.2744 7.31026 27.1188 7.47943 27.0585 7.70904C26.9921 7.9413 27.0261 8.22084 27.1606 8.54766L28.9823 13.0005ZM20.2313 10.3641C20.2191 10.3694 20.205 10.3537 20.1891 10.317C20.1732 10.2803 20.1713 10.2593 20.1836 10.254C20.3854 10.1665 20.5488 10.0993 20.6738 10.0524L21.3383 9.77512L21.9766 9.48748C22.084 9.43362 22.2387 9.36294 22.4405 9.27542C22.4528 9.27011 22.4668 9.28581 22.4827 9.32251C22.4987 9.35921 22.5005 9.38021 22.4883 9.38551C22.2864 9.47303 22.1432 9.5533 22.0586 9.62632C21.9766 9.70545 21.9389 9.79446 21.9455 9.89335C21.952 9.99224 22.0012 10.1308 22.093 10.309L24.1037 14.4183L23.9745 15.2263L23.9363 8.70314C23.9379 8.67337 23.9571 8.65053 23.9938 8.63462C24.0244 8.62136 24.0572 8.62166 24.0923 8.63551L28.7069 12.4659C28.9151 12.6445 29.1121 12.7552 29.2979 12.7982C29.4837 12.8412 29.6683 12.8229 29.8518 12.7434C29.8701 12.7354 29.8873 12.7498 29.9032 12.7865C29.9191 12.8232 29.9179 12.8455 29.8995 12.8534L29.501 13.0153C29.4189 13.0437 29.3136 13.0857 29.1851 13.1414L28.7671 13.3336C28.7147 13.3636 28.6518 13.3945 28.5784 13.4263C28.4989 13.4608 28.4214 13.458 28.3459 13.4181C28.2731 13.3843 28.141 13.289 27.9495 13.1322L24.1308 9.98125L24.223 9.11292L24.2127 15.0468C24.2131 15.1483 24.1986 15.2236 24.169 15.2728C24.1421 15.3281 24.0981 15.3689 24.0369 15.3955C23.9941 15.414 23.9377 15.4348 23.8678 15.4579C23.7978 15.481 23.714 15.5137 23.6161 15.5561L23.1246 15.7801C23.0478 15.8207 22.9329 15.8742 22.78 15.9405C22.7616 15.9484 22.7445 15.9341 22.7286 15.8974C22.7127 15.8607 22.7139 15.8383 22.7322 15.8304C23.0197 15.7057 23.2069 15.5592 23.2937 15.3907C23.377 15.2311 23.3596 15.0316 23.2412 14.7922L21.2214 10.6869C21.127 10.5026 21.0428 10.3756 20.969 10.3059C20.8952 10.2361 20.8057 10.2059 20.7007 10.2151C20.5957 10.2243 20.4393 10.274 20.2313 10.3641ZM16.2664 13.2045C16.7331 12.7963 17.244 12.54 17.799 12.4354C18.3535 12.3402 18.8934 12.3905 19.4189 12.5863C19.9438 12.7916 20.3993 13.115 20.7855 13.5566C21.2376 14.0735 21.4933 14.6292 21.5527 15.2237C21.6165 15.8233 21.5264 16.3937 21.2823 16.9348C21.0332 17.4804 20.6953 17.9397 20.2688 18.3127C19.792 18.7297 19.2742 18.9832 18.7154 19.0734C18.161 19.1685 17.6283 19.1163 17.1172 18.9168C16.6011 18.7216 16.1631 18.4183 15.8032 18.0068C15.4039 17.5501 15.1578 17.0257 15.0652 16.4337C14.9725 15.8416 15.0329 15.2574 15.2463 14.6812C15.4546 14.1093 15.7947 13.617 16.2664 13.2045ZM16.1685 13.609C15.8674 13.8723 15.6691 14.1874 15.5737 14.5542C15.4776 14.9305 15.5001 15.336 15.6411 15.7706C15.7771 16.2097 16.036 16.6475 16.4178 17.0841C16.8259 17.5508 17.2658 17.8968 17.7373 18.122C18.2082 18.3567 18.6767 18.4518 19.1427 18.4074C19.6036 18.3674 20.0248 18.1807 20.4062 17.8471C20.898 17.417 21.1233 16.91 21.0821 16.3261C21.0452 15.7473 20.7569 15.1492 20.2171 14.532C19.7958 14.0502 19.3384 13.6841 18.8449 13.4338C18.3557 13.1884 17.8741 13.0782 17.4 13.1032C16.9303 13.1332 16.5197 13.3018 16.1685 13.609ZM9.80032 21.153C9.887 21.0185 10.2915 20.9262 11.0138 20.8762C11.7324 20.8319 12.6922 20.8318 13.893 20.8761L13.6697 21.684C12.6379 21.6851 11.8163 21.7108 11.205 21.7609C10.59 21.8167 10.1106 21.9082 9.7668 22.0356C9.42297 22.1629 9.177 22.3415 9.02892 22.5712C9.02169 22.5824 9.00127 22.5772 8.96765 22.5555C8.93403 22.5339 8.92083 22.5174 8.92806 22.5062L9.80032 21.153ZM16.3953 22.5129C16.0739 23.0116 15.734 23.3358 15.3757 23.4856C15.0174 23.6354 14.6702 23.6019 14.334 23.3852C14.0594 23.2082 13.8548 22.9534 13.7202 22.6208C13.5876 22.2974 13.5388 21.9486 13.5737 21.5745C13.605 21.2061 13.7182 20.8705 13.9132 20.5679C14.0432 20.3662 14.1381 20.2251 14.1979 20.1447L12.2311 18.8769C12.0574 18.765 11.9223 18.6977 11.8258 18.6751C11.7293 18.6526 11.6399 18.6743 11.5577 18.7403C11.4719 18.8119 11.3658 18.9458 11.2394 19.1419C11.2321 19.1531 11.2117 19.1479 11.1781 19.1262C11.1445 19.1045 11.1313 19.0881 11.1385 19.0769C11.2577 18.892 11.3544 18.7481 11.4286 18.6452L11.8325 18.0371L12.2142 17.4265C12.2772 17.3164 12.3683 17.1689 12.4875 16.984C12.4984 16.9672 12.5206 16.9696 12.5542 16.9913C12.5878 17.0129 12.5992 17.0322 12.5884 17.049C12.4656 17.2395 12.3911 17.3858 12.365 17.4879C12.3352 17.5957 12.3487 17.6916 12.4055 17.7758C12.4678 17.8636 12.5831 17.9617 12.7512 18.07L16.6428 20.5785C16.8109 20.6868 16.945 20.7495 17.0451 20.7664C17.1417 20.789 17.2328 20.7644 17.3186 20.6928C17.41 20.6248 17.5153 20.4984 17.6345 20.3135C17.6417 20.3023 17.6622 20.3075 17.6958 20.3292C17.7294 20.3509 17.7426 20.3673 17.7354 20.3785L17.4453 20.8101C17.2751 21.0495 17.1413 21.2448 17.0438 21.3961C16.9354 21.5642 16.8301 21.7461 16.7277 21.9419C16.6899 22.0127 16.6432 22.0976 16.5874 22.1965C16.5316 22.2953 16.4676 22.4008 16.3953 22.5129ZM14.5593 22.3526C15.0076 22.6416 15.3702 22.7682 15.647 22.7325C15.9238 22.6968 16.1507 22.5416 16.3277 22.267C16.4577 22.0653 16.5088 21.8999 16.4809 21.7709C16.4494 21.6475 16.3244 21.5154 16.1059 21.3745L14.4333 20.2964C14.3242 20.4164 14.2082 20.5717 14.0854 20.7622C13.8723 21.0928 13.7981 21.3741 13.8627 21.6061C13.9293 21.8473 14.1615 22.0962 14.5593 22.3526ZM8.47732 23.5452C8.48394 23.5263 8.50612 23.5235 8.54387 23.5367C8.58161 23.55 8.59718 23.566 8.59056 23.5849C8.51556 23.7988 8.47724 23.9584 8.47561 24.0638C8.47177 24.1755 8.50838 24.2625 8.58542 24.3249C8.66655 24.3957 8.80149 24.4642 8.99022 24.5304L13.3594 26.0624C13.5482 26.1286 13.6932 26.1582 13.7945 26.1514C13.8936 26.1508 13.9765 26.1057 14.0433 26.016C14.1163 25.9286 14.1892 25.7811 14.262 25.5735C14.2686 25.5546 14.2908 25.5518 14.3286 25.565C14.3663 25.5783 14.3819 25.5943 14.3753 25.6132L12.9988 29.5389C12.9767 29.6018 12.9374 29.6233 12.8808 29.6035L11.6474 29.1922C11.6348 29.1878 11.632 29.1656 11.6389 29.1256C11.6499 29.0942 11.666 29.0786 11.6871 29.0789C12.4509 29.1772 12.9586 28.8678 13.21 28.1506L13.3457 27.7637C13.4273 27.5309 13.4438 27.353 13.3951 27.23C13.3442 27.1132 13.2212 27.0206 13.0262 26.9523L8.71363 25.4401C8.50602 25.3673 8.34809 25.3543 8.23983 25.4011C8.12937 25.4542 8.03884 25.5815 7.96826 25.7828L7.80612 26.2452C7.51053 27.0882 7.72881 27.7652 8.46095 28.2763C8.47353 28.2807 8.47431 28.2986 8.46328 28.3301C8.44784 28.3741 8.43068 28.3928 8.41181 28.3862C7.95574 28.1556 7.52954 27.9709 7.13319 27.8319C7.08287 27.8142 7.04843 27.7916 7.02988 27.7639C7.01762 27.7384 7.02142 27.6973 7.04128 27.6407L8.47732 23.5452ZM9.35927 27.8601C9.90031 28.0498 10.2944 27.7923 10.5414 27.0877L11.0047 25.7666L11.25 25.8526L10.7835 27.1832C10.5408 27.8752 10.6523 28.3028 11.1178 28.4661C11.1367 28.4727 11.1406 28.4917 11.1296 28.5232C11.1163 28.5609 11.1003 28.5765 11.0814 28.5699L10.2637 28.2726L9.81689 28.1265C9.61116 28.0685 9.44539 28.0174 9.31956 27.9733C9.30698 27.9689 9.30731 27.9478 9.32054 27.9101C9.33378 27.8723 9.34669 27.8556 9.35927 27.8601ZM8.13621 32.0495C8.13069 32.0357 8.15838 32.0247 8.21929 32.0164C8.27964 32.0148 8.34303 32.0168 8.40946 32.0224C8.5556 32.0348 8.63116 32.0512 8.63612 32.0717L8.80493 34.2335C8.81045 34.2474 8.78636 34.2554 8.73266 34.2575C8.67839 34.2663 8.62137 34.2682 8.56158 34.2632C8.50179 34.2581 8.44589 34.2467 8.39386 34.2289C8.34128 34.2178 8.31223 34.2053 8.3067 34.1915L8.13621 32.0495ZM6.04589 38.1192C6.0425 38.0995 6.06051 38.0862 6.09993 38.0794C6.13935 38.0727 6.16076 38.0791 6.16415 38.0988C6.20256 38.3222 6.24667 38.4804 6.29647 38.5733C6.3474 38.6727 6.42168 38.731 6.51931 38.748C6.62464 38.7705 6.77586 38.7648 6.97297 38.7309L11.536 37.9462C11.7331 37.9123 11.8743 37.8678 11.9595 37.8125C12.0458 37.7639 12.0963 37.6841 12.1111 37.5734C12.1325 37.4615 12.1245 37.2971 12.0872 37.0803C12.0838 37.0606 12.1018 37.0473 12.1413 37.0406C12.1807 37.0338 12.2021 37.0402 12.2055 37.0599L12.9105 41.1598C12.9218 41.2255 12.8979 41.2634 12.8387 41.2736L11.5609 41.5136C11.5478 41.5159 11.5346 41.4978 11.5212 41.4596C11.5156 41.4267 11.522 41.4053 11.5406 41.3953C12.2559 41.11 12.5492 40.5928 12.4204 39.8438L12.3509 39.4397C12.3091 39.1966 12.237 39.0331 12.1346 38.9493C12.0334 38.872 11.881 38.8509 11.6773 38.8859L7.17339 39.6604C6.95658 39.6977 6.81224 39.7631 6.74038 39.8566C6.66966 39.9567 6.65237 40.1119 6.68853 40.3221L6.77157 40.805C6.92297 41.6854 7.44279 42.171 8.33102 42.2618C8.34416 42.2596 8.35355 42.2749 8.3592 42.3077C8.36711 42.3537 8.36121 42.3784 8.3415 42.3818C7.83087 42.4019 7.36859 42.4476 6.95466 42.5188C6.9021 42.5278 6.86098 42.5248 6.83131 42.5096C6.80821 42.4932 6.79158 42.4555 6.78141 42.3964L6.04589 38.1192ZM8.91381 41.4615C9.47885 41.3643 9.6981 40.9478 9.57156 40.2119L9.33429 38.8322L9.59053 38.7881L9.82949 40.1777C9.95377 40.9004 10.259 41.22 10.7452 41.1364C10.7649 41.133 10.7776 41.1477 10.7833 41.1806C10.79 41.22 10.7836 41.2414 10.7639 41.2448L9.90474 41.3824L9.44324 41.4719C9.23525 41.5212 9.06555 41.5571 8.93415 41.5797C8.92101 41.582 8.91105 41.5634 8.90427 41.524C8.89749 41.4846 8.90067 41.4637 8.91381 41.4615ZM8.69123 47.6159C8.68349 47.5975 8.69805 47.5805 8.73493 47.565C8.77181 47.5495 8.79413 47.551 8.80187 47.5694C8.90255 47.8091 9.00513 47.9071 9.10962 47.8632C9.16494 47.8399 9.22094 47.7839 9.27761 47.695L12.5242 42.9258C12.7126 42.6514 12.8286 42.4111 12.8721 42.2048C12.9182 42.0047 12.9026 41.8124 12.8251 41.628C12.8174 41.6096 12.8319 41.5926 12.8688 41.5772C12.9057 41.5617 12.928 41.5631 12.9358 41.5816L13.0853 41.9635C13.1453 42.1407 13.1921 42.2693 13.2256 42.3492C13.3134 42.5582 13.4305 42.8199 13.5771 43.1344L13.7993 43.6376C13.8044 43.6499 13.7886 43.6638 13.7517 43.6793C13.7148 43.6948 13.6938 43.6964 13.6886 43.6841C13.637 43.5612 13.586 43.4741 13.5356 43.423C13.4913 43.3693 13.4385 43.3553 13.377 43.3811C13.3155 43.4069 13.2565 43.4643 13.1998 43.5532L9.91727 48.3917C9.75082 48.6496 9.64891 48.8804 9.61153 49.0841C9.5803 49.2852 9.61245 49.4995 9.70796 49.7269C9.71571 49.7453 9.70114 49.7623 9.66426 49.7778C9.62738 49.7933 9.60507 49.7918 9.59732 49.7733C9.52504 49.6012 9.47261 49.4678 9.44004 49.373L9.2208 48.8252L8.89793 48.0822C8.84532 47.9742 8.77642 47.8187 8.69123 47.6159ZM7.1501 43.9464C7.14236 43.9279 7.15692 43.911 7.1938 43.8955C7.23068 43.88 7.253 43.8815 7.26074 43.8999C7.34335 44.0966 7.5267 44.2835 7.81079 44.4607C8.10102 44.6352 8.48733 44.7803 8.96971 44.8959L11.1443 45.4251L11.0864 45.623L9.04125 45.1695C8.6523 45.087 8.37177 45.0819 8.19967 45.1542C8.08903 45.2007 8.02105 45.2798 7.99572 45.3917C7.9704 45.5036 7.99258 45.6425 8.06228 45.8084C8.06745 45.8207 8.05159 45.8346 8.01471 45.8501C7.97783 45.8656 7.95681 45.8672 7.95164 45.8549C7.86904 45.6582 7.80886 45.5063 7.77113 45.3992L7.50155 44.7315L7.31421 44.3113C7.27708 44.2401 7.22238 44.1185 7.1501 43.9464ZM11.3523 45.533L13.3712 45.9758C13.7689 46.0618 14.06 46.0661 14.2444 45.9887C14.4779 45.8906 14.525 45.6756 14.3856 45.3437C14.3804 45.3314 14.3963 45.3175 14.4332 45.302C14.4701 45.2865 14.4911 45.2849 14.4962 45.2972L14.6768 45.7528C14.7677 46.0039 14.8545 46.2277 14.9371 46.4244C14.9888 46.5473 15.0543 46.6861 15.1337 46.8408L15.2978 47.2057C15.3055 47.2241 15.291 47.2411 15.2541 47.2566C15.2172 47.2721 15.1949 47.2706 15.1872 47.2522C15.102 47.0493 14.9099 46.8589 14.6109 46.6807C14.3181 46.5 13.9244 46.3545 13.4297 46.2441L11.2944 45.7308L11.3523 45.533ZM11.9243 51.736C11.7516 51.8614 11.6386 51.9723 11.5851 52.0689C11.5409 52.1669 11.5438 52.2842 11.5937 52.421C11.6475 52.5632 11.7645 52.7584 11.9447 53.0065C11.9565 53.0227 11.9462 53.0425 11.9138 53.066C11.8815 53.0895 11.8594 53.0932 11.8476 53.077C11.687 52.8559 11.5644 52.6813 11.4797 52.5533L10.9765 51.8435L10.5453 51.2668C10.4655 51.1682 10.3609 51.0299 10.2317 50.8519C10.2199 50.8357 10.2302 50.8159 10.2626 50.7924C10.2949 50.7689 10.317 50.7652 10.3287 50.7814C10.4619 50.9648 10.5714 51.0872 10.6571 51.1485C10.7468 51.2152 10.8392 51.2346 10.9343 51.2068C11.0387 51.1804 11.1718 51.1084 11.3336 50.9909L15.0799 48.2701C15.2417 48.1526 15.3486 48.0502 15.4007 47.963C15.4566 47.8812 15.4667 47.7873 15.431 47.6814C15.4007 47.5716 15.3209 47.4277 15.1916 47.2497C15.1798 47.2335 15.1902 47.2137 15.2225 47.1902C15.2549 47.1667 15.2769 47.163 15.2887 47.1792L15.5862 47.6058C15.7478 47.851 15.8814 48.0464 15.9872 48.1921C16.0773 48.3161 16.1951 48.4613 16.3406 48.6275C16.393 48.6883 16.461 48.7707 16.5448 48.8747C16.6324 48.9841 16.7311 49.1143 16.8408 49.2653C17.2247 49.7939 17.417 50.2969 17.4177 50.7743C17.4184 51.2517 17.184 51.6609 16.7147 52.0017C16.3749 52.2485 16.0217 52.3691 15.6551 52.3634C15.2924 52.3632 14.9518 52.2686 14.6333 52.0797C14.3188 51.8962 14.0577 51.6615 13.85 51.3756C13.7403 51.2245 13.6598 51.0853 13.6084 50.9578C13.6006 50.947 13.6102 50.9318 13.6371 50.9123C13.6533 50.9005 13.6714 50.8914 13.6915 50.8851C13.7156 50.8841 13.7288 50.891 13.7312 50.9057C13.7684 51.0023 13.8262 51.1045 13.9045 51.2124C14.1083 51.4929 14.3966 51.646 14.7696 51.6718C15.1426 51.6975 15.5448 51.5537 15.9764 51.2402C16.4025 50.9308 16.6591 50.592 16.7461 50.224C16.8424 49.8574 16.7613 49.4961 16.5027 49.1401C16.4087 49.0106 16.3227 48.9206 16.2448 48.8701C16.1708 48.825 16.0863 48.8163 15.9912 48.8442C15.9015 48.8681 15.7784 48.9369 15.622 49.0505L11.9243 51.736ZM15.8115 56.2773C15.6957 56.4063 15.6213 56.5142 15.5882 56.601C15.5596 56.6828 15.5687 56.7626 15.6154 56.8403C15.6621 56.918 15.7574 57.0214 15.9013 57.1505L16.3479 57.5512C16.7002 57.8673 17.0848 58.0377 17.5015 58.0623C17.9228 58.082 18.3222 57.9612 18.6999 57.6999C18.7088 57.69 18.7232 57.6939 18.743 57.7117C18.753 57.7207 18.7584 57.7345 18.7595 57.7533C18.7699 57.7717 18.7729 57.7833 18.7684 57.7883C18.3142 58.2047 17.9468 58.5693 17.6663 58.8819C17.6307 58.9216 17.5966 58.9447 17.5639 58.9512C17.5356 58.9527 17.4992 58.9334 17.4545 58.8934L13.971 55.7681C13.9611 55.7592 13.9695 55.7398 13.9962 55.71C14.0229 55.6803 14.0412 55.6698 14.0512 55.6787C14.2199 55.8301 14.3526 55.9268 14.4493 55.9687C14.5509 56.0152 14.6453 56.0148 14.7325 55.9676C14.829 55.9198 14.9441 55.8215 15.0776 55.6727L18.1696 52.2264C18.3031 52.0775 18.3862 51.955 18.4187 51.8588C18.4562 51.7671 18.4464 51.6732 18.3893 51.5771C18.3366 51.4761 18.2284 51.3522 18.0646 51.2053C18.0547 51.1964 18.0631 51.177 18.0898 51.1472C18.1165 51.1175 18.1349 51.107 18.1448 51.1159L18.5177 51.464C18.7271 51.6698 18.9013 51.835 19.0403 51.9597C19.1891 52.0932 19.3772 52.253 19.6044 52.439L19.9833 52.7654C19.9982 52.7788 19.9923 52.8003 19.9656 52.8301C19.9388 52.8599 19.918 52.8681 19.9032 52.8547C19.7394 52.7078 19.6045 52.6136 19.4984 52.5722C19.3967 52.5257 19.2976 52.5264 19.2011 52.5741C19.1139 52.6213 19.0036 52.7194 18.87 52.8682L15.8115 56.2773ZM21.6445 61.4745C21.0956 61.1863 20.6723 60.8022 20.3746 60.3222C20.086 59.8393 19.9383 59.3175 19.9315 58.7568C19.9337 58.1932 20.0712 57.6517 20.3439 57.1323C20.663 56.5243 21.0892 56.0855 21.6224 55.8157C22.1586 55.5401 22.7231 55.4185 23.3159 55.4511C23.9146 55.4869 24.4648 55.6364 24.9665 55.8998C25.5273 56.1942 25.9504 56.5858 26.236 57.0745C26.5246 57.5574 26.668 58.0731 26.666 58.6218C26.67 59.1735 26.545 59.6914 26.2909 60.1754C26.0089 60.7125 25.6084 61.131 25.0896 61.4309C24.5708 61.7308 24.0041 61.885 23.3896 61.8937C22.7811 61.9056 22.1994 61.7658 21.6445 61.4745ZM22.0571 61.4201C22.4113 61.606 22.7766 61.6773 23.1532 61.6341C23.5388 61.5881 23.9089 61.4209 24.2635 61.1327C24.624 60.8476 24.9391 60.4483 25.2087 59.9348C25.4969 59.3859 25.661 58.8508 25.7012 58.3298C25.7503 57.8059 25.6702 57.3347 25.4608 56.916C25.2573 56.5005 24.9313 56.175 24.4827 55.9394C23.9042 55.6358 23.3501 55.6084 22.8203 55.8573C22.2937 56.1004 21.8397 56.5849 21.4586 57.3109C21.1611 57.8776 20.9845 58.4362 20.9289 58.9868C20.8764 59.5314 20.9472 60.0204 21.1414 60.4536C21.3387 60.881 21.6439 61.2031 22.0571 61.4201ZM31.3832 64.6432C31.2265 64.6107 30.995 64.2665 30.6885 63.6105C30.3886 62.9559 30.0434 62.0604 29.6529 60.924L30.487 60.8418C30.8592 61.8042 31.1786 62.5615 31.4452 63.1139C31.7184 63.6677 31.9762 64.082 32.2187 64.3571C32.4613 64.6321 32.7163 64.7974 32.984 64.8529C32.997 64.8556 32.9995 64.8766 32.9913 64.9157C32.9832 64.9549 32.9726 64.9731 32.9596 64.9704L31.3832 64.6432ZM30.2801 58.0004C30.861 58.121 31.2858 58.3215 31.5544 58.602C31.823 58.8824 31.9167 59.2184 31.8354 59.6101C31.769 59.93 31.6049 60.2125 31.3429 60.4577C31.0888 60.6977 30.781 60.8687 30.4194 60.9707C30.0643 61.0741 29.7105 61.0891 29.358 61.016C29.123 60.9672 28.9573 60.9294 28.8607 60.9026L28.3852 63.1937C28.3432 63.3961 28.329 63.5463 28.3427 63.6445C28.3563 63.7427 28.4087 63.8182 28.4999 63.8712C28.5976 63.9255 28.7606 63.9764 28.9891 64.0238C29.0021 64.0265 29.0046 64.0474 28.9965 64.0866C28.9883 64.1258 28.9778 64.144 28.9647 64.1413C28.7493 64.0966 28.5803 64.0581 28.4576 64.0258L27.7448 63.8677L27.0378 63.7311C26.9125 63.7119 26.7421 63.68 26.5267 63.6353C26.5071 63.6312 26.5013 63.6096 26.5095 63.5704C26.5176 63.5312 26.5315 63.5137 26.551 63.5178C26.773 63.5638 26.9363 63.5807 27.041 63.5684C27.1522 63.5574 27.2369 63.5103 27.295 63.4271C27.3545 63.3373 27.4046 63.1945 27.4452 62.9986L28.3861 58.4652C28.4267 58.2694 28.437 58.1218 28.4168 58.0222C28.4031 57.9241 28.3474 57.8478 28.2498 57.7935C28.1534 57.7327 27.9976 57.6799 27.7822 57.6352C27.7691 57.6325 27.7667 57.6116 27.7748 57.5724C27.7829 57.5332 27.7935 57.515 27.8066 57.5177L28.3137 57.6332C28.5982 57.7058 28.8286 57.7605 29.0048 57.797C29.2006 57.8377 29.4083 57.8706 29.6278 57.8957C29.7074 57.9054 29.8034 57.9185 29.9158 57.935C30.0281 57.9515 30.1495 57.9733 30.2801 58.0004ZM30.7909 59.7712C30.8993 59.249 30.887 58.8652 30.7541 58.6197C30.6212 58.3742 30.3949 58.2183 30.075 58.1519C29.84 58.1032 29.6673 58.115 29.557 58.1874C29.4532 58.2612 29.3748 58.4253 29.322 58.6799L28.9176 60.6284C29.0688 60.687 29.2554 60.7394 29.4774 60.7854C29.8625 60.8654 30.1517 60.8335 30.3449 60.6897C30.546 60.5408 30.6947 60.2347 30.7909 59.7712ZM34.097 65.0158C34.077 65.0165 34.0664 64.9968 34.0651 64.9569C34.0638 64.9169 34.0731 64.8966 34.0931 64.8959C34.3196 64.8884 34.4823 64.8664 34.5812 64.8298C34.6867 64.7929 34.7545 64.7273 34.7848 64.6329C34.8215 64.5317 34.8365 64.3811 34.8299 64.1812L34.6773 59.5537C34.6707 59.3538 34.6458 59.2079 34.6028 59.1159C34.5664 59.0238 34.4943 58.9628 34.3866 58.933C34.2787 58.8965 34.1148 58.8819 33.8949 58.8892C33.8749 58.8898 33.8643 58.8702 33.863 58.8302C33.8616 58.7902 33.871 58.7699 33.891 58.7692L38.0487 58.6321C38.1153 58.6299 38.1496 58.6588 38.1516 58.7187L38.2145 60.0174C38.2149 60.0307 38.1952 60.0413 38.1555 60.0493C38.1222 60.0504 38.1019 60.0411 38.0945 60.0213C37.9098 59.2737 37.4376 58.9124 36.678 58.9374L36.2682 58.9509C36.0217 58.9591 35.8499 59.0081 35.7528 59.098C35.6624 59.1877 35.6206 59.3358 35.6274 59.5424L35.7781 64.1099C35.7853 64.3298 35.8304 64.4817 35.9132 64.5657C36.0027 64.6495 36.154 64.6878 36.3672 64.6808L36.857 64.6646C37.7498 64.6352 38.302 64.1867 38.5135 63.3193C38.5131 63.306 38.5295 63.2988 38.5628 63.2977C38.6095 63.2961 38.6331 63.3053 38.6338 63.3253C38.5838 63.8339 38.5658 64.2981 38.5797 64.7179C38.5814 64.7712 38.5727 64.8115 38.5536 64.8388C38.5343 64.8594 38.4946 64.8708 38.4347 64.8727L34.097 65.0158ZM37.8005 62.6324C37.7816 62.0594 37.399 61.7852 36.6527 61.8098L35.2535 61.856L35.2449 61.5961L36.6541 61.5496C37.3871 61.5255 37.7454 61.2668 37.7291 60.7738C37.7285 60.7538 37.7448 60.7432 37.7781 60.7421C37.8181 60.7408 37.8384 60.7502 37.8391 60.7701L37.8578 61.64L37.8833 62.1094C37.9036 62.3222 37.916 62.4952 37.9204 62.6285C37.9208 62.6418 37.9011 62.6491 37.8611 62.6504C37.8211 62.6518 37.8009 62.6458 37.8005 62.6324ZM43.6593 57.4683L43.9074 57.3599L46.0469 61.6469C46.206 61.9625 46.391 62.1701 46.602 62.2698C46.8189 62.3664 47.054 62.3477 47.3075 62.2138C47.3252 62.2045 47.3434 62.2175 47.3621 62.2529C47.3808 62.2883 47.3813 62.3106 47.3636 62.32C47.2044 62.404 47.079 62.4664 46.9875 62.5072L46.4965 62.7552L45.9794 63.0396C45.8941 63.0922 45.7719 63.1605 45.6127 63.2446C45.595 63.2539 45.5768 63.2409 45.5582 63.2055C45.5395 63.1701 45.539 63.1478 45.5567 63.1385C45.7984 63.0108 45.9405 62.8302 45.983 62.5967C46.0314 62.36 45.9761 62.0839 45.817 61.7683L43.6593 57.4683ZM52.5866 59.426C52.5984 59.4198 52.6137 59.4344 52.6324 59.4698C52.651 59.5051 52.6545 59.5259 52.6427 59.5321C52.4481 59.6349 52.2904 59.7144 52.1693 59.7708L51.528 60.0982L50.9137 60.4339C50.8107 60.4958 50.6619 60.5782 50.4674 60.6809C50.4556 60.6871 50.4403 60.6725 50.4217 60.6372C50.403 60.6018 50.3995 60.581 50.4113 60.5748C50.6059 60.472 50.7425 60.381 50.8213 60.3018C50.8969 60.2166 50.9277 60.1249 50.9136 60.0268C50.8995 59.9287 50.8398 59.7944 50.7346 59.6237L48.4149 55.6807L48.4818 54.8651L49.0198 61.3661C49.0205 61.396 49.0032 61.4202 48.9678 61.4389C48.9383 61.4544 48.9056 61.4567 48.8695 61.4455L43.9748 57.9802C43.7535 57.8181 43.5486 57.7227 43.3601 57.6941C43.1716 57.6655 42.9889 57.6979 42.8121 57.7913C42.7944 57.8006 42.7762 57.7876 42.7575 57.7522C42.7389 57.7169 42.7384 57.6945 42.756 57.6852L43.141 57.4932C43.2207 57.4586 43.3225 57.4087 43.4463 57.3433L43.8484 57.1196C43.8983 57.0857 43.9587 57.0501 44.0294 57.0127C44.106 56.9723 44.1835 56.969 44.2618 57.0031C44.337 57.0312 44.476 57.1161 44.679 57.2577L48.7279 60.1067L48.7026 60.9796L48.258 55.0624C48.2498 54.9612 48.2585 54.8849 48.2842 54.8337C48.3068 54.7765 48.3476 54.7324 48.4066 54.7012C48.4478 54.6794 48.5024 54.6544 48.5704 54.626C48.6383 54.5977 48.7195 54.5586 48.8138 54.5088L49.2867 54.2478C49.3602 54.2014 49.4706 54.1393 49.618 54.0615C49.6357 54.0521 49.6539 54.0652 49.6726 54.1005C49.6912 54.1359 49.6917 54.1583 49.674 54.1676C49.397 54.3139 49.2216 54.4744 49.1479 54.649C49.0771 54.8146 49.1098 55.0121 49.2461 55.2417L51.5747 59.1801C51.683 59.3566 51.7766 59.4768 51.8556 59.5407C51.9345 59.6045 52.026 59.6279 52.13 59.6106C52.234 59.5934 52.3862 59.5319 52.5866 59.426ZM56.3236 56.303C55.8883 56.7445 55.3978 57.038 54.852 57.1833C54.3062 57.3193 53.764 57.309 53.2254 57.1526C52.6868 56.9868 52.2086 56.698 51.7908 56.2861C51.3018 55.8041 51.0056 55.2688 50.9024 54.6803C50.7944 54.0871 50.8421 53.5116 51.0455 52.9539C51.2536 52.3914 51.5565 51.9083 51.9543 51.5048C52.3989 51.0537 52.8965 50.7626 53.4471 50.6313C53.993 50.4954 54.5281 50.508 55.0526 50.6693C55.5817 50.8257 56.0409 51.0958 56.4302 51.4796C56.8623 51.9055 57.1464 52.4102 57.2826 52.9938C57.4188 53.5773 57.4019 54.1644 57.2317 54.7549C57.0662 55.3406 56.7635 55.8567 56.3236 56.303ZM56.3913 55.8923C56.6721 55.6075 56.8465 55.2786 56.9146 54.9057C56.9825 54.5233 56.9301 54.1206 56.7574 53.6976C56.5893 53.2698 56.2987 52.8524 55.8856 52.4452C55.4441 52.01 54.9799 51.6975 54.4929 51.5077C54.0059 51.3085 53.5317 51.2483 53.0703 51.327C52.6136 51.401 52.2074 51.6184 51.8517 51.9793C51.393 52.4446 51.2059 52.9668 51.2902 53.5461C51.3698 54.1206 51.7015 54.6957 52.2855 55.2714C52.7413 55.7206 53.2246 56.0519 53.7352 56.265C54.2411 56.4735 54.7296 56.5478 55.2006 56.4878C55.6668 56.4232 56.0637 56.2247 56.3913 55.8923ZM62.1885 47.911C62.1117 48.0514 61.7149 48.1725 60.9981 48.2743C60.2845 48.3702 59.3273 48.4393 58.1264 48.4815L58.291 47.6596C59.3201 47.5843 60.1377 47.4996 60.7438 47.4056C61.3531 47.3058 61.8247 47.18 62.1585 47.0283C62.4923 46.8765 62.7247 46.6807 62.8559 46.4409C62.8623 46.4292 62.8831 46.433 62.9182 46.4522C62.9533 46.4714 62.9676 46.4868 62.9612 46.4985L62.1885 47.911ZM55.5128 47.0289C55.7976 46.5084 56.1132 46.1606 56.4598 45.9854C56.8064 45.8103 57.1551 45.8187 57.5061 46.0106C57.7927 46.1674 58.015 46.4068 58.1732 46.7289C58.3287 47.042 58.4025 47.3863 58.3946 47.7619C58.3899 48.1317 58.3012 48.4745 58.1284 48.7903C58.0132 49.0009 57.9287 49.1484 57.8748 49.233L59.9278 50.356C60.1091 50.4552 60.2487 50.5125 60.3465 50.5281C60.4444 50.5436 60.532 50.5155 60.6092 50.4438C60.6896 50.3662 60.7859 50.2251 60.8978 50.0204C60.9042 50.0087 60.925 50.0124 60.9601 50.0316C60.9952 50.0508 61.0095 50.0663 61.0031 50.078C60.8975 50.271 60.8114 50.4214 60.7448 50.5294L60.3857 51.165L60.0489 51.8015C59.994 51.9158 59.9137 52.0695 59.8081 52.2625C59.7985 52.28 59.7762 52.2792 59.7411 52.26C59.706 52.2408 59.6932 52.2224 59.7028 52.2049C59.8116 52.006 59.8754 51.8547 59.8941 51.751C59.9161 51.6414 59.8957 51.5467 59.833 51.4668C59.7645 51.3837 59.6425 51.2942 59.467 51.1982L55.4051 48.9762C55.2296 48.8802 55.0913 48.8273 54.9903 48.8176C54.8924 48.8021 54.8032 48.8331 54.7228 48.9107C54.6365 48.9851 54.5406 49.1188 54.435 49.3118C54.4286 49.3235 54.4078 49.3197 54.3728 49.3005C54.3377 49.2813 54.3233 49.2659 54.3297 49.2542L54.5881 48.8028C54.7405 48.5518 54.86 48.3474 54.9463 48.1895C55.0423 48.014 55.1343 47.825 55.2224 47.6224C55.2549 47.549 55.2955 47.461 55.344 47.3584C55.3925 47.2557 55.4488 47.1459 55.5128 47.0289ZM57.3556 47.0567C56.8877 46.8008 56.5169 46.7006 56.2434 46.7561C55.9698 46.8116 55.7547 46.9827 55.5979 47.2693C55.4827 47.4798 55.4437 47.6484 55.4808 47.7751C55.5211 47.8959 55.6553 48.0188 55.8834 48.1435L57.6292 49.0986C57.7294 48.971 57.8339 48.8078 57.9426 48.6089C58.1314 48.2639 58.1852 47.9779 58.1041 47.7512C58.0203 47.5154 57.7708 47.2839 57.3556 47.0567ZM63.3369 45.4182C63.3318 45.4376 63.3099 45.4421 63.2712 45.4317C63.2326 45.4214 63.2159 45.4066 63.221 45.3873C63.2795 45.1683 63.3056 45.0062 63.2992 44.901C63.2945 44.7893 63.2514 44.7053 63.1698 44.649C63.0835 44.5846 62.9438 44.5265 62.7506 44.4749L58.2775 43.2798C58.0842 43.2282 57.9374 43.2096 57.8369 43.2242C57.7381 43.2323 57.6589 43.2836 57.5991 43.378C57.5329 43.4708 57.4715 43.6234 57.4147 43.8359C57.4095 43.8553 57.3876 43.8598 57.349 43.8494C57.3103 43.8391 57.2936 43.8243 57.2987 43.805L58.3725 39.7859C58.3897 39.7215 58.4273 39.6971 58.4853 39.7126L59.7464 40.0288C59.7593 40.0322 59.7638 40.0541 59.7599 40.0945C59.7513 40.1267 59.7365 40.1435 59.7154 40.1447C58.9463 40.1049 58.4637 40.452 58.2675 41.1863L58.1617 41.5824C58.098 41.8207 58.0951 41.9994 58.1531 42.1183C58.2127 42.2309 58.3423 42.3138 58.542 42.3672L62.9571 43.5468C63.1697 43.6036 63.3281 43.6045 63.4325 43.5496C63.5386 43.4882 63.6192 43.3545 63.6743 43.1484L63.8008 42.675C64.0313 41.8119 63.7622 41.1535 62.9933 40.6996C62.9804 40.6962 62.9783 40.6784 62.9869 40.6462C62.9989 40.6011 63.0146 40.5811 63.0339 40.5863C63.5062 40.7815 63.9452 40.9333 64.351 41.0417C64.4025 41.0554 64.4386 41.0754 64.4592 41.1016C64.4733 41.1261 64.4727 41.1673 64.4572 41.2253L63.3369 45.4182ZM62.1292 41.183C61.5753 41.035 61.202 41.3217 61.0093 42.043L60.6479 43.3956L60.3967 43.3285L60.7607 41.9663C60.95 41.2578 60.8063 40.8399 60.3297 40.7125C60.3104 40.7074 60.305 40.6887 60.3136 40.6565C60.3239 40.6178 60.3388 40.6011 60.3581 40.6063L61.196 40.8405L61.6527 40.9521C61.8622 40.9943 62.0314 41.0326 62.1602 41.067C62.1731 41.0705 62.1744 41.0915 62.164 41.1302C62.1537 41.1688 62.1421 41.1864 62.1292 41.183ZM63.0414 36.9182C63.0479 36.9316 63.0211 36.9446 62.961 36.9573C62.9009 36.9632 62.8375 36.9659 62.7709 36.9651C62.6242 36.9634 62.5477 36.9526 62.5412 36.9325L62.2155 34.7887C62.209 34.7753 62.2324 34.7655 62.2858 34.7595C62.3393 34.7467 62.396 34.7407 62.456 34.7414C62.516 34.7421 62.5726 34.7494 62.6258 34.7633C62.6791 34.7706 62.7089 34.7809 62.7155 34.7943L63.0414 36.9182Z" fill="black" fill-opacity="0.85"/>
<rect width="31" height="31" transform="translate(20 20)" fill="white"/>
<path d="M29.0415 41.9582L41.9582 29.0415M41.9582 29.0415H29.0415M41.9582 29.0415V41.9582" stroke="#ED7326" stroke-width="2.5" stroke-linecap="round" stroke-linejoin="round"/>
</svg>
