<svg width="79" height="79" viewBox="0 0 79 79" fill="none" xmlns="http://www.w3.org/2000/svg">
<g filter="url(#filter0_d_549_156)">
<circle cx="39.5" cy="35.5" r="35.5" fill="white"/>
</g>
<path d="M68.7075 31.0042C68.7106 31.0172 68.6926 31.0282 68.6537 31.0373C68.6147 31.0464 68.5937 31.0444 68.5907 31.0314C68.5316 30.7782 68.4722 30.597 68.4124 30.4877C68.3512 30.372 68.2706 30.3052 68.1706 30.2875C68.0626 30.2647 67.9112 30.2761 67.7165 30.3216L63.2076 31.374C63.0129 31.4194 62.8754 31.4755 62.7951 31.5421C62.7133 31.6023 62.6705 31.6979 62.6669 31.8288C62.6552 31.9547 62.6789 32.1443 62.738 32.3975C62.741 32.4105 62.7231 32.4215 62.6841 32.4306C62.6452 32.4397 62.6242 32.4378 62.6211 32.4248L61.721 28.5684C61.7074 28.51 61.7298 28.474 61.7882 28.4603L62.962 28.1658C62.9815 28.1613 62.9958 28.1785 63.0049 28.2174C63.0124 28.2499 63.0065 28.2684 62.987 28.2729C62.6559 28.3502 62.4134 28.4992 62.2596 28.72C62.1057 28.9407 62.0621 29.1939 62.1288 29.4796L62.2857 30.1515C62.3432 30.3982 62.4019 30.5762 62.4616 30.6855C62.5214 30.7948 62.602 30.8615 62.7035 30.8858C62.8035 30.9035 62.9508 30.8897 63.1456 30.8442L67.557 29.8145C67.7453 29.7706 67.8803 29.7185 67.9621 29.6584C68.0359 29.5932 68.0762 29.5017 68.0829 29.3837C68.0881 29.2593 68.0611 29.0705 68.002 28.8173L67.7929 27.9214C67.7323 27.6617 67.5672 27.4675 67.2975 27.3387C67.0263 27.2035 66.6997 27.1531 66.3175 27.1875C66.298 27.1921 66.287 27.1741 66.2844 27.1336C66.2753 27.0947 66.2805 27.0729 66.2999 27.0684C66.7226 27.0314 67.1514 26.9621 67.5864 26.8606C67.6383 26.8484 67.6803 26.8523 67.7123 26.8722C67.7363 26.8872 67.7552 26.9238 67.7688 26.9823L68.7075 31.0042ZM65.6076 28.0618C65.3155 28.1299 65.1254 28.2394 65.0373 28.39C64.9492 28.5406 64.9415 28.7717 65.0143 29.0834L65.3643 30.583L65.1793 30.6262L64.8224 29.0973C64.7527 28.7987 64.6556 28.6023 64.5309 28.5082C64.3997 28.4156 64.2108 28.398 63.9641 28.4556C63.9511 28.4587 63.9401 28.4407 63.931 28.4017C63.9219 28.3628 63.9239 28.3418 63.9368 28.3388L64.7084 28.1689C64.8967 28.125 65.0355 28.0892 65.1249 28.0615L65.5803 27.9449C65.5933 27.9419 65.6044 27.9598 65.6134 27.9988C65.6225 28.0377 65.6206 28.0587 65.6076 28.0618ZM65.5122 21.7636C65.5181 21.7756 65.5031 21.7904 65.4671 21.808C65.4312 21.8256 65.4103 21.8284 65.4045 21.8164C65.3164 21.6369 65.2414 21.514 65.1793 21.4479C65.1172 21.3818 65.0562 21.3635 64.9964 21.3928C64.9485 21.4163 64.8988 21.474 64.8474 21.5661L61.8688 26.6453C61.7116 26.9154 61.6233 27.1517 61.6038 27.3543C61.5843 27.5569 61.6274 27.7659 61.733 27.9814C61.7389 27.9934 61.7238 28.0082 61.6879 28.0258C61.652 28.0434 61.6311 28.0462 61.6252 28.0342C61.59 27.9624 61.5403 27.8457 61.476 27.6842L61.3265 27.3565C61.2326 27.165 61.1093 26.9285 60.9565 26.647L60.7186 26.1845C60.7098 26.1665 60.7234 26.1487 60.7593 26.1311C60.7952 26.1135 60.8176 26.1137 60.8264 26.1316C60.9144 26.3112 60.9924 26.4326 61.0605 26.4958C61.1226 26.5618 61.1836 26.5802 61.2434 26.5509C61.2854 26.5303 61.335 26.4726 61.3924 26.3776L64.3576 21.2938C64.5208 21.0208 64.6107 20.78 64.6272 20.5715C64.6349 20.3598 64.5741 20.1223 64.445 19.8589C64.4392 19.8469 64.4542 19.8322 64.4901 19.8146C64.526 19.797 64.5469 19.7941 64.5528 19.8061C64.6291 19.9618 64.6862 20.0859 64.7243 20.1787L64.9485 20.659L65.2876 21.328C65.3464 21.4329 65.4213 21.5781 65.5122 21.7636ZM67.2506 25.3105C67.2594 25.3285 67.2459 25.3463 67.2099 25.3639C67.174 25.3815 67.1517 25.3813 67.1429 25.3633C67.0431 25.1598 66.8864 24.9916 66.6728 24.8587C66.4532 24.7288 66.1841 24.6342 65.8656 24.575L63.2217 24.1113L63.263 23.9685L65.7732 24.3865C66.0054 24.4211 66.1755 24.412 66.2832 24.3592C66.4808 24.2624 66.49 24.0314 66.3111 23.6662C66.3023 23.6483 66.3158 23.6305 66.3517 23.6129C66.3877 23.5953 66.41 23.5954 66.4188 23.6134C66.5068 23.793 66.5699 23.9292 66.6079 24.0219L66.8938 24.6279L67.0832 24.9917C67.1215 25.0546 67.1773 25.1609 67.2506 25.3105ZM63.012 24.047L60.6045 23.6567C60.3246 23.6157 60.1247 23.6246 60.005 23.6833C59.8015 23.783 59.7848 24.0065 59.955 24.3537C59.9638 24.3717 59.9502 24.3894 59.9143 24.407C59.8784 24.4247 59.856 24.4245 59.8472 24.4065L59.6582 23.998C59.5586 23.7647 59.4663 23.5612 59.3813 23.3876C59.3314 23.2858 59.2652 23.1661 59.1829 23.0283L59.0154 22.7094C59.0066 22.6914 59.0202 22.6737 59.0561 22.656C59.092 22.6384 59.1144 22.6386 59.1232 22.6566C59.3227 23.0637 59.7887 23.3327 60.5211 23.4637L63.0444 23.9086L63.012 24.047ZM62.2047 18.0462C62.3698 17.9111 62.4721 17.7887 62.5115 17.6789C62.5457 17.5734 62.5256 17.4434 62.451 17.2891C62.3722 17.1296 62.2146 16.9054 61.9782 16.6165C61.9655 16.601 61.9747 16.5806 62.0056 16.5553C62.0366 16.5299 62.0584 16.525 62.0711 16.5405C62.2441 16.752 62.3766 16.9193 62.4686 17.0422L63.0117 17.7218L63.4374 18.2263C63.5185 18.315 63.6267 18.4419 63.7617 18.607C63.7702 18.6173 63.7589 18.6351 63.728 18.6605C63.697 18.6858 63.6773 18.6933 63.6689 18.683C63.5042 18.4817 63.371 18.3452 63.2692 18.2735C63.1632 18.1965 63.0614 18.1721 62.9639 18.2003C62.8569 18.2275 62.7261 18.3044 62.5713 18.4311L58.9878 21.3629C58.833 21.4895 58.7342 21.6004 58.6915 21.6956C58.6446 21.7857 58.6484 21.8903 58.7028 22.0094C58.7478 22.1277 58.8526 22.2874 59.0173 22.4886C59.0257 22.4989 59.0145 22.5168 58.9835 22.5421C58.9525 22.5674 58.9328 22.5749 58.9244 22.5646L58.6219 22.179C58.4549 21.9539 58.3207 21.7794 58.2194 21.6555C58.1181 21.5317 57.9943 21.3961 57.8479 21.2488C57.5032 20.859 57.316 20.6461 57.2865 20.61C56.915 20.1559 56.7189 19.7004 56.6983 19.2436C56.6725 18.7909 56.8738 18.3894 57.302 18.039C57.6477 17.7562 58.0089 17.6028 58.3856 17.5789C58.7571 17.5592 59.1072 17.6345 59.436 17.8048C59.7606 17.9699 60.0369 18.1918 60.2649 18.4704C60.3915 18.6252 60.482 18.7622 60.5364 18.8813C60.5491 18.8968 60.5425 18.9151 60.5167 18.9362C60.5013 18.9488 60.4837 18.9589 60.464 18.9664C60.44 18.9688 60.4264 18.9627 60.4232 18.9481C60.3763 18.8487 60.3106 18.7474 60.2262 18.6442C59.9264 18.2778 59.5622 18.059 59.1335 17.9877C58.7005 17.9112 58.2725 18.0461 57.8494 18.3922C57.5759 18.616 57.3855 18.8622 57.2781 19.131C57.1655 19.404 57.1357 19.6782 57.1887 19.9535C57.2323 20.2279 57.347 20.4786 57.5327 20.7057C57.7058 20.9172 57.8386 21.0584 57.931 21.1292C58.0234 21.2001 58.1251 21.2245 58.2363 21.2024C58.3381 21.1794 58.4819 21.092 58.6676 20.94L62.2047 18.0462ZM58.183 13.7886C58.3042 13.6379 58.3784 13.5136 58.4057 13.4158C58.4236 13.319 58.3988 13.2221 58.3314 13.1252C58.2587 13.024 58.1237 12.8941 57.9262 12.7353L56.9286 11.9334C56.4142 11.5199 55.845 11.6055 55.221 12.1902C55.2085 12.2058 55.1913 12.2006 55.1695 12.1745C55.1383 12.1495 55.129 12.1291 55.1415 12.1135C55.5183 11.7406 55.8131 11.4217 56.0261 11.1567C56.0596 11.1151 56.0924 11.0902 56.1247 11.082C56.1528 11.0789 56.1903 11.0962 56.237 11.1338L59.8223 14.0157C59.8327 14.0241 59.8254 14.0438 59.8003 14.075C59.7753 14.1062 59.7575 14.1176 59.7471 14.1092C59.5445 13.9463 59.386 13.8403 59.2716 13.7911C59.1519 13.7377 59.0473 13.7349 58.9577 13.7826C58.8586 13.8313 58.7465 13.9335 58.6212 14.0894L55.7204 17.6981C55.5951 17.854 55.5214 17.9829 55.4993 18.0849C55.472 18.1827 55.4973 18.2843 55.5751 18.3896C55.6436 18.496 55.7792 18.6306 55.9818 18.7935C55.9922 18.8019 55.9849 18.8216 55.9598 18.8528C55.9348 18.884 55.917 18.8954 55.9066 18.887L55.531 18.5722C55.3211 18.3864 55.1538 18.2434 55.0291 18.1432C54.8888 18.0304 54.7054 17.8915 54.4788 17.7265L54.1062 17.4398C54.0958 17.4314 54.1031 17.4117 54.1282 17.3805C54.1533 17.3493 54.171 17.3379 54.1814 17.3463C54.384 17.5092 54.5472 17.6147 54.671 17.6629C54.7854 17.7121 54.8922 17.7123 54.9912 17.6636C55.0808 17.6159 55.1883 17.5142 55.3136 17.3583L58.183 13.7886ZM51.9703 8.82165C52.5337 9.08044 52.9767 9.44166 53.2993 9.9053C53.613 10.3722 53.7881 10.8855 53.8245 11.4451C53.8521 12.008 53.7434 12.556 53.4985 13.0891C53.2119 13.7131 52.8095 14.1738 52.2914 14.4714C51.7704 14.775 51.2131 14.9262 50.6194 14.9249C50.0197 14.9209 49.4624 14.8006 48.9474 14.5641C48.3719 14.2997 47.9287 13.931 47.6177 13.4581C47.304 12.9912 47.1336 12.4837 47.1065 11.9357C47.0734 11.3849 47.1709 10.8612 47.3991 10.3644C47.6523 9.81312 48.03 9.37406 48.5323 9.04721C49.0346 8.72036 49.5923 8.53636 50.2055 8.4952C50.8126 8.45126 51.4008 8.56008 51.9703 8.82165ZM51.5597 8.85313C51.1295 8.65556 50.6959 8.57742 50.2588 8.61873C49.8216 8.66003 49.414 8.82863 49.036 9.12452C48.658 9.42041 48.3452 9.83794 48.0975 10.3771C47.8359 10.9466 47.7157 11.5039 47.7367 12.0491C47.7489 12.5976 47.9008 13.0892 48.1926 13.5241C48.4784 13.9561 48.8878 14.2946 49.4209 14.5395C50.1237 14.8623 50.7721 14.896 51.3662 14.6407C51.9604 14.3854 52.43 13.8821 52.775 13.1309C53.0338 12.5675 53.1627 11.9994 53.1617 11.4267C53.1518 10.8573 53.0095 10.3444 52.7349 9.88816C52.4603 9.43189 52.0686 9.08688 51.5597 8.85313ZM41.8667 6.12623C42.038 6.15282 42.3191 6.49331 42.71 7.14768C43.0933 7.80763 43.5411 8.7036 44.0535 9.8356L43.5547 9.92008C43.1069 8.98026 42.7255 8.24302 42.4104 7.70837C42.0954 7.17371 41.806 6.77797 41.5423 6.52114C41.2719 6.26329 40.9919 6.11186 40.702 6.06686C40.6822 6.0638 40.6754 6.0425 40.6816 6.00297C40.6877 5.96345 40.7006 5.94522 40.7204 5.94829L41.8667 6.12623ZM43.6998 12.766C43.1794 12.6852 42.7977 12.5147 42.5548 12.2543C42.3118 11.994 42.2205 11.6695 42.2809 11.2808C42.331 10.958 42.4735 10.6698 42.7086 10.4162C42.936 10.1681 43.2244 9.98349 43.5738 9.86232C43.9155 9.74672 44.2709 9.71755 44.6398 9.77482C44.7518 9.7922 44.8924 9.82078 45.0616 9.86055L45.4283 7.49883C45.46 7.29461 45.4632 7.14332 45.438 7.04496C45.4062 6.94557 45.3336 6.8702 45.2201 6.81885C45.1066 6.76751 44.9182 6.72138 44.6546 6.68047C44.6349 6.6774 44.6281 6.65611 44.6342 6.61658C44.6403 6.57705 44.6533 6.55882 44.6731 6.56189C44.8707 6.59257 45.0283 6.62041 45.1458 6.64541L45.8163 6.7596L46.47 6.85097C46.5896 6.86279 46.7548 6.88506 46.9656 6.91779C46.9788 6.91983 46.9823 6.94062 46.9762 6.98014C46.97 7.01967 46.9604 7.03841 46.9472 7.03636C46.6837 6.99546 46.4901 6.98227 46.3664 6.9968C46.2361 7.01031 46.1407 7.0596 46.0803 7.14467C46.0189 7.23632 45.9728 7.38097 45.9421 7.5786L45.2319 12.1538C45.2012 12.3514 45.2017 12.4999 45.2335 12.5993C45.2587 12.6977 45.3314 12.7731 45.4514 12.8254C45.5639 12.8834 45.7486 12.9323 46.0055 12.9722C46.0252 12.9752 46.0321 12.9965 46.0259 13.0361C46.0198 13.0756 46.0068 13.0938 45.9871 13.0907L45.5143 13.0072C45.2528 12.9531 45.0365 12.9128 44.8652 12.8862C44.7466 12.8678 44.6341 12.8537 44.5277 12.8439C44.4212 12.8342 44.328 12.8264 44.2479 12.8208C44.034 12.8078 43.8513 12.7895 43.6998 12.766ZM42.8864 11.0307C42.8087 11.5314 42.8705 11.9154 43.0718 12.1828C43.2666 12.4492 43.5584 12.6125 43.947 12.6728C44.1315 12.7015 44.2686 12.7093 44.3583 12.6962C44.448 12.6832 44.5236 12.6308 44.5851 12.5391C44.64 12.4465 44.6853 12.2848 44.7211 12.0543L45.0248 10.0977C44.7786 10.0325 44.583 9.98864 44.4381 9.96614C43.9572 9.89148 43.596 9.93661 43.3545 10.1015C43.112 10.273 42.9559 10.5827 42.8864 11.0307ZM39.5848 5.9534C39.5981 5.95243 39.6062 5.97189 39.6091 6.01179C39.6121 6.05168 39.6069 6.07211 39.5936 6.07308C39.3343 6.09206 39.146 6.12255 39.0287 6.16455C38.9049 6.20704 38.8264 6.27629 38.7933 6.37229C38.754 6.47543 38.7417 6.62673 38.7563 6.8262L39.0942 11.4439C39.1088 11.6433 39.1428 11.7879 39.1961 11.8776C39.2429 11.9677 39.3306 12.0248 39.4593 12.0488C39.5819 12.08 39.7729 12.086 40.0322 12.0671C40.0455 12.0661 40.0536 12.0855 40.0565 12.1254C40.0595 12.1653 40.0543 12.1858 40.041 12.1867L36.0915 12.4757C36.0317 12.4801 35.9996 12.4524 35.9952 12.3926L35.8869 11.1872C35.8855 11.1673 35.9047 11.1559 35.9446 11.1529C35.9778 11.1505 35.9952 11.1593 35.9966 11.1792C36.0215 11.5183 36.1309 11.781 36.325 11.9674C36.5192 12.1537 36.7625 12.2361 37.055 12.2147L37.7432 12.1644C37.9959 12.1459 38.1808 12.1156 38.2981 12.0736C38.4153 12.0316 38.4938 11.9624 38.5335 11.8659C38.5666 11.7699 38.5759 11.6222 38.5613 11.4227L38.2306 6.90477C38.2165 6.71196 38.1861 6.57046 38.1394 6.4803C38.0866 6.39727 38.0024 6.34327 37.8869 6.3183C37.7648 6.29381 37.5741 6.29105 37.3148 6.31003L36.3972 6.37717C36.1313 6.39664 35.9137 6.52953 35.7446 6.77587C35.5688 7.02269 35.4682 7.33754 35.4427 7.72042C35.4442 7.74036 35.4247 7.74847 35.3844 7.74474C35.3445 7.74766 35.3238 7.73915 35.3223 7.7192C35.3515 7.29594 35.3498 6.86158 35.3172 6.4161C35.3133 6.36291 35.3237 6.32204 35.3483 6.2935C35.3668 6.2721 35.406 6.2592 35.4658 6.25482L39.5848 5.9534ZM36.1959 8.55769C36.2177 8.85689 36.2962 9.0617 36.4313 9.17214C36.5664 9.28258 36.7935 9.32612 37.1127 9.30276L38.6486 9.19037L38.6624 9.37986L37.0966 9.49444C36.7908 9.51683 36.5817 9.58226 36.4693 9.69075C36.3574 9.80589 36.3107 9.98979 36.3292 10.2424C36.3301 10.2557 36.3107 10.2639 36.2708 10.2668C36.2309 10.2697 36.2105 10.2645 36.2095 10.2512L36.1618 9.46258C36.1477 9.26977 36.1339 9.12706 36.1204 9.03446L36.0762 8.56644C36.0752 8.55315 36.0947 8.54504 36.1346 8.54212C36.1744 8.5392 36.1949 8.54439 36.1959 8.55769ZM32.4767 13.1473L32.268 13.2199L30.3028 8.66491C30.1658 8.3464 30.0151 8.15119 29.8508 8.07927C29.6865 8.00735 29.4555 8.03881 29.158 8.17364C29.1458 8.17914 29.1315 8.16367 29.115 8.12724C29.0985 8.09081 29.0963 8.06984 29.1084 8.06433C29.2785 7.98729 29.4104 7.93117 29.5042 7.89596L30.0002 7.68219L30.4424 7.47084C30.5186 7.429 30.6356 7.3723 30.7935 7.30076C30.8057 7.29526 30.82 7.31073 30.8365 7.34716C30.853 7.38359 30.8552 7.40456 30.843 7.41006C30.588 7.52563 30.4364 7.66753 30.3882 7.83575C30.3367 8.0128 30.378 8.25754 30.5123 8.56998L32.4767 13.1473ZM23.8751 10.5675C23.8568 10.5758 23.8395 10.5617 23.823 10.5253C23.8065 10.4888 23.8073 10.4665 23.8255 10.4582C24.0138 10.3729 24.1639 10.3086 24.276 10.2651L24.8904 9.99767L25.451 9.73266C25.5393 9.68531 25.6654 9.62449 25.8294 9.5502C25.8415 9.5447 25.8559 9.56016 25.8724 9.5966C25.8889 9.63303 25.8911 9.654 25.8789 9.6595C25.6664 9.75581 25.5184 9.84116 25.435 9.91554C25.3483 9.99875 25.309 10.0897 25.3172 10.1885C25.3193 10.29 25.3677 10.4291 25.4624 10.6058L27.6611 15.022L27.5497 15.4787L27.4432 8.89579C27.4443 8.866 27.4631 8.84285 27.4995 8.82634C27.5299 8.81258 27.5627 8.81234 27.598 8.82563L32.0286 12.6916C32.2276 12.8722 32.4294 12.9784 32.6341 13.0101C32.8327 13.0445 33.0413 13.0122 33.2599 12.9132C33.272 12.9077 33.2863 12.9231 33.3028 12.9596C33.3194 12.996 33.3215 13.017 33.3094 13.0225L32.9956 13.1537C32.9321 13.1751 32.8518 13.2079 32.7546 13.2519C32.6575 13.2959 32.5769 13.3361 32.5128 13.3724C32.4488 13.4088 32.3985 13.4352 32.3621 13.4517C32.2771 13.4902 32.1965 13.4901 32.1204 13.4514C32.0471 13.4188 31.9165 13.3243 31.7285 13.1679L27.5996 9.6044L27.663 9.11454L27.7502 15.2671C27.7501 15.3476 27.7354 15.4202 27.7061 15.4847C27.6707 15.5519 27.6287 15.5966 27.5802 15.6186C27.5559 15.6296 27.515 15.6445 27.4576 15.6631C27.4002 15.6818 27.3229 15.7132 27.2258 15.7572L26.82 15.9521C26.762 15.9857 26.6693 16.0313 26.5418 16.0891C26.5296 16.0946 26.5153 16.0792 26.4988 16.0427C26.4823 16.0063 26.4801 15.9853 26.4923 15.9798C26.808 15.8367 27.0134 15.6924 27.1085 15.5469C27.2002 15.4102 27.1881 15.2217 27.0719 14.9816L24.9796 10.8246C24.8882 10.6391 24.8051 10.5121 24.7301 10.4436C24.6491 10.3778 24.547 10.3545 24.424 10.3737C24.2949 10.3956 24.1119 10.4602 23.8751 10.5675ZM19.9576 13.4575C20.4188 13.0432 20.9262 12.78 21.4798 12.668C22.0329 12.5654 22.5735 12.6085 23.1016 12.7973C23.6291 12.9954 24.0889 13.3127 24.481 13.7491C24.9399 14.2599 25.2031 14.8122 25.2704 15.4059C25.3423 16.0046 25.2597 16.5761 25.0229 17.1205C24.7811 17.6693 24.4494 18.1331 24.0279 18.5118C23.5568 18.935 23.0424 19.1955 22.4849 19.2931C21.9318 19.3957 21.3984 19.3506 20.8847 19.1579C20.366 18.9696 19.924 18.6722 19.5587 18.2655C19.1532 17.8142 18.9002 17.2932 18.7997 16.7025C18.6991 16.1117 18.7516 15.5268 18.9573 14.9477C19.158 14.373 19.4914 13.8763 19.9576 13.4575ZM19.8234 13.8469C19.4713 14.1632 19.2275 14.5302 19.0918 14.9478C18.9562 15.3654 18.9491 15.8064 19.0706 16.2708C19.1921 16.7353 19.4511 17.1882 19.8476 17.6295C20.2664 18.0957 20.7302 18.4274 21.2389 18.6245C21.7472 18.8311 22.2588 18.8868 22.7737 18.7916C23.2837 18.7009 23.7569 18.4595 24.1933 18.0674C24.7686 17.5506 25.057 16.9689 25.0585 16.3222C25.0601 15.6755 24.7846 15.0447 24.2322 14.4298C23.8178 13.9686 23.3476 13.6248 22.8215 13.3983C22.295 13.1813 21.7678 13.1083 21.24 13.1792C20.7122 13.2501 20.24 13.4726 19.8234 13.8469ZM13.4725 21.669C13.5648 21.5223 13.9887 21.399 14.7444 21.2993C15.5022 21.2087 16.5023 21.1524 17.7447 21.1302L17.6247 21.6218C16.5843 21.6607 15.7563 21.7189 15.1406 21.7964C14.5249 21.8739 14.0469 21.9829 13.7066 22.1233C13.3628 22.2694 13.1128 22.4666 12.9567 22.7149C12.9461 22.7319 12.9238 22.7297 12.8899 22.7084C12.8561 22.6871 12.8445 22.668 12.8551 22.6511L13.4725 21.669ZM20.2954 22.6157C20.015 23.0616 19.7072 23.3445 19.372 23.4644C19.0367 23.5844 18.7025 23.5397 18.3696 23.3303C18.093 23.1565 17.8848 22.9114 17.745 22.5952C17.6074 22.2881 17.5521 21.9502 17.5792 21.5813C17.6084 21.2217 17.7224 20.8839 17.9211 20.5678C17.9814 20.4719 18.0633 20.3541 18.1669 20.2144L16.1435 18.9424C15.9686 18.8324 15.8309 18.7695 15.7306 18.7537C15.6268 18.7435 15.5288 18.7803 15.4367 18.8642C15.3446 18.948 15.2276 19.1028 15.0857 19.3286C15.075 19.3455 15.0528 19.3433 15.0189 19.322C14.9851 19.3008 14.9735 19.2816 14.9841 19.2647C15.0905 19.0954 15.1785 18.9617 15.248 18.8637L15.6184 18.2933L15.9613 17.7292C16.0195 17.6241 16.1054 17.4812 16.2189 17.3006C16.226 17.2893 16.2465 17.2943 16.2804 17.3156C16.3142 17.3369 16.3276 17.3532 16.3205 17.3645C16.1786 17.5903 16.0898 17.7628 16.0541 17.8821C16.0149 18.0071 16.0224 18.1142 16.0766 18.2034C16.1364 18.2961 16.251 18.3957 16.4203 18.5021L20.34 20.9665C20.5093 21.0729 20.6459 21.1312 20.7498 21.1414C20.8501 21.1572 20.948 21.1204 21.0437 21.0309C21.1414 20.9506 21.2595 20.8004 21.3979 20.5802C21.4085 20.5633 21.4308 20.5655 21.4646 20.5868C21.4985 20.6081 21.5101 20.6272 21.4994 20.6441L21.2355 21.0452C21.0823 21.2638 20.9595 21.4465 20.8673 21.5933C20.8034 21.6948 20.7459 21.7926 20.6948 21.8864C20.6437 21.9803 20.5996 22.0628 20.5627 22.1341C20.4661 22.3254 20.377 22.4859 20.2954 22.6157ZM18.3798 22.6753C18.8087 22.9449 19.1858 23.0403 19.5111 22.9613C19.8328 22.888 20.0984 22.6848 20.3077 22.3518C20.4071 22.1938 20.4685 22.071 20.4921 21.9834C20.5156 21.8958 20.4975 21.8057 20.4377 21.713C20.3743 21.6259 20.2438 21.5202 20.0463 21.396L18.3701 20.3422C18.2127 20.5425 18.0949 20.7047 18.0169 20.8288C17.7578 21.2409 17.6562 21.5904 17.712 21.8774C17.7734 22.168 17.996 22.434 18.3798 22.6753ZM12.4096 23.6959C12.414 23.6833 12.4351 23.6836 12.4729 23.6967C12.5107 23.7099 12.5274 23.7227 12.523 23.7353C12.4377 23.9809 12.391 24.1659 12.3831 24.2901C12.373 24.4207 12.4055 24.5202 12.4805 24.5887C12.5597 24.6656 12.6937 24.7368 12.8826 24.8025L17.2561 26.3222C17.445 26.3878 17.5912 26.4139 17.6947 26.4005C17.796 26.3933 17.8832 26.3354 17.9563 26.2267C18.0334 26.1265 18.1147 25.9536 18.2 25.708C18.2044 25.6954 18.2255 25.6957 18.2633 25.7088C18.301 25.7219 18.3178 25.7348 18.3134 25.7474L17.0136 29.488C16.9939 29.5446 16.9557 29.5631 16.899 29.5434L15.7495 29.1652C15.7306 29.1586 15.7277 29.1364 15.7409 29.0987C15.7518 29.0672 15.7667 29.0547 15.7856 29.0613C16.1068 29.1729 16.3913 29.1765 16.6393 29.0721C16.8874 28.9677 17.0595 28.777 17.1558 28.4999L17.3823 27.8481C17.4654 27.6088 17.5109 27.427 17.5188 27.3027C17.5267 27.1785 17.4943 27.0789 17.4214 27.0042C17.3464 26.9358 17.2144 26.8688 17.0255 26.8031L12.7465 25.3162C12.5638 25.2528 12.4219 25.2246 12.3206 25.2318C12.2234 25.2474 12.1405 25.3033 12.0718 25.3994C12.0009 25.5018 11.9228 25.6758 11.8375 25.9214L11.5355 26.7904C11.448 27.0423 11.4838 27.2947 11.6429 27.5477C11.7999 27.8069 12.049 28.024 12.3905 28.1991C12.4094 28.2057 12.4091 28.2268 12.3897 28.2624C12.3766 28.3002 12.3605 28.3158 12.3417 28.3092C11.9646 28.1147 11.5651 27.9441 11.1432 27.7975C11.0928 27.78 11.0594 27.7543 11.043 27.7203C11.0307 27.6949 11.0344 27.6538 11.054 27.5971L12.4096 23.6959ZM13.4577 27.8395C13.741 27.9379 13.9602 27.9471 14.1151 27.8668C14.27 27.7865 14.4 27.5953 14.5051 27.293L15.0105 25.8383L15.19 25.9007L14.6747 27.3837C14.574 27.6734 14.5512 27.8913 14.6063 28.0375C14.6677 28.1858 14.818 28.3016 15.0573 28.3847C15.0699 28.3891 15.0696 28.4102 15.0565 28.448C15.0434 28.4858 15.0305 28.5025 15.0179 28.4981L14.275 28.2293C14.0924 28.1659 13.9559 28.122 13.8655 28.0977L13.4183 27.9528C13.4057 27.9485 13.4059 27.9274 13.4191 27.8896C13.4322 27.8518 13.4451 27.8351 13.4577 27.8395ZM12.1761 32.0529C12.1705 32.0391 12.1916 32.0275 12.2392 32.0181C12.2929 32.0159 12.3497 32.0174 12.4095 32.0224C12.529 32.0325 12.5913 32.0478 12.5963 32.0683L12.7651 34.2302C12.7706 34.244 12.7498 34.2523 12.7028 34.255C12.6618 34.2649 12.6147 34.2676 12.5616 34.2632C12.4287 34.2519 12.357 34.2292 12.3466 34.1948L12.1761 32.0529ZM10.0461 38.1289C10.0439 38.1158 10.0625 38.1059 10.1019 38.0992C10.1414 38.0926 10.1622 38.0958 10.1644 38.109C10.2077 38.3654 10.2557 38.55 10.3085 38.6628C10.3624 38.7821 10.4387 38.8538 10.5374 38.8777C10.6438 38.9071 10.7956 38.9052 10.9928 38.8719L15.5584 38.1023C15.7556 38.0691 15.8963 38.0217 15.9806 37.9602C16.066 37.9052 16.1146 37.8125 16.1264 37.6821C16.1459 37.5571 16.1341 37.3664 16.0908 37.11C16.0886 37.0969 16.1072 37.087 16.1467 37.0803C16.1861 37.0737 16.2069 37.0769 16.2092 37.0901L16.8674 40.995C16.8774 41.0542 16.8528 41.0887 16.7936 41.0987L15.6038 41.3196C15.584 41.3229 15.5708 41.3048 15.5642 41.2654C15.5587 41.2325 15.5657 41.2144 15.5855 41.2111C15.9207 41.1546 16.172 41.0209 16.3393 40.8102C16.5066 40.5995 16.5659 40.3495 16.5171 40.0602L16.4024 39.3798C16.3603 39.13 16.3129 38.9487 16.2601 38.8359C16.2072 38.7231 16.1309 38.6515 16.0311 38.621C15.9325 38.597 15.7845 38.6017 15.5873 38.6349L11.1203 39.3879C10.9297 39.42 10.7917 39.4636 10.7063 39.5185C10.6286 39.579 10.5827 39.6678 10.5687 39.7851C10.5557 39.909 10.5709 40.0991 10.6141 40.3555L10.767 41.2627C10.8113 41.5257 10.9641 41.7298 11.2252 41.8751C11.4874 42.0269 11.8103 42.0976 12.1939 42.087C12.2136 42.0837 12.2235 42.1023 12.2236 42.1428C12.2302 42.1823 12.2237 42.2037 12.204 42.207C11.7798 42.2176 11.3475 42.2601 10.9071 42.3343C10.8545 42.3432 10.8128 42.3367 10.7821 42.3148C10.7591 42.2984 10.7426 42.2607 10.7326 42.2015L10.0461 38.1289ZM12.9568 41.2587C13.2526 41.2088 13.4492 41.1114 13.5465 40.9666C13.6437 40.8217 13.6658 40.5915 13.6126 40.276L13.3566 38.7574L13.544 38.7258L13.8049 40.274C13.8559 40.5764 13.9407 40.7785 14.0592 40.8802C14.1844 40.9808 14.3718 41.01 14.6216 40.9679C14.6348 40.9657 14.6447 40.9843 14.6513 41.0237C14.658 41.0632 14.6547 41.084 14.6416 41.0862L13.8609 41.2077C13.6703 41.2398 13.5295 41.2669 13.4386 41.289L12.9768 41.377C12.9636 41.3792 12.9537 41.3606 12.9471 41.3212C12.9404 41.2817 12.9437 41.2609 12.9568 41.2587ZM12.6647 47.5548C12.6596 47.5425 12.6755 47.5287 12.7124 47.5133C12.7494 47.4979 12.7704 47.4964 12.7755 47.5087C12.8523 47.6934 12.9197 47.8206 12.9776 47.8904C13.0355 47.9601 13.0953 47.9822 13.1568 47.9566C13.206 47.9361 13.2592 47.8815 13.3161 47.7928L16.601 42.9061C16.7745 42.6462 16.8772 42.4158 16.9091 42.2147C16.941 42.0137 16.9108 41.8024 16.8186 41.5809C16.8135 41.5685 16.8294 41.5547 16.8663 41.5393C16.9033 41.524 16.9243 41.5224 16.9294 41.5348C16.9602 41.6086 17.0027 41.7281 17.0569 41.8933L17.186 42.2295C17.2679 42.4265 17.3765 42.6701 17.5118 42.9604L17.7207 43.4367C17.7284 43.4552 17.7138 43.4721 17.6769 43.4875C17.6399 43.5028 17.6176 43.5013 17.6099 43.4828C17.5331 43.2982 17.4627 43.1722 17.3986 43.105C17.3407 43.0352 17.281 43.0131 17.2194 43.0388C17.1763 43.0567 17.1232 43.1113 17.0601 43.2025L13.7883 48.0946C13.6086 48.3571 13.5042 48.5919 13.4748 48.7991C13.4542 49.0098 13.5002 49.2506 13.6129 49.5215C13.618 49.5338 13.6021 49.5476 13.5652 49.563C13.5283 49.5783 13.5072 49.5799 13.5021 49.5676C13.4355 49.4075 13.3861 49.2801 13.3538 49.1852L13.1595 48.692L12.8622 48.0034C12.8099 47.8951 12.7441 47.7456 12.6647 47.5548ZM11.1474 43.9079C11.1397 43.8894 11.1543 43.8725 11.1913 43.8571C11.2282 43.8417 11.2505 43.8433 11.2582 43.8618C11.3453 44.071 11.4913 44.2486 11.6964 44.3943C11.9076 44.5375 12.1703 44.6484 12.4847 44.727L15.0951 45.3523L15.045 45.4922L12.5653 44.9209C12.3356 44.8721 12.1654 44.8707 12.0546 44.9168C11.8514 45.0013 11.828 45.2313 11.9842 45.6068C11.9919 45.6252 11.9773 45.6421 11.9403 45.6575C11.9034 45.6729 11.8811 45.6713 11.8734 45.6529C11.7966 45.4682 11.742 45.3284 11.7098 45.2335L11.4616 44.6111L11.2949 44.2364C11.2606 44.1713 11.2114 44.0617 11.1474 43.9079ZM15.3004 45.4293L17.6794 45.9667C17.9563 46.0248 18.1563 46.0282 18.2794 45.977C18.4887 45.8899 18.519 45.6679 18.3705 45.3109C18.3628 45.2924 18.3775 45.2755 18.4144 45.2602C18.4513 45.2448 18.4736 45.2463 18.4813 45.2648L18.6449 45.6841C18.7299 45.9231 18.8096 46.1319 18.8838 46.3104C18.9274 46.415 18.986 46.5387 19.0598 46.6813L19.2073 47.0098C19.215 47.0283 19.2004 47.0452 19.1634 47.0606C19.1265 47.0759 19.1042 47.0744 19.0965 47.0559C18.9224 46.6373 18.4738 46.3402 17.7508 46.1644L15.2596 45.5654L15.3004 45.4293ZM15.7287 51.4665C15.5552 51.5906 15.4452 51.7062 15.3988 51.8131C15.3578 51.9162 15.3695 52.0472 15.4339 52.206C15.5023 52.3703 15.645 52.6042 15.8623 52.9078C15.8739 52.9241 15.8634 52.9439 15.8309 52.9672C15.7984 52.9904 15.7763 52.9939 15.7647 52.9777C15.6056 52.7554 15.4842 52.5799 15.4004 52.4513L14.9024 51.7379L14.5102 51.207C14.435 51.1133 14.3353 50.9796 14.2112 50.8061C14.2034 50.7953 14.2158 50.7782 14.2483 50.755C14.2808 50.7317 14.301 50.7255 14.3088 50.7363C14.46 50.9478 14.5841 51.0926 14.6811 51.1708C14.7819 51.2544 14.8819 51.2854 14.9811 51.2636C15.0895 51.2434 15.2251 51.1751 15.3878 51.0587L19.1534 48.3648C19.316 48.2484 19.4217 48.1441 19.4705 48.0519C19.5231 47.965 19.5262 47.8604 19.4796 47.738C19.4423 47.6171 19.348 47.4509 19.1967 47.2395C19.189 47.2286 19.2014 47.2116 19.2339 47.1883C19.2664 47.165 19.2866 47.1588 19.2943 47.1697L19.5713 47.574C19.7234 47.8095 19.8459 47.9923 19.939 48.1224C20.0321 48.2525 20.1469 48.3958 20.2834 48.5523C20.6023 48.9636 20.7752 49.1882 20.8024 49.2261C21.1437 49.7033 21.3099 50.1705 21.301 50.6277C21.2974 51.0811 21.0706 51.4687 20.6206 51.7907C20.2573 52.0506 19.887 52.1803 19.5096 52.1798C19.1376 52.1754 18.793 52.0776 18.4759 51.8864C18.1627 51.7007 17.9013 51.4614 17.6919 51.1686C17.5755 51.0059 17.494 50.8634 17.4474 50.741C17.4358 50.7247 17.4435 50.7069 17.4707 50.6875C17.4869 50.6759 17.5051 50.6669 17.5253 50.6607C17.5493 50.6599 17.5625 50.6669 17.5648 50.6816C17.6052 50.7839 17.6642 50.8892 17.7417 50.9977C18.0171 51.3826 18.3664 51.6246 18.7897 51.7235C19.2168 51.8278 19.6526 51.7209 20.0972 51.4028C20.3846 51.1972 20.5906 50.9638 20.7151 50.7025C20.8451 50.4374 20.8926 50.1657 20.8575 49.8875C20.8317 49.6109 20.7335 49.3533 20.5628 49.1147C20.4038 48.8924 20.2805 48.7429 20.1929 48.6663C20.1052 48.5896 20.0052 48.5587 19.8929 48.5735C19.7898 48.5898 19.6407 48.6678 19.4455 48.8075L15.7287 51.4665ZM19.4718 55.9751C19.3415 56.1179 19.2596 56.2373 19.2263 56.3332C19.2023 56.4286 19.221 56.5269 19.2822 56.6279C19.3484 56.7334 19.475 56.8716 19.6621 57.0424L20.6075 57.9053C21.095 58.3502 21.6684 58.3004 22.3278 57.756C22.3413 57.7412 22.3581 57.7475 22.3782 57.7749C22.4078 57.8019 22.4158 57.8228 22.4023 57.8375C22.003 58.1861 21.6887 58.4859 21.4595 58.737C21.4235 58.7764 21.3892 58.7992 21.3564 58.8055C21.3282 58.8067 21.2919 58.7872 21.2476 58.7467L17.85 55.6456C17.8402 55.6367 17.8487 55.6174 17.8757 55.5878C17.9026 55.5583 17.9211 55.548 17.9309 55.557C18.1229 55.7323 18.2745 55.8481 18.3856 55.9043C18.5016 55.9651 18.6059 55.9745 18.6983 55.9325C18.8002 55.8901 18.9186 55.7951 19.0534 55.6474L22.1747 52.2277C22.3095 52.0799 22.3912 51.9559 22.4196 51.8555C22.453 51.7596 22.4342 51.6566 22.3631 51.5466C22.3014 51.4362 22.1746 51.2933 21.9825 51.118C21.9727 51.109 21.9812 51.0898 22.0082 51.0602C22.0352 51.0307 22.0536 51.0204 22.0634 51.0294L22.4186 51.3671C22.6164 51.5657 22.7744 51.719 22.8926 51.8268C23.0255 51.9482 23.1999 52.0983 23.4157 52.2772L23.7696 52.5867C23.7794 52.5957 23.7709 52.6149 23.7439 52.6445C23.7169 52.674 23.6985 52.6843 23.6887 52.6753C23.4966 52.5 23.3404 52.3845 23.2198 52.3286C23.1087 52.2723 23.0023 52.2654 22.9004 52.3078C22.8079 52.3498 22.6943 52.4446 22.5594 52.5923L19.4718 55.9751ZM25.3572 61.3227C24.8114 61.0287 24.3922 60.6401 24.0996 60.1569C23.8161 59.6711 23.674 59.1477 23.6731 58.5869C23.6813 58.0234 23.8245 57.4834 24.1027 56.9669C24.4284 56.3624 24.8592 55.9281 25.3952 55.664C25.9343 55.394 26.5001 55.2785 27.0925 55.3174C27.6907 55.3595 28.2393 55.5149 28.7382 55.7836C29.2958 56.0839 29.7148 56.48 29.9951 56.9717C30.2786 57.4576 30.4165 57.9748 30.4087 58.5234C30.4069 59.0752 30.2763 59.5917 30.0171 60.073C29.7294 60.6071 29.3246 61.0213 28.8026 61.3157C28.2806 61.61 27.7123 61.7583 27.0978 61.7604C26.4891 61.7658 25.9089 61.6199 25.3572 61.3227ZM25.769 61.3173C26.1857 61.5418 26.6135 61.6473 27.0524 61.6338C27.4913 61.6203 27.9088 61.4779 28.3048 61.2066C28.7008 60.9352 29.0395 60.5384 29.3208 60.016C29.618 59.4643 29.7734 58.9157 29.787 58.3703C29.8097 57.8221 29.6892 57.3218 29.4255 56.8694C29.1678 56.4201 28.7806 56.0563 28.2641 55.7781C27.5833 55.4114 26.9383 55.3366 26.3291 55.5537C25.72 55.7708 25.2194 56.2433 24.8274 56.9711C24.5334 57.5169 24.3688 58.0757 24.3335 58.6473C24.3072 59.2162 24.4167 59.7371 24.6618 60.2098C24.9069 60.6826 25.276 61.0518 25.769 61.3173ZM35.2472 64.6759C35.0781 64.6377 34.8209 64.2788 34.4756 63.5992C34.1382 62.9147 33.7526 61.9902 33.3186 60.8259L33.8221 60.7757C34.2047 61.7438 34.5349 62.5054 34.8127 63.0603C35.0905 63.6152 35.3522 64.0298 35.5978 64.3041C35.8499 64.5798 36.119 64.75 36.4051 64.8146C36.4246 64.819 36.4299 64.8408 36.4211 64.8798C36.4123 64.9188 36.3981 64.9361 36.3786 64.9317L35.2472 64.6759ZM33.8716 57.9264C34.3853 58.0426 34.7545 58.2388 34.9791 58.5151C35.2036 58.7915 35.2726 59.1214 35.1858 59.5051C35.1138 59.8237 34.9519 60.1015 34.7001 60.3385C34.4563 60.5704 34.156 60.7349 33.7991 60.832C33.4503 60.924 33.0937 60.9288 32.7296 60.8465C32.6191 60.8215 32.4807 60.7834 32.3146 60.7322L31.7876 63.0633C31.742 63.2649 31.7284 63.4156 31.7469 63.5155C31.7718 63.6168 31.8391 63.697 31.9488 63.7559C32.0585 63.8149 32.2434 63.8738 32.5035 63.9326C32.523 63.937 32.5284 63.9587 32.5196 63.9977C32.5107 64.0368 32.4966 64.0541 32.4771 64.0496C32.282 64.0055 32.1267 63.967 32.0111 63.9341L31.35 63.7744L30.7041 63.6386C30.5855 63.6186 30.4222 63.5851 30.2142 63.5381C30.2012 63.5351 30.1991 63.5142 30.2079 63.4751C30.2167 63.4361 30.2276 63.4181 30.2406 63.421C30.5007 63.4798 30.693 63.5062 30.8174 63.5001C30.9483 63.4956 31.0468 63.4529 31.1129 63.3722C31.1804 63.2849 31.2363 63.1437 31.2804 62.9487L32.3013 58.4326C32.3454 58.2376 32.355 58.0894 32.3301 57.988C32.3116 57.8882 32.2443 57.808 32.1281 57.7476C32.0199 57.6821 31.839 57.6207 31.5854 57.5634C31.5659 57.559 31.5605 57.5372 31.5694 57.4982C31.5782 57.4592 31.5923 57.4419 31.6118 57.4463L32.0778 57.5619C32.335 57.6337 32.5481 57.6887 32.7172 57.727C32.8342 57.7534 32.9455 57.7752 33.051 57.7922C33.1565 57.8092 33.249 57.8233 33.3285 57.8344C33.541 57.862 33.722 57.8926 33.8716 57.9264ZM34.5647 59.7132C34.6764 59.219 34.6409 58.8317 34.4583 58.5512C34.2821 58.2721 34.0022 58.0893 33.6186 58.0025C33.4365 57.9614 33.3003 57.9442 33.2099 57.9511C33.1195 57.958 33.0405 58.0051 32.9729 58.0923C32.9118 58.1811 32.8556 58.3392 32.8041 58.5668L32.3675 60.4981C32.6087 60.5799 32.8009 60.6371 32.9439 60.6694C33.4186 60.7767 33.782 60.7563 34.0342 60.6083C34.2879 60.4538 34.4647 60.1554 34.5647 59.7132ZM37.5314 65.0012C37.5181 65.0014 37.5112 64.9815 37.5108 64.9415C37.5103 64.9015 37.5168 64.8814 37.5301 64.8812C37.7901 64.8784 37.9799 64.8597 38.0995 64.825C38.2258 64.7903 38.3085 64.7261 38.3474 64.6323C38.393 64.5318 38.4147 64.3815 38.4125 64.1816L38.3619 59.5518C38.3597 59.3518 38.3347 59.2054 38.2871 59.1126C38.246 59.0197 38.162 58.9573 38.035 58.9254C37.9146 58.8867 37.7244 58.8688 37.4644 58.8716C37.451 58.8718 37.4441 58.8518 37.4437 58.8118C37.4433 58.7718 37.4497 58.7518 37.4631 58.7516L41.4228 58.7083C41.4828 58.7076 41.5131 58.7373 41.5138 58.7973L41.547 60.007C41.5472 60.027 41.5274 60.0372 41.4874 60.0377C41.454 60.038 41.4373 60.0282 41.437 60.0082C41.4333 59.6682 41.3404 59.3992 41.1582 59.2012C40.976 59.0032 40.7383 58.9058 40.445 58.909L39.755 58.9166C39.5017 58.9193 39.3152 58.938 39.1956 58.9727C39.0759 59.0073 38.9933 59.0716 38.9477 59.1654C38.9087 59.2592 38.8903 59.406 38.8925 59.606L38.942 64.1358C38.9442 64.3291 38.9657 64.4722 39.0067 64.5651C39.0543 64.6512 39.135 64.7103 39.2487 64.7424C39.369 64.7745 39.5592 64.789 39.8192 64.7862L40.7391 64.7761C41.0058 64.7732 41.2312 64.6541 41.4153 64.4187C41.606 64.1833 41.726 63.8753 41.7752 63.4947C41.775 63.4747 41.7949 63.4678 41.835 63.4741C41.875 63.4736 41.8951 63.4834 41.8953 63.5034C41.8399 63.924 41.8146 64.3577 41.8195 64.8043C41.8201 64.8577 41.8072 64.8978 41.7808 64.9248C41.7611 64.945 41.7212 64.9554 41.6612 64.9561L37.5314 65.0012ZM41.0755 62.6123C41.0722 62.3123 41.0066 62.1031 40.8786 61.9844C40.7506 61.8658 40.5267 61.8083 40.2067 61.8118L38.6668 61.8286L38.6647 61.6386L40.2346 61.6215C40.5413 61.6181 40.754 61.5658 40.8729 61.4645C40.9918 61.3565 41.0498 61.1759 41.047 60.9225C41.0469 60.9092 41.0668 60.9023 41.1068 60.9019C41.1468 60.9014 41.1669 60.9079 41.167 60.9212L41.1656 61.7113C41.1678 61.9046 41.1727 62.0479 41.1804 62.1412L41.1955 62.611C41.1956 62.6244 41.1757 62.6312 41.1357 62.6317C41.0957 62.6321 41.0756 62.6257 41.0755 62.6123ZM47.1469 57.6678L47.3531 57.5884L49.4659 62.0769C49.6132 62.3907 49.7702 62.5809 49.9368 62.6474C50.1034 62.714 50.3331 62.675 50.6261 62.5305C50.6381 62.5246 50.6529 62.5396 50.6706 62.5755C50.6883 62.6114 50.6912 62.6323 50.6792 62.6381C50.5118 62.7207 50.3818 62.7811 50.2891 62.8193L49.8004 63.0492L49.3653 63.2748C49.2905 63.3192 49.1754 63.3796 49.0199 63.4563C49.008 63.4622 48.9932 63.4472 48.9755 63.4113C48.9578 63.3754 48.9549 63.3546 48.9669 63.3487C49.218 63.2248 49.3649 63.0781 49.4076 62.9084C49.4533 62.7297 49.404 62.4865 49.2596 62.1786L47.1469 57.6678ZM55.8281 59.9655C55.8461 59.9567 55.8639 59.9702 55.8816 60.0061C55.8993 60.042 55.8992 60.0643 55.8812 60.0732C55.6959 60.1646 55.5479 60.2338 55.4373 60.2809L54.832 60.5682L54.2803 60.8514C54.1936 60.9016 54.0695 60.9665 53.908 61.0461C53.8961 61.052 53.8813 61.037 53.8636 61.0011C53.8459 60.9652 53.843 60.9444 53.855 60.9385C54.0642 60.8353 54.2093 60.7451 54.2903 60.6681C54.3742 60.5821 54.4105 60.4899 54.3991 60.3914C54.3937 60.29 54.3408 60.1526 54.2404 59.9791L51.8988 55.637L51.9952 55.1769L52.3165 61.7528C52.3163 61.7826 52.2983 61.8064 52.2624 61.8241C52.2325 61.8388 52.1997 61.8401 52.164 61.828L47.6096 58.1086C47.4048 57.9346 47.1997 57.835 46.9941 57.8101C46.7945 57.7821 46.5871 57.8212 46.3718 57.9273C46.3598 57.9332 46.345 57.9183 46.3273 57.8824C46.3096 57.8465 46.3068 57.8256 46.3187 57.8197L46.6281 57.6783C46.6908 57.6548 46.7701 57.6195 46.8657 57.5723C46.9614 57.5251 47.0406 57.4824 47.1035 57.4439C47.1663 57.4055 47.2156 57.3775 47.2515 57.3598C47.3352 57.3185 47.4157 57.316 47.4931 57.3522C47.5674 57.3824 47.7011 57.4726 47.8941 57.6228L52.137 61.0497L52.0896 61.5413L51.8017 55.3949C51.7992 55.3144 51.8115 55.2414 51.8387 55.176C51.8719 55.1076 51.9124 55.0616 51.9602 55.038C51.9841 55.0263 52.0245 55.0101 52.0812 54.9895C52.138 54.969 52.2142 54.9351 52.3099 54.8879L52.7091 54.68C52.7659 54.6445 52.8571 54.5958 52.9827 54.5339C52.9947 54.528 53.0095 54.543 53.0272 54.5789C53.0449 54.6147 53.0477 54.6356 53.0358 54.6415C52.7248 54.7948 52.5242 54.9458 52.434 55.0943C52.3467 55.234 52.3651 55.4219 52.489 55.6581L54.7158 59.7447C54.8132 59.9271 54.9004 60.0513 54.9776 60.1173C55.0607 60.1804 55.1635 60.2004 55.2858 60.1772C55.4142 60.1511 55.5949 60.0805 55.8281 59.9655ZM59.6511 56.9652C59.2022 57.3929 58.7027 57.6708 58.1526 57.7989C57.6027 57.9176 57.0611 57.8904 56.5278 57.7171C55.9946 57.5345 55.5257 57.2308 55.1211 56.806C54.6474 56.3088 54.3682 55.7645 54.2835 55.173C54.1942 54.5767 54.26 54.0031 54.4808 53.452C54.7065 52.8963 55.0244 52.423 55.4347 52.0322C55.8933 51.5953 56.3998 51.3199 56.9542 51.206C57.5041 51.0873 58.0386 51.1168 58.5577 51.2944C59.0816 51.4674 59.5321 51.7518 59.9092 52.1476C60.3277 52.5868 60.5958 53.1002 60.7136 53.6878C60.8314 54.2754 60.796 54.8616 60.6074 55.4464C60.4236 56.0267 60.1048 56.533 59.6511 56.9652ZM59.7738 56.5721C60.1165 56.2456 60.3495 55.8717 60.4729 55.4503C60.5963 55.0289 60.5904 54.5878 60.4554 54.1272C60.3204 53.6665 60.0483 53.2214 59.639 52.7918C59.2067 52.3381 58.7334 52.0201 58.2192 51.8379C57.7051 51.6463 57.1921 51.6055 56.6802 51.7157C56.1731 51.8213 55.7071 52.0765 55.2824 52.4812C54.7225 53.0146 54.4512 53.6045 54.4685 54.2509C54.4859 54.8974 54.7797 55.5199 55.3499 56.1184C55.7776 56.5673 56.2576 56.8972 56.7901 57.1081C57.3228 57.3097 57.8518 57.3673 58.3773 57.281C58.9028 57.1947 59.3683 56.9584 59.7738 56.5721ZM65.9118 48.6085C65.8229 48.7573 65.4018 48.89 64.6485 49.0067C63.893 49.1142 62.8944 49.193 61.6528 49.243L61.7618 48.7489C62.801 48.6867 63.6275 48.6099 64.2413 48.5186C64.8551 48.4273 65.3306 48.3076 65.6676 48.1596C66.0081 48.0058 66.2536 47.803 66.4041 47.5513C66.4143 47.5341 66.4366 47.5358 66.471 47.5563C66.5053 47.5768 66.5173 47.5957 66.5071 47.6128L65.9118 48.6085ZM59.0695 47.8152C59.3397 47.3631 59.6411 47.0734 59.9736 46.9459C60.3061 46.8185 60.6412 46.8557 60.9788 47.0575C61.2592 47.2251 61.4728 47.4654 61.6196 47.7785C61.7642 48.0824 61.827 48.419 61.8082 48.7883C61.787 49.1485 61.6807 49.4888 61.4891 49.8092C61.431 49.9065 61.3517 50.0261 61.2513 50.168L63.3027 51.3944C63.4801 51.5004 63.6191 51.5602 63.7197 51.5738C63.8238 51.5816 63.9209 51.5426 64.0111 51.4567C64.1013 51.3708 64.2148 51.2134 64.3516 50.9845C64.3619 50.9674 64.3842 50.9691 64.4185 50.9896C64.4528 51.0101 64.4649 51.029 64.4546 51.0461C64.352 51.2178 64.267 51.3534 64.1997 51.453L63.8422 52.0315L63.5121 52.6031C63.4563 52.7095 63.3736 52.8543 63.2642 53.0374C63.2573 53.0489 63.2367 53.0443 63.2024 53.0238C63.1681 53.0033 63.1543 52.9873 63.1612 52.9758C63.298 52.747 63.3829 52.5725 63.4159 52.4524C63.4522 52.3265 63.4423 52.2197 63.3862 52.1317C63.3243 52.0403 63.2075 51.9433 63.0359 51.8407L59.0618 49.465C58.8902 49.3624 58.7523 49.3071 58.6483 49.2993C58.5476 49.2857 58.4505 49.3248 58.3569 49.4164C58.261 49.4989 58.1463 49.6517 58.0129 49.8748C58.0027 49.892 57.9804 49.8903 57.946 49.8698C57.9117 49.8493 57.8997 49.8304 57.9099 49.8133L58.1648 49.4064C58.3131 49.1844 58.4317 48.9989 58.5206 48.8502C58.5822 48.7472 58.6375 48.6482 58.6865 48.5532C58.7355 48.4582 58.7777 48.3747 58.813 48.3026C58.9053 48.1092 58.9908 47.9468 59.0695 47.8152ZM60.9832 47.7126C60.5484 47.4526 60.1692 47.3658 59.8458 47.452C59.5258 47.5326 59.2649 47.7417 59.0631 48.0793C58.9673 48.2395 58.9086 48.3636 58.887 48.4517C58.8654 48.5398 58.8856 48.6295 58.9475 48.7209C59.0128 48.8065 59.1456 48.9092 59.3458 49.0289L61.0453 50.0449C61.1982 49.8411 61.3122 49.6763 61.3875 49.5504C61.6372 49.1327 61.731 48.781 61.6688 48.4953C61.6009 48.2061 61.3724 47.9452 60.9832 47.7126ZM66.9317 46.543C66.9277 46.5557 66.9066 46.5561 66.8684 46.544C66.8303 46.5319 66.8133 46.5195 66.8173 46.5068C66.8959 46.2589 66.9375 46.0728 66.942 45.9483C66.9485 45.8175 66.9133 45.7189 66.8365 45.6526C66.7553 45.5779 66.6193 45.5103 66.4287 45.4498L62.0154 44.0499C61.8248 43.9894 61.6779 43.9673 61.5748 43.9835C61.4738 43.9935 61.3882 44.0537 61.3181 44.1644C61.2437 44.2667 61.1672 44.4417 61.0886 44.6896C61.0846 44.7023 61.0635 44.7026 61.0254 44.6905C60.9872 44.6784 60.9702 44.666 60.9742 44.6533L62.1716 40.8786C62.1897 40.8215 62.2274 40.8019 62.2846 40.8201L63.444 41.1669C63.463 41.1729 63.4665 41.195 63.4544 41.2331C63.4444 41.2649 63.4298 41.2778 63.4107 41.2717C63.0866 41.1689 62.8021 41.1731 62.557 41.2842C62.3119 41.3953 62.1451 41.5906 62.0564 41.8702L61.8477 42.5279C61.7711 42.7694 61.7306 42.9524 61.7261 43.0768C61.7216 43.2013 61.7567 43.2999 61.8316 43.3726C61.9085 43.4389 62.0422 43.5023 62.2329 43.5628L66.5508 44.9325C66.7351 44.991 66.8778 45.0152 66.9788 45.0053C67.0756 44.987 67.1569 44.9289 67.223 44.831C67.291 44.7267 67.3644 44.5506 67.443 44.3028L67.7212 43.4258C67.8018 43.1717 67.7591 42.9203 67.5931 42.6718C67.4292 42.417 67.1742 42.2067 66.8281 42.041C66.809 42.0349 66.8087 42.0139 66.8272 41.9777C66.8392 41.9396 66.8548 41.9236 66.8739 41.9296C67.2561 42.1138 67.6601 42.2734 68.0858 42.4085C68.1367 42.4246 68.1708 42.4494 68.1881 42.4829C68.2011 42.508 68.1986 42.5492 68.1804 42.6063L66.9317 46.543ZM65.7711 42.4296C65.4851 42.3389 65.2658 42.3358 65.1131 42.4202C64.9605 42.5047 64.8357 42.6994 64.739 43.0044L64.2734 44.4723L64.0922 44.4149L64.567 42.9184C64.6597 42.6261 64.6765 42.4076 64.6175 42.263C64.5521 42.1164 64.3987 42.0047 64.1572 41.9281C64.1445 41.9241 64.1442 41.903 64.1563 41.8649C64.1684 41.8268 64.1808 41.8097 64.1935 41.8138L64.9435 42.0621C65.1277 42.1206 65.2654 42.1608 65.3564 42.1826L65.8074 42.3152C65.8201 42.3192 65.8204 42.3403 65.8083 42.3784C65.7962 42.4166 65.7838 42.4336 65.7711 42.4296ZM66.931 38.1765C66.9369 38.1902 66.9161 38.2023 66.8688 38.2129C66.8151 38.2165 66.7584 38.2165 66.6985 38.213C66.5787 38.206 66.516 38.1923 66.5106 38.1719L66.2863 36.0151C66.2804 36.0014 66.301 35.9926 66.348 35.9887C66.3887 35.9777 66.4356 35.9738 66.4889 35.9769C66.622 35.9847 66.6942 36.0056 66.7056 36.0397L66.931 38.1765Z" fill="black" fill-opacity="0.85"/>
<defs>
<filter id="filter0_d_549_156" x="0" y="0" width="79" height="79" filterUnits="userSpaceOnUse" color-interpolation-filters="sRGB">
<feFlood flood-opacity="0" result="BackgroundImageFix"/>
<feColorMatrix in="SourceAlpha" type="matrix" values="0 0 0 0 0 0 0 0 0 0 0 0 0 0 0 0 0 0 127 0" result="hardAlpha"/>
<feOffset dy="4"/>
<feGaussianBlur stdDeviation="2"/>
<feComposite in2="hardAlpha" operator="out"/>
<feColorMatrix type="matrix" values="0 0 0 0 0 0 0 0 0 0 0 0 0 0 0 0 0 0 0.25 0"/>
<feBlend mode="normal" in2="BackgroundImageFix" result="effect1_dropShadow_549_156"/>
<feBlend mode="normal" in="SourceGraphic" in2="effect1_dropShadow_549_156" result="shape"/>
</filter>
</defs>
</svg>
